# 3ds Max Wavefront OBJ Exporter v0.97b - (c)2007 guruware
# File Created: 10.03.2017 16:33:52

mtllib Natures_Pot Bush_small.mtl

#
# object Natures_Pot_Bush_small
#

v  -14.3360 2.1501 14.3360
v  -14.3360 2.1501 -14.3360
v  -11.8110 -13.5979 -11.8110
v  -11.8110 -13.5979 11.8110
v  14.3360 2.1501 -14.3360
v  11.8110 -13.5979 -11.8110
v  14.3360 2.1501 14.3360
v  11.8110 -13.5979 11.8110
v  11.0264 2.1501 11.0264
v  -11.0264 2.1501 11.0264
v  11.0264 -1.7473 11.0264
v  -11.0264 -1.7473 11.0264
v  11.0264 2.1501 -11.0264
v  -11.0264 2.1501 -11.0264
v  11.0264 -1.7473 -11.0264
v  -11.0264 -1.7473 -11.0264
v  -0.0000 -4.1313 0.0000
v  9.8415 3.3870 7.1502
v  -3.7591 3.3870 11.5694
v  9.8415 3.3870 -7.1502
v  -12.1649 3.3870 0.0000
v  -3.7591 3.3870 -11.5694
v  12.1649 15.5520 0.0000
v  3.7590 15.5520 11.5694
v  -9.8415 15.5520 7.1502
v  -9.8415 15.5520 -7.1502
v  3.7590 15.5520 -11.5694
v  -0.0000 23.0703 0.0000
# 28 vertices

vn -0.9874 -0.1583 -0.0000
vn 0.0000 -0.1583 -0.9874
vn 0.9874 -0.1583 -0.0000
vn 0.0000 -0.1583 0.9874
vn 0.0000 -1.0000 -0.0000
vn -0.0000 1.0000 0.0000
vn 0.0000 1.0000 0.0000
vn 0.0000 0.0000 -1.0000
vn -1.0000 0.0000 -0.0000
vn 0.0000 -0.0000 1.0000
vn 1.0000 0.0000 -0.0000
vn 0.1876 -0.7947 0.5774
vn 0.6071 -0.7947 -0.0000
vn -0.4911 -0.7947 0.3568
vn -0.4911 -0.7947 -0.3568
vn 0.1876 -0.7947 -0.5774
vn 0.9822 -0.1876 -0.0000
vn 0.3035 -0.1876 0.9342
vn -0.7946 -0.1876 0.5774
vn -0.7946 -0.1876 -0.5774
vn 0.3035 -0.1876 -0.9342
vn 0.7946 0.1876 0.5774
vn -0.3035 0.1876 0.9342
vn -0.9822 0.1876 0.0000
vn -0.3035 0.1876 -0.9342
vn 0.7946 0.1876 -0.5774
vn 0.4911 0.7947 0.3568
vn -0.1876 0.7947 0.5774
vn -0.6071 0.7947 0.0000
vn -0.1876 0.7947 -0.5774
vn 0.4911 0.7947 -0.3568
# 31 vertex normals

vt 0.1010 0.6374 0.0000
vt 0.1510 0.6374 0.0000
vt 0.1510 0.6874 0.0000
vt 0.1010 0.6874 0.0000
vt 0.3274 0.8638 0.0000
vt 0.3774 0.8638 0.0000
vt 0.3774 0.9138 0.0000
# 7 texture coords

g Natures_Pot_Bush_small
usemtl Natures
s off
f 1/1/1 2/2/1 3/3/1 4/4/1 
f 2/1/2 5/2/2 6/3/2 3/4/2 
f 5/1/3 7/2/3 8/3/3 6/4/3 
f 7/1/4 1/2/4 4/3/4 8/4/4 
f 4/1/5 3/2/5 6/3/5 8/4/5 
s 1
f 1/1/6 7/2/7 9/3/7 10/4/6 
s off
f 10/1/8 9/2/8 11/3/8 12/4/8 
s 1
f 7/1/7 5/2/6 13/3/6 9/4/7 
f 5/1/6 2/2/7 14/3/7 13/4/6 
f 2/1/7 1/2/6 10/3/6 14/4/7 
s off
f 11/1/7 15/2/7 16/3/7 12/4/7 
f 9/1/9 13/2/9 15/3/9 11/4/9 
f 13/1/10 14/2/10 16/3/10 15/4/10 
f 14/1/11 10/2/11 12/3/11 16/4/11 
f 17/5/12 18/6/12 19/7/12 
f 18/5/13 17/6/13 20/7/13 
f 17/5/14 19/6/14 21/7/14 
f 17/5/15 21/6/15 22/7/15 
f 17/5/16 22/6/16 20/7/16 
f 18/5/17 20/6/17 23/7/17 
f 19/5/18 18/6/18 24/7/18 
f 21/5/19 19/6/19 25/7/19 
f 22/5/20 21/6/20 26/7/20 
f 20/5/21 22/6/21 27/7/21 
f 18/5/22 23/6/22 24/7/22 
f 19/5/23 24/6/23 25/7/23 
f 21/5/24 25/6/24 26/7/24 
f 22/5/25 26/6/25 27/7/25 
f 20/5/26 27/6/26 23/7/26 
f 24/5/27 23/6/27 28/7/27 
f 25/5/28 24/6/28 28/7/28 
f 26/5/29 25/6/29 28/7/29 
f 27/5/30 26/6/30 28/7/30 
f 23/5/31 27/6/31 28/7/31 
# 14 polygons - 20 triangles

