# 3ds Max Wavefront OBJ Exporter v0.97b - (c)2007 guruware
# File Created: 10.03.2017 16:32:57

mtllib Natures_House Floor.mtl

#
# object Natures_House_Floor
#

v  -59.0551 3.9370 196.8504
v  -59.0551 3.9371 -196.8504
v  -59.0551 -3.9370 -196.8504
v  -59.0551 -3.9371 196.8504
v  59.0551 3.9371 -196.8504
v  59.0551 -3.9370 -196.8504
v  59.0551 3.9370 196.8504
v  59.0551 -3.9371 196.8504
# 8 vertices

vn -1.0000 0.0000 -0.0000
vn 0.0000 0.0000 -1.0000
vn 1.0000 0.0000 -0.0000
vn 0.0000 -0.0000 1.0000
vn 0.0000 -1.0000 -0.0000
vn 0.0000 1.0000 0.0000
# 6 vertex normals

vt 0.1031 0.3406 0.0000
vt 0.1189 0.3893 0.0000
vt 0.1189 0.3886 0.0000
vt 0.1031 0.3399 0.0000
vt 0.1367 0.3854 0.0000
vt 0.1367 0.3847 0.0000
vt 0.1209 0.3367 0.0000
vt 0.1209 0.3360 0.0000
# 8 texture coords

g Natures_House_Floor
usemtl Natures
s off
f 1/1/1 2/2/1 3/3/1 4/4/1 
f 2/2/2 5/5/2 6/6/2 3/3/2 
f 5/5/3 7/7/3 8/8/3 6/6/3 
f 7/7/4 1/1/4 4/4/4 8/8/4 
f 4/4/5 3/3/5 6/6/5 8/8/5 
f 7/7/6 5/5/6 2/2/6 1/1/6 
# 6 polygons

