# 3ds Max Wavefront OBJ Exporter v0.97b - (c)2007 guruware
# File Created: 10.03.2017 16:31:09

mtllib Natures_Grass Fence.mtl

#
# object Natures_Grass_Fence
#

v  -19.6850 23.6221 137.7953
v  -19.6850 23.6220 -137.7953
v  -19.6850 -23.6221 -137.7953
v  -19.6850 -23.6220 137.7953
v  19.6850 23.6220 -137.7953
v  19.6850 -23.6221 -137.7953
v  19.6850 23.6221 137.7953
v  19.6850 -23.6220 137.7953
# 8 vertices

vn -1.0000 0.0000 -0.0000
vn 0.0000 0.0000 -1.0000
vn 1.0000 0.0000 -0.0000
vn 0.0000 -0.0000 1.0000
vn 0.0000 -1.0000 0.0000
vn 0.0000 1.0000 -0.0000
# 6 vertex normals

vt 0.4973 0.8320 0.0000
vt 0.5223 0.8320 0.0000
vt 0.5223 0.8570 0.0000
vt 0.4973 0.8570 0.0000
# 4 texture coords

g Natures_Grass_Fence
usemtl Natures
s off
f 1/1/1 2/2/1 3/3/1 4/4/1 
f 2/1/2 5/2/2 6/3/2 3/4/2 
f 5/1/3 7/2/3 8/3/3 6/4/3 
f 7/1/4 1/2/4 4/3/4 8/4/4 
f 4/1/5 3/2/5 6/3/5 8/4/5 
f 7/1/6 5/2/6 2/3/6 1/4/6 
# 6 polygons

