# 3ds Max Wavefront OBJ Exporter v0.97b - (c)2007 guruware
# File Created: 10.03.2017 16:27:51

mtllib Natures_Bush_01.mtl

#
# object Natures_Bush_01
#

v  -10.6513 -30.6809 7.4044
v  -12.9103 -25.4006 -10.5114
v  4.3463 -35.4159 -3.6057
v  -27.0399 -0.2194 0.0533
v  -20.8064 18.0888 -17.5127
v  -4.4353 -4.4859 -25.6211
v  15.3385 -22.1813 -12.5758
v  1.4270 43.1299 -17.9355
v  13.3221 12.7122 -22.7287
v  24.7579 12.5556 -8.8038
v  -20.2604 3.9706 16.8546
v  -4.6136 -9.1086 25.2381
v  2.4208 42.2896 18.3388
v  -16.5660 42.9441 7.6706
v  15.4517 45.4313 -2.5396
v  -2.9339 53.4406 -1.9069
v  16.2117 -22.7378 12.2841
v  23.4829 25.6628 8.4306
v  13.0248 12.5556 22.8933
v  0.0038 -67.4784 -9.5452
v  0.0038 -28.1083 -3.8837
v  3.4133 -28.1083 -1.9152
v  8.3163 -67.4784 -4.7460
v  3.4133 -28.1083 2.0218
v  8.3163 -67.4784 4.8525
v  0.0038 -28.1083 3.9903
v  0.0038 -67.4784 9.6518
v  -3.4057 -28.1083 2.0218
v  -8.3087 -67.4784 4.8525
v  -3.4057 -28.1083 -1.9152
v  -8.3087 -67.4784 -4.7460
# 31 vertices

vn -0.4285 -0.8799 -0.2053
vn -0.8771 -0.4793 -0.0307
vn -0.8139 -0.2334 -0.5321
vn 0.0250 -0.5750 -0.8178
vn 0.0074 0.1585 -0.9873
vn 0.7645 -0.1390 -0.6294
vn -0.4074 0.2067 0.8896
vn 0.6966 0.3434 -0.6300
vn -0.2629 0.8140 0.5179
vn -0.7203 0.5505 -0.4220
vn -0.9281 0.1664 0.3330
vn -0.9650 0.2488 -0.0831
vn -0.6377 0.5572 -0.5319
vn -0.0126 -0.5822 -0.8129
vn -0.6720 -0.2351 -0.7023
vn -0.2233 0.1821 -0.9576
vn 0.3769 -0.2386 -0.8950
vn 0.3461 0.8291 -0.4392
vn 0.9655 -0.2575 -0.0397
vn 0.9423 0.2964 -0.1557
vn 0.7547 -0.6548 -0.0412
vn 0.9759 -0.1328 0.1732
vn 0.6008 0.3261 0.7299
vn 0.6691 0.5495 0.5003
vn 0.3822 0.8484 0.3662
vn 0.8421 -0.0841 0.5327
vn 0.4008 -0.2304 0.8867
vn 0.1436 -0.8231 0.5495
vn -0.0380 0.1380 0.9897
vn 0.0522 -0.6449 0.7625
vn -0.6571 -0.3625 0.6609
vn -0.8363 -0.3476 0.4241
vn 0.4962 0.1236 -0.8594
vn 0.9923 0.1236 0.0000
vn 0.4962 0.1236 0.8594
vn -0.4962 0.1236 0.8594
vn 0.0000 1.0000 0.0000
vn -0.4962 0.1236 -0.8594
vn -0.9923 0.1236 0.0000
vn 0.0000 -1.0000 -0.0000
# 40 vertex normals

vt 0.3527 0.8392 0.0000
vt 0.3527 0.8892 0.0000
vt 0.3027 0.8592 0.0000
vt 0.3027 0.8392 0.0000
vt 0.3275 0.8892 0.0000
vt 0.3275 0.8392 0.0000
vt 0.3027 0.8892 0.0000
vt 0.3027 0.8662 0.0000
vt 0.3208 0.8892 0.0000
vt 0.3027 0.8670 0.0000
vt 0.3426 0.8555 0.0000
vt 0.3300 0.8892 0.0000
vt 0.3255 0.8392 0.0000
vt 0.3253 0.8892 0.0000
vt 0.3269 0.8892 0.0000
vt 0.3255 0.8892 0.0000
vt 0.3274 0.8892 0.0000
vt 0.3298 0.8392 0.0000
vt 0.3276 0.8392 0.0000
vt 0.3277 0.8642 0.0000
vt 0.3249 0.8892 0.0000
vt 0.3353 0.8892 0.0000
vt 0.3176 0.8589 0.0000
vt 0.3319 0.8392 0.0000
vt 0.3277 0.8392 0.0000
vt 0.3353 0.8392 0.0000
vt 0.3254 0.8892 0.0000
vt 0.3277 0.8892 0.0000
vt 0.3321 0.8892 0.0000
vt 0.3155 0.8651 0.0000
vt 0.3223 0.8892 0.0000
vt 0.3253 0.8392 0.0000
vt 0.3188 0.8892 0.0000
vt 0.3272 0.8392 0.0000
vt 0.3302 0.8392 0.0000
vt 0.0871 0.4612 0.0000
vt 0.1451 0.4612 0.0000
vt 0.1451 0.5192 0.0000
vt 0.0871 0.5192 0.0000
vt 0.1161 0.5192 0.0000
vt 0.1412 0.5047 0.0000
vt 0.1412 0.4757 0.0000
vt 0.1161 0.4612 0.0000
vt 0.0910 0.4757 0.0000
vt 0.0910 0.5047 0.0000
# 45 texture coords

g Natures_Bush_01
usemtl Natures
s off
f 1/1/1 2/2/1 3/3/1 
f 1/4/2 4/1/2 2/5/2 
f 4/6/3 5/2/3 2/7/3 
f 3/8/4 6/1/4 7/2/4 
f 6/4/5 8/1/5 9/9/5 
f 9/1/6 10/2/6 7/10/6 
f 11/7/7 12/4/7 13/1/7 14/2/7 
f 10/7/8 9/4/8 8/1/8 15/2/8 
f 13/4/9 16/11/9 14/12/9 
f 14/13/10 16/2/10 5/7/10 
f 11/4/11 14/1/11 4/14/11 
f 4/4/12 14/1/12 5/15/12 
f 5/4/13 16/1/13 8/16/13 
f 3/7/14 2/6/14 6/2/14 
f 2/4/15 5/1/15 6/17/15 
f 6/7/16 5/18/16 8/2/16 
f 7/7/17 6/19/17 9/2/17 
f 15/7/18 8/4/18 16/20/18 
f 7/4/19 10/1/19 17/21/19 
f 10/4/20 15/1/20 18/22/20 
f 3/23/21 7/24/21 17/2/21 
f 17/7/22 10/25/22 18/2/22 
f 19/7/23 18/26/23 13/2/23 
f 18/4/24 15/1/24 13/27/24 
f 13/7/25 15/4/25 16/20/25 
f 17/4/26 18/1/26 19/28/26 
f 17/4/27 19/1/27 12/29/27 
f 3/30/28 17/1/28 1/31/28 
f 12/7/29 19/32/29 13/2/29 
f 1/33/30 17/34/30 12/2/30 
f 1/7/31 12/35/31 11/2/31 
f 1/4/32 11/1/32 4/5/32 
f 20/36/33 21/37/33 22/38/33 23/39/33 
f 23/36/34 22/37/34 24/38/34 25/39/34 
f 25/36/35 24/37/35 26/38/35 27/39/35 
f 27/36/36 26/37/36 28/38/36 29/39/36 
f 22/40/37 21/41/37 30/42/37 28/43/37 
f 22/40/37 28/43/37 26/44/37 24/45/37 
f 31/36/38 30/37/38 21/38/38 20/39/38 
f 29/36/39 28/37/39 30/38/39 31/39/39 
f 20/40/40 23/41/40 25/42/40 27/43/40 
f 20/40/40 27/43/40 29/44/40 31/45/40 
# 12 polygons - 30 triangles

