# 3ds Max Wavefront OBJ Exporter v0.97b - (c)2007 guruware
# File Created: 10.03.2017 16:30:02

mtllib Natures_Fir Tree.mtl

#
# object Natures_Fir_Tree
#

v  -0.0000 130.6034 -27.3886
v  -0.0000 169.9735 -2.1403
v  1.8535 169.9735 -1.0701
v  23.7192 123.8339 -13.6943
v  1.8535 169.9735 1.0701
v  23.7192 123.8339 13.6943
v  -0.0000 169.9735 2.1402
v  -0.0000 130.6034 27.3886
v  -1.8535 169.9735 1.0701
v  -23.7192 123.8339 13.6943
v  -1.8535 169.9735 -1.0701
v  -23.7192 123.8339 -13.6943
v  -0.0000 -66.2470 -53.9123
v  46.6895 -66.2470 -26.9562
v  46.6895 -66.2470 26.9562
v  -0.0000 -66.2470 53.9123
v  -46.6895 -66.2470 26.9562
v  -46.6895 -66.2470 -26.9562
v  -66.7453 -72.8891 38.5354
v  -40.4731 -26.8769 23.3672
v  -40.4731 -26.8769 -23.3671
v  -66.7453 -72.8891 -38.5354
v  -58.3683 -33.6464 33.6990
v  -34.2567 12.4932 19.7781
v  -34.2567 12.4932 -19.7781
v  -58.3683 -33.6464 -33.6989
v  -48.9838 5.7237 28.2808
v  -28.0404 51.8632 16.1891
v  -28.0404 51.8632 -16.1891
v  -48.9838 5.7237 -28.2808
v  -40.5867 45.0938 23.4327
v  -21.8240 91.2333 12.6001
v  -21.8240 91.2333 -12.6001
v  -40.5867 45.0938 -23.4327
v  -31.9068 84.4638 18.4214
v  -15.6076 130.6034 9.0111
v  -15.6076 130.6034 -9.0111
v  -31.9068 84.4638 -18.4214
v  -0.0000 -26.8769 -46.7343
v  -0.0000 -66.5017 -77.0709
v  -0.0000 12.4932 -39.5563
v  -0.0000 -26.8769 -67.3979
v  -0.0000 51.8632 -32.3782
v  -0.0000 12.4932 -56.5616
v  -0.0000 91.2333 -25.2002
v  -0.0000 51.8632 -46.8654
v  -0.0000 130.6034 -18.0222
v  -0.0000 91.2333 -36.8427
v  -0.0000 -66.5017 77.0709
v  -0.0000 -26.8769 46.7343
v  -0.0000 -26.8769 67.3979
v  -0.0000 12.4932 39.5563
v  -0.0000 12.4932 56.5616
v  -0.0000 51.8632 32.3782
v  -0.0000 51.8632 46.8654
v  -0.0000 91.2333 25.2002
v  -0.0000 91.2333 36.8427
v  -0.0000 130.6034 18.0222
v  66.7453 -72.8891 38.5354
v  40.4731 -26.8769 23.3672
v  58.3683 -33.6464 33.6990
v  34.2567 12.4932 19.7781
v  48.9838 5.7237 28.2808
v  28.0404 51.8632 16.1891
v  40.5867 45.0938 23.4327
v  21.8240 91.2333 12.6001
v  31.9068 84.4638 18.4214
v  15.6076 130.6034 9.0111
v  66.7453 -72.8891 -38.5354
v  40.4731 -26.8769 -23.3671
v  58.3683 -33.6464 -33.6989
v  34.2567 12.4932 -19.7781
v  48.9838 5.7237 -28.2808
v  28.0404 51.8632 -16.1891
v  40.5867 45.0938 -23.4327
v  21.8240 91.2333 -12.6001
v  31.9068 84.4638 -18.4214
v  15.6076 130.6034 -9.0111
v  0.0001 -91.2721 -15.3548
v  0.0001 -63.1998 -15.3548
v  13.2977 -63.1998 -7.6774
v  13.2977 -91.2721 -7.6774
v  13.2977 -63.1998 7.6774
v  13.2977 -91.2721 7.6774
v  0.0001 -63.1998 15.3548
v  0.0001 -91.2721 15.3548
v  -13.2976 -63.1998 7.6774
v  -13.2976 -91.2721 7.6774
v  -13.2976 -63.1998 -7.6774
v  -13.2976 -91.2721 -7.6774
v  0.0001 -119.3444 -19.2379
v  16.6606 -119.3444 -9.6190
v  16.6605 -119.3444 9.6189
v  0.0001 -119.3444 19.2379
v  -16.6604 -119.3444 9.6189
v  -16.6604 -119.3444 -9.6190
# 96 vertices

vn 0.5327 0.4529 -0.7150
vn 0.9037 0.4282 0.0000
vn 0.5327 0.4529 0.7150
vn -0.5327 0.4529 0.7150
vn 0.0000 1.0000 0.0000
vn -0.5327 0.4529 -0.7150
vn -0.9037 0.4282 0.0000
vn -0.0000 -1.0000 0.0000
vn -0.8684 0.4958 -0.0000
vn -0.8863 0.4632 0.0000
vn -0.9106 0.4133 0.0000
vn -0.9263 0.3767 0.0000
vn -0.9429 0.3331 0.0000
vn -0.4494 0.5228 -0.7244
vn -0.4622 0.4910 -0.7384
vn -0.4778 0.4397 -0.7606
vn -0.4902 0.4016 -0.7736
vn -0.5048 0.3559 -0.7865
vn -0.4494 0.5228 0.7244
vn -0.4622 0.4910 0.7384
vn -0.4778 0.4397 0.7606
vn -0.4902 0.4016 0.7736
vn -0.5048 0.3559 0.7865
vn 0.4494 0.5228 0.7244
vn 0.4622 0.4910 0.7384
vn 0.4778 0.4397 0.7606
vn 0.4902 0.4016 0.7736
vn 0.5048 0.3559 0.7865
vn 0.8684 0.4958 0.0000
vn 0.8863 0.4632 0.0000
vn 0.9106 0.4133 0.0000
vn 0.9263 0.3767 0.0000
vn 0.9429 0.3331 0.0000
vn 0.4494 0.5228 -0.7244
vn 0.4622 0.4910 -0.7384
vn 0.4778 0.4397 -0.7606
vn 0.4902 0.4016 -0.7736
vn 0.5048 0.3559 -0.7865
vn 0.6407 -0.7678 -0.0000
vn 0.3088 -0.9143 0.2622
vn 0.3088 -0.9143 -0.2622
vn -0.3088 -0.9143 -0.2622
vn -0.6407 -0.7678 -0.0000
vn -0.3088 -0.9143 0.2622
vn -0.2474 -0.9430 0.2227
vn -0.5574 -0.8302 -0.0000
vn -0.2474 -0.9430 -0.2227
vn 0.2474 -0.9430 -0.2227
vn 0.2474 -0.9430 0.2227
vn 0.5574 -0.8302 -0.0000
vn -0.2010 -0.9622 0.1837
vn -0.4748 -0.8801 -0.0000
vn -0.2010 -0.9622 -0.1837
vn 0.2010 -0.9622 -0.1837
vn 0.2010 -0.9622 0.1837
vn 0.4748 -0.8801 -0.0000
vn -0.1710 -0.9723 0.1593
vn -0.4177 -0.9086 -0.0000
vn -0.1710 -0.9723 -0.1593
vn 0.1710 -0.9723 -0.1593
vn 0.1710 -0.9723 0.1593
vn 0.4177 -0.9086 -0.0000
vn -0.1432 -0.9809 0.1316
vn -0.3538 -0.9353 0.0000
vn -0.1432 -0.9809 -0.1316
vn 0.1432 -0.9809 -0.1316
vn 0.1432 -0.9809 0.1316
vn 0.3538 -0.9353 0.0000
vn -0.1262 -0.9844 0.1226
vn -0.3144 -0.9493 0.0000
vn -0.1262 -0.9844 -0.1226
vn 0.1262 -0.9844 -0.1226
vn 0.1262 -0.9844 0.1226
vn 0.3144 -0.9493 0.0000
vn 0.5000 -0.0000 -0.8660
vn 1.0000 0.0000 0.0000
vn 0.5000 0.0000 0.8660
vn -0.5000 0.0000 0.8660
vn -0.0000 1.0000 -0.0000
vn 0.0000 1.0000 -0.0000
vn -0.5000 -0.0000 -0.8660
vn -1.0000 0.0000 -0.0000
vn 0.0000 -1.0000 0.0000
vn -0.9929 0.1189 -0.0000
vn -0.4965 0.1189 -0.8599
vn -0.4965 0.1189 0.8599
vn 0.4965 0.1189 0.8599
vn 0.9929 0.1189 0.0000
vn 0.4965 0.1189 -0.8599
# 89 vertex normals

vt 0.7139 0.8622 0.0000
vt 0.7639 0.8622 0.0000
vt 0.7639 0.9122 0.0000
vt 0.7139 0.9122 0.0000
vt 0.7389 0.9122 0.0000
vt 0.7605 0.8997 0.0000
vt 0.7605 0.8747 0.0000
vt 0.7389 0.8622 0.0000
vt 0.7172 0.8747 0.0000
vt 0.7172 0.8997 0.0000
vt 0.1032 0.6620 0.0000
vt 0.1532 0.6620 0.0000
vt 0.1532 0.7120 0.0000
vt 0.1032 0.7120 0.0000
vt 0.1282 0.7120 0.0000
vt 0.1499 0.6995 0.0000
vt 0.1499 0.6745 0.0000
vt 0.1282 0.6620 0.0000
vt 0.1066 0.6745 0.0000
vt 0.1066 0.6995 0.0000
# 20 texture coords

g Natures_Fir_Tree
usemtl Natures
s off
f 1/1/1 2/2/1 3/3/1 4/4/1 
f 4/1/2 3/2/2 5/3/2 6/4/2 
f 6/1/3 5/2/3 7/3/3 8/4/3 
f 8/1/4 7/2/4 9/3/4 10/4/4 
f 3/5/5 2/6/5 11/7/5 9/8/5 
f 3/5/5 9/8/5 7/9/5 5/10/5 
f 12/1/6 11/2/6 2/3/6 1/4/6 
f 10/1/7 9/2/7 11/3/7 12/4/7 
f 13/5/8 14/6/8 15/7/8 16/8/8 
f 13/5/8 16/8/8 17/9/8 18/10/8 
f 19/1/9 20/2/9 21/3/9 22/4/9 
f 23/1/10 24/2/10 25/3/10 26/4/10 
f 27/1/11 28/2/11 29/3/11 30/4/11 
f 31/1/12 32/2/12 33/3/12 34/4/12 
f 35/1/13 36/2/13 37/3/13 38/4/13 
f 22/1/14 21/2/14 39/3/14 40/4/14 
f 26/1/15 25/2/15 41/3/15 42/4/15 
f 30/1/16 29/2/16 43/3/16 44/4/16 
f 34/1/17 33/2/17 45/3/17 46/4/17 
f 38/1/18 37/2/18 47/3/18 48/4/18 
f 49/1/19 50/2/19 20/3/19 19/4/19 
f 51/1/20 52/2/20 24/3/20 23/4/20 
f 53/1/21 54/2/21 28/3/21 27/4/21 
f 55/1/22 56/2/22 32/3/22 31/4/22 
f 57/1/23 58/2/23 36/3/23 35/4/23 
f 59/1/24 60/2/24 50/3/24 49/4/24 
f 61/1/25 62/2/25 52/3/25 51/4/25 
f 63/1/26 64/2/26 54/3/26 53/4/26 
f 65/1/27 66/2/27 56/3/27 55/4/27 
f 67/1/28 68/2/28 58/3/28 57/4/28 
f 69/1/29 70/2/29 60/3/29 59/4/29 
f 71/1/30 72/2/30 62/3/30 61/4/30 
f 73/1/31 74/2/31 64/3/31 63/4/31 
f 75/1/32 76/2/32 66/3/32 65/4/32 
f 77/1/33 78/2/33 68/3/33 67/4/33 
f 40/1/34 39/2/34 70/3/34 69/4/34 
f 42/1/35 41/2/35 72/3/35 71/4/35 
f 44/1/36 43/2/36 74/3/36 73/4/36 
f 46/1/37 45/2/37 76/3/37 75/4/37 
f 48/1/38 47/2/38 78/3/38 77/4/38 
f 36/1/39 10/2/39 12/3/39 37/4/39 
f 37/1/40 12/2/40 1/3/40 47/4/40 
f 58/1/41 8/2/41 10/3/41 36/4/41 
f 68/1/42 6/2/42 8/3/42 58/4/42 
f 78/1/43 4/2/43 6/3/43 68/4/43 
f 47/1/44 1/2/44 4/3/44 78/4/44 
f 45/1/45 48/2/45 77/3/45 76/4/45 
f 76/1/46 77/2/46 67/3/46 66/4/46 
f 66/1/47 67/2/47 57/3/47 56/4/47 
f 56/1/48 57/2/48 35/3/48 32/4/48 
f 33/1/49 38/2/49 48/3/49 45/4/49 
f 32/1/50 35/2/50 38/3/50 33/4/50 
f 43/1/51 46/2/51 75/3/51 74/4/51 
f 74/1/52 75/2/52 65/3/52 64/4/52 
f 64/1/53 65/2/53 55/3/53 54/4/53 
f 54/1/54 55/2/54 31/3/54 28/4/54 
f 29/1/55 34/2/55 46/3/55 43/4/55 
f 28/1/56 31/2/56 34/3/56 29/4/56 
f 41/1/57 44/2/57 73/3/57 72/4/57 
f 72/1/58 73/2/58 63/3/58 62/4/58 
f 62/1/59 63/2/59 53/3/59 52/4/59 
f 52/1/60 53/2/60 27/3/60 24/4/60 
f 25/1/61 30/2/61 44/3/61 41/4/61 
f 24/1/62 27/2/62 30/3/62 25/4/62 
f 39/1/63 42/2/63 71/3/63 70/4/63 
f 70/1/64 71/2/64 61/3/64 60/4/64 
f 60/1/65 61/2/65 51/3/65 50/4/65 
f 50/1/66 51/2/66 23/3/66 20/4/66 
f 21/1/67 26/2/67 42/3/67 39/4/67 
f 20/1/68 23/2/68 26/3/68 21/4/68 
f 13/1/69 40/2/69 69/3/69 14/4/69 
f 14/1/70 69/2/70 59/3/70 15/4/70 
f 15/1/71 59/2/71 49/3/71 16/4/71 
f 16/1/72 49/2/72 19/3/72 17/4/72 
f 18/1/73 22/2/73 40/3/73 13/4/73 
f 17/1/74 19/2/74 22/3/74 18/4/74 
f 79/11/75 80/12/75 81/13/75 82/14/75 
f 82/11/76 81/12/76 83/13/76 84/14/76 
f 84/11/77 83/12/77 85/13/77 86/14/77 
f 86/11/78 85/12/78 87/13/78 88/14/78 
f 81/15/79 80/16/79 89/17/79 87/18/79 
f 81/15/80 87/18/80 85/19/80 83/20/80 
f 90/11/81 89/12/81 80/13/81 79/14/81 
f 88/11/82 87/12/82 89/13/82 90/14/82 
f 91/15/83 92/16/83 93/17/83 94/18/83 
f 91/15/83 94/18/83 95/19/83 96/20/83 
f 95/11/84 88/12/84 90/13/84 96/14/84 
f 96/11/85 90/12/85 79/13/85 91/14/85 
f 94/11/86 86/12/86 88/13/86 95/14/86 
f 93/11/87 84/12/87 86/13/87 94/14/87 
f 92/11/88 82/12/88 84/13/88 93/14/88 
f 91/11/89 79/12/89 82/13/89 92/14/89 
# 92 polygons

