# 3ds Max Wavefront OBJ Exporter v0.97b - (c)2007 guruware
# File Created: 10.03.2017 16:33:22

mtllib Natures_Pot Bush_big.mtl

#
# object Natures_Pot_Bush_big
#

v  -5.3315 -8.4115 3.6719
v  -6.4609 -5.7714 -5.2859
v  2.1673 -10.7790 -1.8331
v  -13.5258 6.8192 -0.0036
v  -10.4090 15.9734 -8.7866
v  -2.2234 4.6860 -12.8408
v  7.6634 -4.1617 -6.3181
v  0.7077 28.4939 -8.9980
v  6.6552 13.2850 -11.3946
v  12.3731 13.2068 -4.4321
v  -10.1360 8.9142 8.3970
v  -2.3126 2.3746 12.5888
v  1.2046 28.0738 9.1391
v  -7.0196 27.5505 6.1311
v  10.8382 0.6172 3.8768
v  6.5066 13.2068 11.4164
v  4.8156 -4.5543 8.0965
v  -1.4728 33.6492 -0.9837
v  -8.6383 28.1024 -0.0036
v  7.7200 29.6446 -1.3001
v  11.7357 19.7604 4.1850
v  -14.3399 -2.4426 14.3324
v  -14.3399 -2.4426 -14.3396
v  -11.8149 -18.1907 -11.8146
v  -11.8149 -18.1907 11.8074
v  14.3321 -2.4426 -14.3396
v  11.8071 -18.1907 -11.8146
v  14.3321 -2.4426 14.3324
v  11.8071 -18.1907 11.8074
v  11.0225 -2.4426 11.0228
v  -11.0303 -2.4426 11.0228
v  11.0225 -6.3401 11.0228
v  -11.0303 -6.3401 11.0228
v  11.0225 -2.4426 -11.0300
v  -11.0303 -2.4426 -11.0300
v  11.0225 -6.3401 -11.0300
v  -11.0303 -6.3401 -11.0300
# 37 vertices

vn -0.4285 -0.8799 -0.2053
vn -0.8771 -0.4793 -0.0307
vn -0.8139 -0.2334 -0.5321
vn 0.0250 -0.5750 -0.8178
vn 0.0074 0.1585 -0.9873
vn 0.7645 -0.1390 -0.6294
vn -0.3492 0.1710 0.9213
vn 0.6706 -0.1975 0.7151
vn 0.7198 -0.6582 0.2206
vn -0.2411 0.8217 0.5164
vn -0.5159 0.5505 -0.6563
vn -0.9255 0.1943 0.3250
vn -0.9685 0.2224 -0.1119
vn -0.6377 0.5572 -0.5319
vn -0.0126 -0.5822 -0.8129
vn -0.6720 -0.2351 -0.7023
vn -0.2233 0.1821 -0.9576
vn 0.3769 -0.2386 -0.8950
vn 0.6966 0.3434 -0.6300
vn 0.3461 0.8291 -0.4392
vn 0.9534 -0.2384 -0.1851
vn 0.9423 0.2964 -0.1557
vn 0.7837 -0.6195 0.0463
vn 0.9927 -0.0483 0.1102
vn 0.6008 0.3261 0.7299
vn 0.6691 0.5495 0.5003
vn 0.3822 0.8484 0.3662
vn 0.8295 -0.0478 0.5565
vn 0.3717 -0.2046 0.9055
vn 0.1033 -0.8549 0.5084
vn -0.0380 0.1380 0.9897
vn -0.1064 -0.6157 0.7808
vn -0.6571 -0.3625 0.6609
vn -0.9392 0.2157 0.2672
vn -0.5775 0.7854 0.2230
vn -0.8363 -0.3476 0.4241
vn -0.9874 -0.1583 0.0000
vn 0.0000 -0.1583 -0.9874
vn 0.9874 -0.1583 0.0000
vn 0.0000 -0.1583 0.9874
vn 0.0000 -1.0000 0.0000
vn -0.0000 1.0000 -0.0000
vn 0.0000 1.0000 -0.0000
vn 0.0000 0.0000 -1.0000
vn -1.0000 0.0000 -0.0000
vn 0.0000 -0.0000 1.0000
vn 1.0000 0.0000 -0.0000
# 47 vertex normals

vt 0.3675 0.8490 0.0000
vt 0.3675 0.8990 0.0000
vt 0.3175 0.8690 0.0000
vt 0.3175 0.8490 0.0000
vt 0.3422 0.8990 0.0000
vt 0.3423 0.8490 0.0000
vt 0.3175 0.8990 0.0000
vt 0.3175 0.8761 0.0000
vt 0.3355 0.8990 0.0000
vt 0.3175 0.8768 0.0000
vt 0.3397 0.8490 0.0000
vt 0.3474 0.8990 0.0000
vt 0.3574 0.8653 0.0000
vt 0.3448 0.8990 0.0000
vt 0.3403 0.8490 0.0000
vt 0.3401 0.8990 0.0000
vt 0.3416 0.8990 0.0000
vt 0.3403 0.8990 0.0000
vt 0.3422 0.8490 0.0000
vt 0.3445 0.8490 0.0000
vt 0.3425 0.8740 0.0000
vt 0.3397 0.8990 0.0000
vt 0.3501 0.8990 0.0000
vt 0.3324 0.8687 0.0000
vt 0.3467 0.8490 0.0000
vt 0.3424 0.8490 0.0000
vt 0.3501 0.8490 0.0000
vt 0.3402 0.8990 0.0000
vt 0.3424 0.8990 0.0000
vt 0.3468 0.8990 0.0000
vt 0.3302 0.8750 0.0000
vt 0.3371 0.8990 0.0000
vt 0.3401 0.8490 0.0000
vt 0.3336 0.8990 0.0000
vt 0.3420 0.8490 0.0000
vt 0.3450 0.8490 0.0000
vt 0.3423 0.8990 0.0000
vt 0.0370 0.6325 0.0000
vt 0.0870 0.6325 0.0000
vt 0.0870 0.6825 0.0000
vt 0.0370 0.6825 0.0000
# 41 texture coords

g Natures_Pot_Bush_big
usemtl Natures
s off
f 1/1/1 2/2/1 3/3/1 
f 1/4/2 4/1/2 2/5/2 
f 4/6/3 5/2/3 2/7/3 
f 3/8/4 6/1/4 7/2/4 
f 6/4/5 8/1/5 9/9/5 
f 9/1/6 10/2/6 7/10/6 
f 11/7/7 12/4/7 13/1/7 14/2/7 
f 15/11/8 16/2/8 17/7/8 
f 3/4/9 15/1/9 17/12/9 
f 13/4/10 18/13/10 14/14/10 
f 19/15/11 18/2/11 5/7/11 
f 11/4/12 14/1/12 4/16/12 
f 4/4/13 19/1/13 5/17/13 
f 5/4/14 18/1/14 8/18/14 
f 3/7/15 2/19/15 6/2/15 
f 2/4/16 5/1/16 6/5/16 
f 6/7/17 5/20/17 8/2/17 
f 7/7/18 6/6/18 9/2/18 
f 10/7/19 9/4/19 8/1/19 20/2/19 
f 20/7/20 8/4/20 18/21/20 
f 7/4/21 10/1/21 15/22/21 
f 10/4/22 20/1/22 21/23/22 
f 3/24/23 7/25/23 15/2/23 
f 15/7/24 10/26/24 21/2/24 
f 16/7/25 21/27/25 13/2/25 
f 21/4/26 20/1/26 13/28/26 
f 13/7/27 20/4/27 18/21/27 
f 15/4/28 21/1/28 16/29/28 
f 17/4/29 16/1/29 12/30/29 
f 3/31/30 17/1/30 1/32/30 
f 12/7/31 16/33/31 13/2/31 
f 1/34/32 17/35/32 12/2/32 
f 1/7/33 12/36/33 11/2/33 
f 4/7/34 14/27/34 19/2/34 
f 19/7/35 14/4/35 18/13/35 
f 1/4/36 11/1/36 4/37/36 
f 22/38/37 23/39/37 24/40/37 25/41/37 
f 23/38/38 26/39/38 27/40/38 24/41/38 
f 26/38/39 28/39/39 29/40/39 27/41/39 
f 28/38/40 22/39/40 25/40/40 29/41/40 
f 25/38/41 24/39/41 27/40/41 29/41/41 
s 1
f 22/38/42 28/39/43 30/40/43 31/41/42 
s off
f 31/38/44 30/39/44 32/40/44 33/41/44 
s 1
f 28/38/43 26/39/42 34/40/42 30/41/43 
f 26/38/42 23/39/43 35/40/43 34/41/42 
f 23/38/43 22/39/42 31/40/42 35/41/43 
s off
f 32/38/43 36/39/43 37/40/43 33/41/43 
f 30/38/45 34/39/45 36/40/45 32/41/45 
f 34/38/46 35/39/46 37/40/46 36/41/46 
f 35/38/47 31/39/47 33/40/47 37/41/47 
# 16 polygons - 34 triangles

