# 3ds Max Wavefront OBJ Exporter v0.97b - (c)2007 guruware
# File Created: 10.03.2017 16:45:00

mtllib Props_Traffic cone.mtl

#
# object Props_Traffic_cone
#

v  0.0000 -5.5697 -12.5331
v  0.0000 26.6977 -2.9114
v  1.7113 26.6977 -2.3554
v  7.3668 -5.5697 -10.1395
v  2.7689 26.6977 -0.8997
v  11.9197 -5.5697 -3.8729
v  2.7689 26.6977 0.8997
v  11.9197 -5.5697 3.8729
v  1.7113 26.6977 2.3554
v  7.3667 -5.5697 10.1395
v  0.0000 26.6977 2.9115
v  -0.0000 -5.5697 12.5331
v  -1.7113 26.6977 2.3554
v  -7.3668 -5.5697 10.1395
v  -2.7689 26.6977 0.8997
v  -11.9197 -5.5697 3.8729
v  -2.7689 26.6977 -0.8997
v  -11.9197 -5.5697 -3.8729
v  -1.7113 26.6977 -2.3554
v  -7.3667 -5.5697 -10.1395
v  0.0000 -5.5697 -16.2452
v  -9.5487 -5.5697 -13.1426
v  0.0000 -9.5704 -16.2452
v  -9.5487 -9.5704 -13.1426
v  -15.4501 -5.5697 -5.0200
v  -15.4501 -5.5697 5.0200
v  -9.5487 -5.5697 13.1426
v  -0.0000 -5.5697 16.2452
v  9.5487 -5.5697 13.1426
v  15.4501 -5.5697 5.0200
v  15.4501 -5.5697 -5.0200
v  9.5487 -5.5697 -13.1426
v  9.5487 -9.5704 -13.1426
v  15.4501 -9.5704 -5.0200
v  15.4501 -9.5704 5.0200
v  9.5487 -9.5704 13.1426
v  -0.0000 -9.5704 16.2452
v  -9.5487 -9.5704 13.1426
v  -15.4501 -9.5704 5.0200
v  -15.4501 -9.5704 -5.0200
# 40 vertices

vn 0.2973 0.2728 -0.9150
vn 0.7783 0.2728 -0.5655
vn 0.9621 0.2728 0.0000
vn 0.7783 0.2728 0.5655
vn 0.2973 0.2728 0.9150
vn -0.2973 0.2728 0.9150
vn -0.7783 0.2728 0.5655
vn -0.9621 0.2728 0.0000
vn 0.0000 1.0000 0.0000
vn -0.2973 0.2728 -0.9150
vn -0.7783 0.2728 -0.5655
vn -0.3090 0.0000 -0.9511
vn -0.0000 1.0000 0.0000
vn -0.0000 -1.0000 -0.0000
vn 0.0000 -1.0000 -0.0000
vn -0.8090 0.0000 -0.5878
vn -1.0000 0.0000 -0.0000
vn -0.8090 -0.0000 0.5878
vn -0.3090 -0.0000 0.9511
vn 0.3090 -0.0000 0.9511
vn 0.8090 -0.0000 0.5878
vn 1.0000 0.0000 -0.0000
vn 0.8090 0.0000 -0.5878
vn 0.3090 0.0000 -0.9511
# 24 vertex normals

vt 0.2046 0.3365 0.0000
vt 0.2046 0.5280 0.0000
vt 0.2148 0.5280 0.0000
vt 0.2483 0.3365 0.0000
vt 0.2211 0.5280 0.0000
vt 0.2754 0.3365 0.0000
vt 0.1945 0.5280 0.0000
vt 0.1609 0.3365 0.0000
vt 0.1882 0.5280 0.0000
vt 0.1339 0.3365 0.0000
vt 0.1479 0.3365 0.0000
vt 0.2046 0.3128 0.0000
vt 0.1479 0.3128 0.0000
vt 0.1129 0.3365 0.0000
vt 0.2613 0.3365 0.0000
vt 0.2963 0.3365 0.0000
vt 0.2613 0.3128 0.0000
vt 0.2963 0.3128 0.0000
vt 0.1129 0.3128 0.0000
# 19 texture coords

g Props_Traffic_cone
usemtl Props_TrafficProps
s off
f 1/1/1 2/2/1 3/3/1 4/4/1 
f 4/4/2 3/3/2 5/5/2 6/6/2 
f 6/6/3 5/5/3 7/5/3 8/6/3 
f 8/6/4 7/5/4 9/3/4 10/4/4 
f 10/4/5 9/3/5 11/2/5 12/1/5 
f 12/1/6 11/2/6 13/7/6 14/8/6 
f 14/8/7 13/7/7 15/9/7 16/10/7 
f 16/10/8 15/9/8 17/9/8 18/10/8 
f 3/3/9 2/2/9 19/7/9 17/9/9 
f 3/3/9 17/9/9 15/9/9 13/7/9 
f 3/3/9 13/7/9 11/2/9 9/3/9 
f 3/3/9 9/3/9 7/5/9 5/5/9 
f 20/8/10 19/7/10 2/2/10 1/1/10 
f 18/10/11 17/9/11 19/7/11 20/8/11 
s 1
f 20/8/9 1/1/9 21/1/9 22/11/9 
s off
f 22/11/12 21/1/12 23/12/12 24/13/12 
s 1
f 18/10/13 20/8/9 22/11/9 25/14/13 
f 16/10/9 18/10/13 25/14/13 26/14/9 
f 14/8/13 16/10/9 26/14/9 27/11/13 
f 12/1/9 14/8/13 27/11/13 28/1/9 
f 10/4/9 12/1/9 28/1/9 29/15/9 
f 8/6/13 10/4/9 29/15/9 30/16/13 
f 6/6/9 8/6/13 30/16/13 31/16/9 
f 4/4/13 6/6/9 31/16/9 32/15/13 
f 1/1/9 4/4/13 32/15/13 21/1/9 
s off
f 23/12/14 33/17/14 34/18/14 35/18/14 
f 23/12/15 35/18/15 36/17/15 37/12/15 
f 23/12/14 37/12/14 38/13/14 39/19/14 
f 23/12/15 39/19/15 40/19/15 24/13/15 
f 25/14/16 22/11/16 24/13/16 40/19/16 
f 26/14/17 25/14/17 40/19/17 39/19/17 
f 27/11/18 26/14/18 39/19/18 38/13/18 
f 28/1/19 27/11/19 38/13/19 37/12/19 
f 29/15/20 28/1/20 37/12/20 36/17/20 
f 30/16/21 29/15/21 36/17/21 35/18/21 
f 31/16/22 30/16/22 35/18/22 34/18/22 
f 32/15/23 31/16/23 34/18/23 33/17/23 
f 21/1/24 32/15/24 33/17/24 23/12/24 
# 38 polygons

