# 3ds Max Wavefront OBJ Exporter v0.97b - (c)2007 guruware
# File Created: 10.03.2017 16:37:07

mtllib Props_BillBoard_large.mtl

#
# object Props_BillBoard_large
#

v  -141.6924 -30.0941 27.1944
v  -141.6924 -30.0941 7.3046
v  -141.6924 -33.6695 7.3046
v  -141.6924 -33.6695 27.1944
v  -138.1170 -30.0941 7.3046
v  -138.1170 -33.6695 7.3046
v  -138.1170 -30.0941 27.1944
v  -138.1170 -33.6695 27.1944
v  -138.1170 -28.6581 35.7350
v  -141.6924 -28.6581 35.7350
v  -135.8714 -28.4567 37.3797
v  -143.9379 -28.4567 37.3797
v  -141.6924 -25.0827 35.7350
v  -138.1170 -25.0827 35.7350
v  -134.1309 -22.7683 47.0346
v  -145.6784 -22.7683 47.0346
v  -143.9379 -23.7549 37.3797
v  -135.8714 -23.7549 37.3797
v  -136.1606 -20.3328 49.1035
v  -143.6488 -20.3328 49.1035
v  -145.6784 -18.0665 47.0346
v  -134.1309 -18.0665 47.0346
v  -136.1606 -17.2838 49.1035
v  -143.6488 -17.2838 49.1035
v  1.9076 -30.0941 27.1944
v  1.9076 -30.0941 7.3046
v  1.9076 -33.6695 7.3046
v  1.9076 -33.6695 27.1944
v  5.4830 -30.0941 7.3046
v  5.4830 -33.6695 7.3046
v  5.4830 -30.0941 27.1944
v  5.4830 -33.6695 27.1944
v  5.4830 -28.6581 35.7350
v  1.9076 -28.6581 35.7350
v  7.7285 -28.4567 37.3797
v  -0.3379 -28.4567 37.3797
v  1.9076 -25.0827 35.7350
v  5.4830 -25.0827 35.7350
v  9.4691 -22.7683 47.0346
v  -2.0785 -22.7683 47.0346
v  -0.3379 -23.7549 37.3797
v  7.7285 -23.7549 37.3797
v  7.4394 -20.3328 49.1035
v  -0.0488 -20.3328 49.1035
v  -2.0785 -18.0665 47.0346
v  9.4691 -18.0665 47.0346
v  7.4394 -17.2838 49.1035
v  -0.0488 -17.2838 49.1035
v  139.7419 -30.0940 27.1944
v  139.7419 -30.0940 7.3046
v  139.7419 -33.6693 7.3046
v  139.7419 -33.6693 27.1944
v  143.3173 -30.0940 7.3046
v  143.3173 -33.6693 7.3046
v  143.3173 -30.0940 27.1944
v  143.3173 -33.6693 27.1944
v  143.3173 -28.6580 35.7350
v  139.7419 -28.6580 35.7350
v  145.5629 -28.4566 37.3797
v  137.4964 -28.4566 37.3797
v  139.7419 -25.0826 35.7350
v  143.3173 -25.0826 35.7350
v  147.3034 -22.7682 47.0346
v  135.7559 -22.7682 47.0346
v  137.4964 -23.7548 37.3797
v  145.5629 -23.7548 37.3797
v  145.2737 -20.3327 49.1035
v  137.7855 -20.3327 49.1035
v  135.7559 -18.0664 47.0346
v  147.3034 -18.0664 47.0346
v  145.2737 -17.2837 49.1035
v  137.7855 -17.2837 49.1035
v  -144.1421 -122.4939 1.0940
v  -144.1421 -122.4939 -5.9039
v  -151.4869 -132.7390 -13.2487
v  -151.4869 -132.7390 8.4388
v  -137.1442 -122.4939 -5.9039
v  -129.7994 -132.7390 -13.2487
v  -137.1442 -122.4939 1.0940
v  -129.7994 -132.7390 8.4388
v  -130.7901 -34.1755 7.4481
v  -130.7901 -34.1755 -12.2580
v  -150.4962 -34.1755 -12.2580
v  -150.4962 -34.1755 7.4481
v  -144.1421 -41.9720 1.0940
v  -137.1442 -41.9720 1.0940
v  -137.1442 -41.9720 -5.9038
v  -144.1421 -41.9720 -5.9038
v  169.7853 -28.3188 7.9825
v  169.7853 -28.3188 -12.7923
v  -170.4972 -28.3191 -12.7923
v  -170.4972 -28.3191 7.9825
v  169.7853 -35.3166 -12.7923
v  -170.4972 -35.3169 -12.7923
v  169.7853 -35.3166 7.9825
v  -170.4972 -35.3169 7.9825
v  138.0054 -122.4938 1.0940
v  138.0054 -122.4938 -5.9039
v  130.6605 -132.7389 -13.2487
v  130.6605 -132.7389 8.4388
v  145.0032 -122.4938 -5.9039
v  152.3481 -132.7389 -13.2487
v  145.0032 -122.4938 1.0940
v  152.3481 -132.7389 8.4388
v  151.3573 -34.1754 7.4481
v  151.3573 -34.1754 -12.2580
v  131.6513 -34.1754 -12.2580
v  131.6513 -34.1754 7.4481
v  138.0054 -41.9719 1.0940
v  145.0032 -41.9719 1.0940
v  145.0032 -41.9719 -5.9038
v  138.0054 -41.9719 -5.9038
v  -159.8465 70.4225 3.0733
v  -159.8465 70.4225 -3.6194
v  -159.8465 -29.1317 -3.6195
v  -159.8465 -29.1317 3.0733
v  159.7994 70.4228 -3.6194
v  159.7994 -29.1315 -3.6195
v  159.7994 70.4228 3.0733
v  159.7994 -29.1315 3.0733
v  155.8705 -25.7577 3.0733
v  -155.9175 -25.7579 3.0733
v  155.8705 67.0489 3.0733
v  -155.9175 67.0487 3.0733
# 124 vertices

vn -1.0000 0.0000 -0.0000
vn 0.0000 -0.0000 -1.0000
vn 1.0000 0.0000 -0.0000
vn 0.0000 -0.8625 0.5061
vn 0.0000 -1.0000 -0.0000
vn 0.0000 1.0000 0.0000
vn 0.0000 -0.9926 0.1215
vn 0.0000 0.8625 -0.5061
vn 0.0000 -0.8616 0.5076
vn -0.0000 0.7781 -0.6282
vn 0.5909 0.0000 -0.8067
vn -0.5909 0.0000 -0.8067
vn 0.0000 -0.6474 0.7621
vn -0.0000 0.8616 -0.5076
vn 0.9841 0.0000 -0.1774
vn -0.9841 0.0000 -0.1774
vn 0.0000 -0.0000 1.0000
vn -0.0000 0.9353 -0.3538
vn 0.7138 -0.0000 0.7003
vn -0.7139 -0.0000 0.7003
vn 0.7139 -0.0000 0.7003
vn -0.8127 0.5827 0.0000
vn -0.0000 0.5827 -0.8127
vn 0.8127 0.5827 0.0000
vn -0.0000 0.5827 0.8127
vn -0.0000 1.0000 0.0000
vn 0.0000 -0.6318 0.7752
vn -0.0000 -0.0000 1.0000
vn 0.7752 -0.6318 -0.0000
vn 0.0000 -0.6318 -0.7752
vn 0.0000 0.0000 -1.0000
vn -0.7752 -0.6318 -0.0000
vn 0.0000 0.5827 -0.8127
vn 0.0000 0.5826 0.8127
# 34 vertex normals

vt 0.0785 0.3480 0.0000
vt 0.1285 0.3480 0.0000
vt 0.1285 0.3980 0.0000
vt 0.0785 0.3980 0.0000
vt 0.1967 0.2669 0.0000
vt 0.2008 0.2689 0.0000
vt 0.1866 0.2562 0.0000
vt 0.1858 0.2444 0.0000
vt 0.1820 0.2653 0.0000
vt 0.1731 0.2552 0.0000
vt 0.1722 0.2719 0.0000
vt 0.1508 0.2441 0.0000
vt 0.1512 0.2442 0.0000
vt 0.1859 0.2442 0.0000
vt 0.9982 0.9965 0.0000
vt 0.0010 0.9965 0.0000
vt 0.0010 0.6860 0.0000
vt 0.9982 0.6860 0.0000
vt 0.1966 0.2669 0.0000
vt 0.1719 0.2719 0.0000
# 20 texture coords

g Props_BillBoard_large
usemtl Props_BillBoard_large
s 1
f 1/1/1 2/2/1 3/3/1 4/4/1 
s off
f 2/1/2 5/2/2 6/3/2 3/4/2 
s 1
f 5/1/3 7/2/3 8/3/3 6/4/3 
s off
f 4/1/4 8/2/4 9/3/4 10/4/4 
f 4/1/5 3/2/5 6/3/5 8/4/5 
f 7/1/6 5/2/6 2/3/6 1/4/6 
f 10/1/7 9/2/7 11/3/7 12/4/7 
f 7/1/8 1/2/8 13/3/8 14/4/8 
s 1
f 8/1/3 7/2/3 14/3/3 9/4/3 
f 1/1/1 4/2/1 10/3/1 13/4/1 
s off
f 12/1/9 11/2/9 15/3/9 16/4/9 
f 14/1/10 13/2/10 17/3/10 18/4/10 
f 9/1/11 14/2/11 18/3/11 11/4/11 
f 13/1/12 10/2/12 12/3/12 17/4/12 
f 16/1/13 15/2/13 19/3/13 20/4/13 
f 18/1/14 17/2/14 21/3/14 22/4/14 
f 11/1/15 18/2/15 22/3/15 15/4/15 
f 17/1/16 12/2/16 16/3/16 21/4/16 
f 23/1/17 24/2/17 20/3/17 19/4/17 
f 22/1/18 21/2/18 24/3/18 23/4/18 
f 15/1/19 22/2/19 23/3/19 19/4/19 
f 21/1/20 16/2/20 20/3/20 24/4/20 
s 1
f 25/1/1 26/2/1 27/3/1 28/4/1 
s off
f 26/1/2 29/2/2 30/3/2 27/4/2 
s 1
f 29/1/3 31/2/3 32/3/3 30/4/3 
s off
f 28/1/4 32/2/4 33/3/4 34/4/4 
f 28/1/5 27/2/5 30/3/5 32/4/5 
f 31/1/6 29/2/6 26/3/6 25/4/6 
f 34/1/7 33/2/7 35/3/7 36/4/7 
f 31/1/8 25/2/8 37/3/8 38/4/8 
s 1
f 32/1/3 31/2/3 38/3/3 33/4/3 
f 25/1/1 28/2/1 34/3/1 37/4/1 
s off
f 36/1/9 35/2/9 39/3/9 40/4/9 
f 38/1/10 37/2/10 41/3/10 42/4/10 
f 33/1/11 38/2/11 42/3/11 35/4/11 
f 37/1/12 34/2/12 36/3/12 41/4/12 
f 40/1/13 39/2/13 43/3/13 44/4/13 
f 42/1/14 41/2/14 45/3/14 46/4/14 
f 35/1/15 42/2/15 46/3/15 39/4/15 
f 41/1/16 36/2/16 40/3/16 45/4/16 
f 47/1/17 48/2/17 44/3/17 43/4/17 
f 46/1/18 45/2/18 48/3/18 47/4/18 
f 39/1/21 46/2/21 47/3/21 43/4/21 
f 45/1/20 40/2/20 44/3/20 48/4/20 
s 1
f 49/1/1 50/2/1 51/3/1 52/4/1 
s off
f 50/1/2 53/2/2 54/3/2 51/4/2 
s 1
f 53/1/3 55/2/3 56/3/3 54/4/3 
s off
f 52/1/4 56/2/4 57/3/4 58/4/4 
f 52/1/5 51/2/5 54/3/5 56/4/5 
f 55/1/6 53/2/6 50/3/6 49/4/6 
f 58/1/7 57/2/7 59/3/7 60/4/7 
f 55/1/8 49/2/8 61/3/8 62/4/8 
s 1
f 56/1/3 55/2/3 62/3/3 57/4/3 
f 49/1/1 52/2/1 58/3/1 61/4/1 
s off
f 60/1/9 59/2/9 63/3/9 64/4/9 
f 62/1/10 61/2/10 65/3/10 66/4/10 
f 57/1/11 62/2/11 66/3/11 59/4/11 
f 61/1/12 58/2/12 60/3/12 65/4/12 
f 64/1/13 63/2/13 67/3/13 68/4/13 
f 66/1/14 65/2/14 69/3/14 70/4/14 
f 59/1/15 66/2/15 70/3/15 63/4/15 
f 65/1/16 60/2/16 64/3/16 69/4/16 
f 71/1/17 72/2/17 68/3/17 67/4/17 
f 70/1/18 69/2/18 72/3/18 71/4/18 
f 63/1/21 70/2/21 71/3/21 67/4/21 
f 69/1/20 64/2/20 68/3/20 72/4/20 
f 73/1/22 74/2/22 75/3/22 76/4/22 
f 74/1/23 77/2/23 78/3/23 75/4/23 
f 77/1/24 79/2/24 80/3/24 78/4/24 
f 79/1/25 73/2/25 76/3/25 80/4/25 
f 76/1/5 75/2/5 78/3/5 80/4/5 
f 81/1/26 82/2/26 83/3/26 84/4/26 
f 81/1/27 84/2/27 85/3/27 86/4/27 
f 86/1/28 85/2/28 73/3/28 79/4/28 
f 82/1/29 81/2/29 86/3/29 87/4/29 
f 87/1/3 86/2/3 79/3/3 77/4/3 
f 83/1/30 82/2/30 87/3/30 88/4/30 
f 88/1/31 87/2/31 77/3/31 74/4/31 
f 84/1/32 83/2/32 88/3/32 85/4/32 
f 85/1/1 88/2/1 74/3/1 73/4/1 
f 89/1/26 90/2/26 91/3/26 92/4/26 
f 90/1/31 93/2/31 94/3/31 91/4/31 
f 93/1/5 95/2/5 96/3/5 94/4/5 
f 95/1/17 89/2/17 92/3/17 96/4/17 
f 92/1/1 91/2/1 94/3/1 96/4/1 
f 95/1/3 93/2/3 90/3/3 89/4/3 
f 97/1/22 98/2/22 99/3/22 100/4/22 
f 98/1/33 101/2/33 102/3/33 99/4/33 
f 101/1/24 103/2/24 104/3/24 102/4/24 
f 103/1/34 97/2/34 100/3/34 104/4/34 
f 100/1/5 99/2/5 102/3/5 104/4/5 
f 105/1/6 106/2/6 107/3/6 108/4/6 
f 105/1/27 108/2/27 109/3/27 110/4/27 
f 110/1/17 109/2/17 97/3/17 103/4/17 
f 106/1/29 105/2/29 110/3/29 111/4/29 
f 111/1/3 110/2/3 103/3/3 101/4/3 
f 107/1/30 106/2/30 111/3/30 112/4/30 
f 112/1/31 111/2/31 101/3/31 98/4/31 
f 108/1/32 107/2/32 112/3/32 109/4/32 
f 109/1/1 112/2/1 98/3/1 97/4/1 
f 113/5/1 114/6/1 115/7/1 116/8/1 
f 114/6/31 117/9/31 118/10/31 115/7/31 
f 117/9/3 119/11/3 120/12/3 118/10/3 
s 1
f 116/8/28 120/12/17 121/13/17 122/14/28 
s off
f 116/8/5 115/7/5 118/10/5 120/12/5 
f 119/11/26 117/9/26 114/6/26 113/5/26 
s 1
f 123/15/28 124/16/17 122/17/28 121/18/17 
f 119/11/28 113/5/17 124/19/17 123/20/28 
f 120/12/17 119/11/28 123/20/28 121/13/17 
f 113/5/17 116/8/28 122/14/28 124/19/17 
# 110 polygons

