# 3ds Max Wavefront OBJ Exporter v0.97b - (c)2007 guruware
# File Created: 10.03.2017 16:48:25

mtllib Props_Windmill.mtl

#
# object Props_Windmill
#

v  17.4550 -191.4167 -16.6386
v  17.4550 -191.4167 18.2713
v  -17.4550 -191.4167 18.2713
v  -17.4550 -191.4167 -16.6387
v  14.8828 -179.6810 -14.0665
v  -14.8828 -179.6810 -14.0665
v  -14.8828 -179.6810 15.6991
v  14.8828 -179.6810 15.6991
v  -13.7795 215.2821 18.0899
v  -8.3751 209.8776 -37.0282
v  -8.3751 193.1275 -37.0282
v  -13.7795 187.7230 18.0899
v  8.3751 209.8776 -37.0282
v  8.3751 193.1275 -37.0282
v  13.7795 215.2821 18.0899
v  13.7795 187.7230 18.0899
v  14.1723 -189.6496 -13.3559
v  14.1723 -189.6496 14.9886
v  -14.1723 -189.6496 14.9886
v  -14.1722 -189.6496 -13.3559
v  7.8820 202.9878 -7.0657
v  -7.8820 202.9878 -7.0657
v  -7.8820 202.9878 8.6984
v  7.8820 202.9878 8.6984
# 24 vertices

vn 0.0000 -1.0000 -0.0000
vn 0.0000 1.0000 0.0000
vn 0.9768 0.2141 0.0000
vn -0.0000 0.2141 0.9768
vn -0.9768 0.2141 -0.0000
vn 0.0000 0.2141 -0.9768
vn -0.9952 0.0000 -0.0976
vn 0.0000 0.0000 -1.0000
vn 0.9952 0.0000 -0.0976
vn 0.0000 -0.0000 1.0000
vn 0.0000 -0.9952 -0.0976
vn 0.0000 0.9952 -0.0976
vn 0.9999 0.0160 0.0000
vn -0.0000 0.0160 0.9999
vn -0.9999 0.0160 -0.0000
vn 0.0000 0.0160 -0.9999
# 16 vertex normals

vt 0.8933 0.0468 0.0000
vt 0.9433 0.0468 0.0000
vt 0.9433 0.0968 0.0000
vt 0.8933 0.0968 0.0000
# 4 texture coords

g Props_Windmill
usemtl Props_Props_01
s off
f 1/1/1 2/2/1 3/3/1 4/4/1 
f 5/1/2 6/2/2 7/3/2 8/4/2 
f 1/1/3 5/2/3 8/3/3 2/4/3 
f 2/1/4 8/2/4 7/3/4 3/4/4 
f 3/1/5 7/2/5 6/3/5 4/4/5 
f 5/1/6 1/2/6 4/3/6 6/4/6 
f 9/1/7 10/2/7 11/3/7 12/4/7 
f 10/1/8 13/2/8 14/3/8 11/4/8 
f 13/1/9 15/2/9 16/3/9 14/4/9 
f 15/1/10 9/2/10 12/3/10 16/4/10 
f 12/1/11 11/2/11 14/3/11 16/4/11 
f 15/1/12 13/2/12 10/3/12 9/4/12 
f 17/1/1 18/2/1 19/3/1 20/4/1 
f 21/1/2 22/2/2 23/3/2 24/4/2 
f 17/1/13 21/2/13 24/3/13 18/4/13 
f 18/1/14 24/2/14 23/3/14 19/4/14 
f 19/1/15 23/2/15 22/3/15 20/4/15 
f 21/1/16 17/2/16 20/3/16 22/4/16 
# 18 polygons

#
# object Wings
#

v  -15.3344 188.2214 36.0312
v  -15.3344 188.2214 32.6439
v  -4.1621 194.6718 32.6439
v  -4.1621 194.6718 36.0312
v  -18.7841 194.1965 32.6439
v  -7.6118 200.6469 32.6439
v  -18.7841 194.1965 36.0312
v  -7.6118 200.6469 36.0312
v  -120.2680 130.7785 37.3881
v  -120.2680 130.7785 35.2532
v  -6.5912 179.5919 30.9543
v  -6.5912 179.5919 38.2150
v  -129.5331 139.9104 35.2532
v  -21.8860 206.0831 30.9543
v  -129.5331 139.9104 37.3881
v  -21.8860 206.0831 38.2150
v  18.7839 194.1964 36.0312
v  18.7839 194.1964 32.6439
v  7.6115 200.6467 32.6439
v  7.6115 200.6467 36.0312
v  15.3341 188.2213 32.6439
v  4.1618 194.6716 32.6439
v  15.3341 188.2213 36.0312
v  4.1618 194.6716 36.0312
v  120.9977 132.0428 37.3881
v  120.9977 132.0428 35.2532
v  21.8857 206.0830 30.9543
v  21.8857 206.0830 38.2150
v  117.7218 119.4530 35.2532
v  6.5910 179.5917 30.9543
v  117.7218 119.4530 37.3881
v  6.5910 179.5917 38.2150
v  -3.4497 220.7562 36.0312
v  -3.4497 220.7562 32.6439
v  -3.4497 207.8555 32.6439
v  -3.4497 207.8555 36.0312
v  3.4497 220.7562 32.6439
v  3.4497 207.8555 32.6439
v  3.4497 220.7562 36.0312
v  3.4497 207.8555 36.0312
v  -0.7300 340.3528 37.3881
v  -0.7300 340.3528 35.2532
v  -15.2947 217.4992 30.9543
v  -15.2947 217.4992 38.2150
v  11.8110 343.8107 35.2532
v  15.2947 217.4992 30.9543
v  11.8110 343.8107 37.3881
v  15.2947 217.4992 38.2150
v  -0.0000 210.2025 17.1821
v  -0.0000 210.2025 43.1927
v  5.8780 208.0631 43.1927
v  5.8780 208.0631 17.1821
v  9.0056 202.6459 43.1927
v  9.0056 202.6459 17.1821
v  7.9194 196.4857 43.1927
v  7.9194 196.4857 17.1821
v  3.1276 192.4649 43.1927
v  3.1276 192.4649 17.1821
v  -3.1276 192.4649 43.1927
v  -3.1276 192.4649 17.1821
v  -7.9194 196.4857 43.1927
v  -7.9194 196.4857 17.1821
v  -9.0057 202.6459 43.1927
v  -9.0057 202.6459 17.1821
v  -5.8780 208.0631 43.1927
v  -1.8137 203.2194 52.1875
v  -0.0000 203.8796 52.1875
v  -5.8780 208.0631 17.1821
v  1.8137 203.2194 52.1875
v  -2.7787 201.5479 52.1875
v  -2.4436 199.6472 52.1875
v  -0.9651 198.4065 52.1875
v  0.9650 198.4065 52.1875
v  2.4436 199.6472 52.1875
v  2.7787 201.5479 52.1875
# 75 vertices

vn 0.5000 -0.8660 0.0000
vn -0.0000 0.0000 -1.0000
vn -0.5000 0.8660 -0.0000
vn 0.0000 -0.0000 1.0000
vn 0.8660 0.5000 -0.0000
vn -0.8660 -0.5000 0.0000
vn 0.3946 -0.9189 0.0000
vn -0.0286 -0.0197 -0.9994
vn -0.5237 0.8519 -0.0000
vn -0.0055 -0.0038 1.0000
vn -0.7020 -0.7122 -0.0000
vn 0.5000 0.8660 -0.0000
vn -0.5000 -0.8660 0.0000
vn -0.8660 0.5000 -0.0000
vn 0.8660 -0.5000 0.0000
vn 0.5985 0.8011 -0.0000
vn 0.0314 -0.0149 -0.9994
vn -0.4759 -0.8795 0.0000
vn 0.0060 -0.0029 1.0000
vn 0.9678 -0.2518 0.0000
vn -1.0000 0.0000 0.0000
vn 1.0000 -0.0000 -0.0000
vn 0.0000 -1.0000 0.0000
vn -0.0000 1.0000 -0.0000
vn -0.9930 0.1177 -0.0000
vn -0.0028 0.0346 -0.9994
vn 0.9996 0.0276 -0.0000
vn -0.0005 0.0067 1.0000
vn -0.0000 -1.0000 0.0000
vn -0.2658 0.9640 -0.0000
vn 0.3420 0.9397 0.0000
vn 0.8660 0.5000 0.0000
vn 0.9848 -0.1736 -0.0000
vn 0.6428 -0.7660 -0.0000
vn -0.0000 -1.0000 -0.0000
vn -0.6428 -0.7660 -0.0000
vn -0.9848 -0.1736 -0.0000
vn -0.2854 0.7841 0.5512
vn -0.3420 0.9397 0.0000
vn -0.8660 0.5000 0.0000
vn 0.0000 0.0000 -1.0000
vn -0.7226 0.4172 0.5512
vn -0.8217 -0.1449 0.5512
vn -0.5363 -0.6392 0.5512
vn -0.0000 -0.8344 0.5512
vn 0.5363 -0.6392 0.5512
vn 0.8217 -0.1449 0.5512
vn 0.7226 0.4172 0.5512
vn 0.2854 0.7841 0.5512
# 49 vertex normals

vt 0.8736 0.0665 0.0000
vt 0.9236 0.0665 0.0000
vt 0.9236 0.1165 0.0000
vt 0.8736 0.1165 0.0000
vt 0.8986 0.1165 0.0000
vt 0.9147 0.1107 0.0000
vt 0.9233 0.0959 0.0000
vt 0.9203 0.0790 0.0000
vt 0.9072 0.0680 0.0000
vt 0.8901 0.0680 0.0000
vt 0.8770 0.0790 0.0000
vt 0.8740 0.0959 0.0000
vt 0.8826 0.1107 0.0000
# 13 texture coords

g Wings
usemtl Props_Props_01
s off
f 25/5/17 26/6/17 27/7/17 28/8/17 
f 26/5/18 29/6/18 30/7/18 27/8/18 
f 29/5/19 31/6/19 32/7/19 30/8/19 
f 31/5/20 25/6/20 28/7/20 32/8/20 
f 28/5/21 27/6/21 30/7/21 32/8/21 
f 31/5/22 29/6/22 26/7/22 25/8/22 
f 33/5/23 34/6/23 35/7/23 36/8/23 
f 34/5/24 37/6/24 38/7/24 35/8/24 
f 37/5/25 39/6/25 40/7/25 38/8/25 
f 39/5/26 33/6/26 36/7/26 40/8/26 
f 36/5/21 35/6/21 38/7/21 40/8/21 
f 39/5/27 37/6/27 34/7/27 33/8/27 
f 41/5/28 42/6/28 43/7/28 44/8/28 
f 42/5/18 45/6/18 46/7/18 43/8/18 
f 45/5/29 47/6/29 48/7/29 46/8/29 
f 47/5/20 41/6/20 44/7/20 48/8/20 
f 44/5/30 43/6/30 46/7/30 48/8/30 
f 47/5/31 45/6/31 42/7/31 41/8/31 
f 49/5/32 50/6/32 51/7/32 52/8/32 
f 50/5/33 53/6/33 54/7/33 51/8/33 
f 53/5/34 55/6/34 56/7/34 54/8/34 
f 55/5/35 49/6/35 52/7/35 56/8/35 
f 52/5/30 51/6/30 54/7/30 56/8/30 
f 55/5/36 53/6/36 50/7/36 49/8/36 
f 57/5/37 58/6/37 59/7/37 60/8/37 
f 58/5/18 61/6/18 62/7/18 59/8/18 
f 61/5/38 63/6/38 64/7/38 62/8/38 
f 63/5/20 57/6/20 60/7/20 64/8/20 
f 60/5/39 59/6/39 62/7/39 64/8/39 
f 63/5/40 61/6/40 58/7/40 57/8/40 
f 65/5/41 66/6/41 67/7/41 68/8/41 
f 66/5/42 69/6/42 70/7/42 67/8/42 
f 69/5/43 71/6/43 72/7/43 70/8/43 
f 71/5/44 65/6/44 68/7/44 72/8/44 
f 68/5/45 67/6/45 70/7/45 72/8/45 
f 71/5/46 69/6/46 66/7/46 65/8/46 
f 73/5/47 74/6/47 75/7/47 76/8/47 
f 76/5/48 75/6/48 77/7/48 78/8/48 
f 78/5/49 77/6/49 79/7/49 80/8/49 
f 80/5/50 79/6/50 81/7/50 82/8/50 
f 82/5/51 81/6/51 83/7/51 84/8/51 
f 84/5/52 83/6/52 85/7/52 86/8/52 
f 86/5/53 85/6/53 87/7/53 88/8/53 
f 74/5/54 89/6/54 90/7/54 91/8/54 
f 92/5/55 89/6/55 74/7/55 73/8/55 
f 88/5/56 87/6/56 89/7/56 92/8/56 
f 73/9/57 76/10/57 78/11/57 80/12/57 
f 73/9/18 80/12/18 82/13/18 84/14/18 
f 73/9/57 84/14/57 86/15/57 88/16/57 
f 73/9/18 88/16/18 92/17/18 
f 93/9/20 91/10/20 90/11/20 94/12/20 
f 93/9/20 94/12/20 95/13/20 96/14/20 
f 93/9/20 96/14/20 97/15/20 98/16/20 
f 93/9/20 98/16/20 99/17/20 
f 89/5/58 87/6/58 94/7/58 90/8/58 
f 87/5/59 85/6/59 95/7/59 94/8/59 
f 85/5/60 83/6/60 96/7/60 95/8/60 
f 83/5/61 81/6/61 97/7/61 96/8/61 
f 81/5/62 79/6/62 98/7/62 97/8/62 
f 79/5/63 77/6/63 99/7/63 98/8/63 
f 77/5/64 75/6/64 93/7/64 99/8/64 
f 75/5/65 74/6/65 91/7/65 93/8/65 
# 60 polygons - 2 triangles

