# 3ds Max Wavefront OBJ Exporter v0.97b - (c)2007 guruware
# File Created: 10.03.2017 16:39:56

mtllib Props_Coffee shop chair.mtl

#
# object Props_Coffee_shop_chair
#

v  -18.4924 -42.1234 -13.6757
v  -18.4924 -42.1234 -9.7387
v  -14.5554 -42.1234 -9.7387
v  -14.5554 -42.1234 -13.6757
v  -18.4924 -62.1606 -9.7387
v  -14.5554 -62.1606 -9.7387
v  -18.4924 -62.1606 -13.6757
v  -14.5554 -62.1606 -13.6757
v  -18.4924 -41.9591 9.6887
v  -18.4924 -41.9591 13.6257
v  -14.5554 -41.9591 13.6257
v  -14.5554 -41.9591 9.6887
v  -18.4924 -62.1606 13.6257
v  -14.5554 -62.1606 13.6257
v  -18.4924 -62.1606 9.6887
v  -14.5554 -62.1606 9.6887
v  -42.6059 -36.1266 9.6887
v  -42.6059 -36.1266 13.6257
v  -38.6689 -36.1266 13.6257
v  -38.6689 -36.1266 9.6887
v  -42.6059 -62.1606 13.6257
v  -38.6689 -62.1606 13.6257
v  -42.6059 -62.1606 9.6887
v  -38.6689 -62.1606 9.6887
v  -42.6059 -36.1266 -13.6757
v  -42.6059 -36.1266 -9.7387
v  -38.6689 -36.1266 -9.7387
v  -38.6689 -36.1266 -13.6757
v  -42.6059 -62.1606 -9.7387
v  -38.6689 -62.1606 -9.7387
v  -42.6059 -62.1606 -13.6757
v  -38.6689 -62.1606 -13.6757
v  -42.6059 -12.9866 -13.7795
v  -42.6059 -12.9866 13.7795
v  -38.6689 -12.9866 13.7795
v  -38.6689 -12.9866 -13.7795
v  -42.6059 -44.4827 13.7795
v  -38.6689 -44.4827 13.7795
v  -42.6059 -44.4827 -13.7795
v  -38.6689 -44.4827 -13.7795
v  -14.4779 -41.1768 -13.7795
v  -14.4779 -41.1768 13.7795
v  -14.4779 -45.1138 13.7795
v  -14.4779 -45.1138 -13.7795
v  -42.7797 -41.1768 13.7795
v  -42.7797 -45.1138 13.7795
v  -42.7797 -41.1768 -13.7795
v  -42.7797 -45.1138 -13.7795
v  18.5705 -42.1234 13.6757
v  18.5705 -42.1234 9.7387
v  14.6335 -42.1234 9.7387
v  14.6335 -42.1234 13.6757
v  18.5705 -62.1606 9.7387
v  14.6335 -62.1606 9.7387
v  18.5705 -62.1606 13.6757
v  14.6335 -62.1606 13.6757
v  18.5705 -41.9591 -9.6888
v  18.5705 -41.9591 -13.6258
v  14.6335 -41.9591 -13.6258
v  14.6335 -41.9591 -9.6888
v  18.5705 -62.1606 -13.6258
v  14.6335 -62.1606 -13.6258
v  18.5705 -62.1606 -9.6888
v  14.6335 -62.1606 -9.6888
v  42.6840 -36.1266 -9.6887
v  42.6840 -36.1266 -13.6258
v  38.7470 -36.1266 -13.6258
v  38.7470 -36.1266 -9.6887
v  42.6840 -62.1606 -13.6258
v  38.7470 -62.1606 -13.6258
v  42.6840 -62.1606 -9.6888
v  38.7470 -62.1606 -9.6888
v  42.6840 -36.1266 13.6757
v  42.6840 -36.1266 9.7387
v  38.7470 -36.1266 9.7387
v  38.7470 -36.1266 13.6757
v  42.6840 -62.1606 9.7387
v  38.7470 -62.1606 9.7387
v  42.6840 -62.1606 13.6757
v  38.7470 -62.1606 13.6757
v  42.6840 -12.9866 13.7795
v  42.6840 -12.9866 -13.7795
v  38.7470 -12.9866 -13.7795
v  38.7470 -12.9866 13.7795
v  42.6840 -44.4827 -13.7795
v  38.7470 -44.4827 -13.7795
v  42.6840 -44.4827 13.7795
v  38.7470 -44.4827 13.7795
v  14.5560 -41.1768 13.7795
v  14.5560 -41.1768 -13.7795
v  14.5560 -45.1138 -13.7795
v  14.5560 -45.1138 13.7795
v  42.8578 -41.1768 -13.7795
v  42.8578 -45.1138 -13.7795
v  42.8578 -41.1768 13.7795
v  42.8578 -45.1138 13.7795
v  -2.1111 29.4548 2.0921
v  -2.1111 29.4548 -2.0921
v  -2.1111 -62.1938 -2.0921
v  -2.1111 -62.1938 2.0921
v  2.0731 29.4548 -2.0921
v  2.0731 -62.1938 -2.0921
v  2.0731 29.4548 2.0921
v  2.0731 -62.1938 2.0921
v  -0.0190 29.2963 -45.7975
v  -0.0190 45.3441 -9.3408
v  5.4714 45.3441 -7.5569
v  26.9001 29.2963 -37.0509
v  8.8647 45.3441 -2.8865
v  43.5370 29.2963 -14.1522
v  8.8647 45.3441 2.8865
v  43.5370 29.2963 14.1522
v  5.4714 45.3441 7.5569
v  26.9001 29.2963 37.0509
v  -0.0190 45.3441 9.3408
v  -0.0190 29.2963 45.7975
v  -5.5094 45.3441 7.5569
v  -26.9381 29.2963 37.0509
v  -8.9026 45.3441 2.8865
v  -43.5750 29.2963 14.1522
v  -8.9026 45.3441 -2.8865
v  -43.5750 29.2963 -14.1522
v  -5.5094 45.3441 -7.5569
v  -26.9381 29.2963 -37.0509
v  -0.0190 24.0884 -51.8888
v  -30.5184 24.0884 -41.9789
v  -0.0190 11.6299 -54.9182
v  -32.2991 11.6299 -44.4298
v  -49.3681 24.0884 -16.0345
v  -49.3681 24.0884 16.0345
v  -30.5184 24.0884 41.9789
v  -0.0190 24.0884 51.8888
v  30.4805 24.0884 41.9789
v  49.3302 24.0884 16.0345
v  49.3302 24.0884 -16.0345
v  30.4805 24.0884 -41.9789
v  32.2611 11.6299 -44.4298
v  52.2113 11.6299 -16.9707
v  52.2113 11.6299 16.9707
v  32.2611 11.6299 44.4298
v  -0.0190 11.6299 54.9182
v  -32.2991 11.6299 44.4298
v  -52.2493 11.6299 16.9707
v  -52.2493 11.6299 -16.9707
# 144 vertices

vn 0.0000 1.0000 0.0000
vn 0.0000 -0.0000 1.0000
vn 0.0000 -1.0000 -0.0000
vn 0.0000 0.0000 -1.0000
vn 1.0000 -0.0000 0.0000
vn -1.0000 0.0000 -0.0000
vn -0.0000 -0.0000 1.0000
vn 1.0000 0.0000 -0.0000
vn 0.0000 -1.0000 0.0000
vn -0.0000 -1.0000 0.0000
vn -1.0000 0.0000 0.0000
vn 1.0000 -0.0000 -0.0000
vn 0.1298 0.9075 -0.3995
vn 0.3398 0.9075 -0.2469
vn 0.4200 0.9075 0.0000
vn 0.3398 0.9075 0.2469
vn 0.1298 0.9075 0.3995
vn -0.1298 0.9075 0.3995
vn -0.3398 0.9075 0.2469
vn -0.4200 0.9075 0.0000
vn -0.1298 0.9075 -0.3995
vn -0.3398 0.9075 -0.2469
vn -0.2066 0.7437 -0.6358
vn -0.3011 0.2253 -0.9266
vn -0.5409 0.7437 -0.3930
vn -0.6685 0.7437 0.0000
vn -0.5409 0.7437 0.3930
vn -0.2066 0.7437 0.6358
vn 0.2066 0.7437 0.6358
vn 0.5409 0.7437 0.3930
vn 0.6685 0.7437 0.0000
vn 0.5409 0.7437 -0.3930
vn 0.2066 0.7437 -0.6358
vn -0.0000 -1.0000 -0.0000
vn -0.7882 0.2253 -0.5727
vn -0.9743 0.2253 0.0000
vn -0.7882 0.2253 0.5727
vn -0.3011 0.2253 0.9266
vn 0.3011 0.2253 0.9266
vn 0.7882 0.2253 0.5727
vn 0.9743 0.2253 0.0000
vn 0.7882 0.2253 -0.5727
vn 0.3011 0.2253 -0.9266
# 43 vertex normals

vt 0.7998 0.8995 0.0000
vt 0.8173 0.8995 0.0000
vt 0.8173 0.9169 0.0000
vt 0.7998 0.9169 0.0000
vt 0.7018 0.4371 0.0000
vt 0.7142 0.4371 0.0000
vt 0.7142 0.4496 0.0000
vt 0.7018 0.4496 0.0000
vt 0.7235 0.4258 0.0000
vt 0.7380 0.4258 0.0000
vt 0.7380 0.4403 0.0000
vt 0.7235 0.4403 0.0000
vt 0.7455 0.4302 0.0000
vt 0.7619 0.4302 0.0000
vt 0.7619 0.4466 0.0000
vt 0.7455 0.4466 0.0000
vt 0.7283 0.4544 0.0000
vt 0.7331 0.4528 0.0000
vt 0.7361 0.4487 0.0000
vt 0.7361 0.4436 0.0000
vt 0.7331 0.4395 0.0000
vt 0.7283 0.4380 0.0000
vt 0.7235 0.4395 0.0000
vt 0.7205 0.4436 0.0000
vt 0.7205 0.4487 0.0000
vt 0.7235 0.4528 0.0000
vt 0.7537 0.4466 0.0000
vt 0.7585 0.4450 0.0000
vt 0.7615 0.4409 0.0000
vt 0.7615 0.4358 0.0000
vt 0.7585 0.4317 0.0000
vt 0.7537 0.4302 0.0000
vt 0.7489 0.4317 0.0000
vt 0.7459 0.4358 0.0000
vt 0.7459 0.4409 0.0000
vt 0.7489 0.4450 0.0000
# 36 texture coords

g Props_Coffee_shop_chair
usemtl Building_Coffee_Shop
s off
f 1/1/1 2/2/1 3/3/1 4/4/1 
f 2/1/2 5/2/2 6/3/2 3/4/2 
f 5/1/3 7/2/3 8/3/3 6/4/3 
f 7/1/4 1/2/4 4/3/4 8/4/4 
f 4/1/5 3/2/5 6/3/5 8/4/5 
f 7/1/6 5/2/6 2/3/6 1/4/6 
f 9/1/1 10/2/1 11/3/1 12/4/1 
f 10/1/7 13/2/7 14/3/7 11/4/7 
f 13/1/3 15/2/3 16/3/3 14/4/3 
f 15/1/4 9/2/4 12/3/4 16/4/4 
f 12/1/5 11/2/5 14/3/5 16/4/5 
f 15/1/6 13/2/6 10/3/6 9/4/6 
f 17/1/1 18/2/1 19/3/1 20/4/1 
f 18/1/2 21/2/2 22/3/2 19/4/2 
f 21/1/3 23/2/3 24/3/3 22/4/3 
f 23/1/4 17/2/4 20/3/4 24/4/4 
f 20/1/5 19/2/5 22/3/5 24/4/5 
f 23/1/6 21/2/6 18/3/6 17/4/6 
f 25/1/1 26/2/1 27/3/1 28/4/1 
f 26/1/7 29/2/7 30/3/7 27/4/7 
f 29/1/3 31/2/3 32/3/3 30/4/3 
f 31/1/4 25/2/4 28/3/4 32/4/4 
f 28/1/8 27/2/8 30/3/8 32/4/8 
f 31/1/6 29/2/6 26/3/6 25/4/6 
f 33/1/1 34/2/1 35/3/1 36/4/1 
f 34/1/2 37/2/2 38/3/2 35/4/2 
f 37/1/9 39/2/9 40/3/9 38/4/9 
f 39/1/4 33/2/4 36/3/4 40/4/4 
f 36/1/5 35/2/5 38/3/5 40/4/5 
f 39/1/6 37/2/6 34/3/6 33/4/6 
f 41/1/5 42/2/5 43/3/5 44/4/5 
f 42/1/7 45/2/7 46/3/7 43/4/7 
f 45/1/6 47/2/6 48/3/6 46/4/6 
f 47/1/4 41/2/4 44/3/4 48/4/4 
f 44/1/10 43/2/10 46/3/10 48/4/10 
f 47/1/1 45/2/1 42/3/1 41/4/1 
f 49/1/1 50/2/1 51/3/1 52/4/1 
f 50/1/4 53/2/4 54/3/4 51/4/4 
f 53/1/3 55/2/3 56/3/3 54/4/3 
f 55/1/2 49/2/2 52/3/2 56/4/2 
f 52/1/11 51/2/11 54/3/11 56/4/11 
f 55/1/12 53/2/12 50/3/12 49/4/12 
f 57/1/1 58/2/1 59/3/1 60/4/1 
f 58/1/4 61/2/4 62/3/4 59/4/4 
f 61/1/3 63/2/3 64/3/3 62/4/3 
f 63/1/2 57/2/2 60/3/2 64/4/2 
f 60/1/11 59/2/11 62/3/11 64/4/11 
f 63/1/12 61/2/12 58/3/12 57/4/12 
f 65/1/1 66/2/1 67/3/1 68/4/1 
f 66/1/4 69/2/4 70/3/4 67/4/4 
f 69/1/3 71/2/3 72/3/3 70/4/3 
f 71/1/2 65/2/2 68/3/2 72/4/2 
f 68/1/6 67/2/6 70/3/6 72/4/6 
f 71/1/8 69/2/8 66/3/8 65/4/8 
f 73/1/1 74/2/1 75/3/1 76/4/1 
f 74/1/4 77/2/4 78/3/4 75/4/4 
f 77/1/3 79/2/3 80/3/3 78/4/3 
f 79/1/2 73/2/2 76/3/2 80/4/2 
f 76/1/6 75/2/6 78/3/6 80/4/6 
f 79/1/8 77/2/8 74/3/8 73/4/8 
f 81/1/1 82/2/1 83/3/1 84/4/1 
f 82/1/4 85/2/4 86/3/4 83/4/4 
f 85/1/3 87/2/3 88/3/3 86/4/3 
f 87/1/2 81/2/2 84/3/2 88/4/2 
f 84/1/6 83/2/6 86/3/6 88/4/6 
f 87/1/8 85/2/8 82/3/8 81/4/8 
f 89/1/6 90/2/6 91/3/6 92/4/6 
f 90/1/4 93/2/4 94/3/4 91/4/4 
f 93/1/8 95/2/8 96/3/8 94/4/8 
f 95/1/2 89/2/2 92/3/2 96/4/2 
f 92/1/3 91/2/3 94/3/3 96/4/3 
f 95/1/1 93/2/1 90/3/1 89/4/1 
f 97/5/6 98/6/6 99/7/6 100/8/6 
f 98/5/4 101/6/4 102/7/4 99/8/4 
f 101/5/8 103/6/8 104/7/8 102/8/8 
f 103/5/2 97/6/2 100/7/2 104/8/2 
f 100/5/3 99/6/3 102/7/3 104/8/3 
f 103/5/1 101/6/1 98/7/1 97/8/1 
f 105/9/13 106/10/13 107/11/13 108/12/13 
f 108/13/14 107/14/14 109/15/14 110/16/14 
f 110/9/15 109/10/15 111/11/15 112/12/15 
f 112/13/16 111/14/16 113/15/16 114/16/16 
f 114/9/17 113/10/17 115/11/17 116/12/17 
f 116/13/18 115/14/18 117/15/18 118/16/18 
f 118/9/19 117/10/19 119/11/19 120/12/19 
f 120/13/20 119/14/20 121/15/20 122/16/20 
f 107/17/1 106/18/1 123/19/1 121/20/1 
f 107/17/1 121/20/1 119/21/1 117/22/1 
f 107/17/1 117/22/1 115/23/1 113/24/1 
f 107/17/1 113/24/1 111/25/1 109/26/1 
f 124/13/21 123/14/21 106/15/21 105/16/21 
f 122/9/22 121/10/22 123/11/22 124/12/22 
f 124/13/23 105/14/23 125/15/23 126/16/23 
f 126/13/24 125/14/24 127/15/24 128/16/24 
f 122/9/25 124/10/25 126/11/25 129/12/25 
f 120/13/26 122/14/26 129/15/26 130/16/26 
f 118/9/27 120/10/27 130/11/27 131/12/27 
f 116/13/28 118/14/28 131/15/28 132/16/28 
f 114/9/29 116/10/29 132/11/29 133/12/29 
f 112/13/30 114/14/30 133/15/30 134/16/30 
f 110/9/31 112/10/31 134/11/31 135/12/31 
f 108/13/32 110/14/32 135/15/32 136/16/32 
f 105/9/33 108/10/33 136/11/33 125/12/33 
f 127/27/34 137/28/34 138/29/34 139/30/34 
f 127/27/34 139/30/34 140/31/34 141/32/34 
f 127/27/3 141/32/3 142/33/3 143/34/3 
f 127/27/3 143/34/3 144/35/3 128/36/3 
f 129/9/35 126/10/35 128/11/35 144/12/35 
f 130/13/36 129/14/36 144/15/36 143/16/36 
f 131/9/37 130/10/37 143/11/37 142/12/37 
f 132/13/38 131/14/38 142/15/38 141/16/38 
f 133/9/39 132/10/39 141/11/39 140/12/39 
f 134/13/40 133/14/40 140/15/40 139/16/40 
f 135/9/41 134/10/41 139/11/41 138/12/41 
f 136/13/42 135/14/42 138/15/42 137/16/42 
f 125/9/43 136/10/43 137/11/43 127/12/43 
# 116 polygons

