# 3ds Max Wavefront OBJ Exporter v0.97b - (c)2007 guruware
# File Created: 10.03.2017 16:42:50

mtllib Props_Roof prop air.mtl

#
# object Props_Roof_prop_air
#

v  52.8511 -23.3756 14.4408
v  52.8511 -2.4205 14.4408
v  55.9000 -0.8903 9.1599
v  55.9000 -23.3756 9.1599
v  61.9978 -0.8903 9.1599
v  61.9978 -23.3756 9.1599
v  65.0467 -0.8903 14.4408
v  65.0467 -23.3756 14.4408
v  61.9978 -0.8903 19.7216
v  61.9978 -23.3756 19.7216
v  55.9000 -0.8903 19.7216
v  54.7658 -0.3878 19.7216
v  52.5642 -4.1698 14.4408
v  55.9000 -23.3756 19.7216
v  26.0058 -1.3275 19.7216
v  25.9984 -4.3764 14.4408
v  59.1689 3.8307 19.7216
v  61.3704 5.9399 14.4408
v  59.1689 3.8307 9.1599
v  54.7658 -0.3878 9.1599
v  26.0058 -1.3275 9.1599
v  26.0208 4.7703 19.7216
v  26.0282 7.8192 14.4408
v  26.0208 4.7703 9.1599
v  55.4501 -23.1815 -4.6276
v  55.4501 -1.0276 -4.6276
v  57.1995 -0.1496 -7.6576
v  57.1995 -23.1815 -7.6576
v  60.6983 -0.1496 -7.6576
v  60.6983 -23.1815 -7.6576
v  62.4477 -0.1496 -4.6276
v  62.4477 -23.1815 -4.6276
v  60.6983 -0.1496 -1.5976
v  60.6983 -23.1815 -1.5976
v  57.1995 -0.1496 -1.5976
v  56.5487 0.1387 -1.5976
v  33.6288 -2.0313 -4.6276
v  57.1995 -23.1815 -1.5976
v  25.7074 -0.4005 -1.5976
v  25.7031 -2.1499 -4.6276
v  59.0751 2.5592 -1.5976
v  60.3383 3.7694 -4.6276
v  59.0751 2.5592 -7.6576
v  56.5487 0.1387 -7.6576
v  25.7074 -0.4005 -7.6576
v  25.7159 3.0983 -1.5975
v  25.7202 4.8477 -4.6276
v  25.7159 3.0983 -7.6576
v  -46.1128 22.0239 26.4522
v  -46.1128 22.0239 -29.1646
v  -46.1128 -20.4439 -29.1646
v  -46.1128 -20.4439 26.4521
v  28.8240 22.0240 -29.1646
v  28.8240 -20.4438 -29.1646
v  28.8240 22.0240 26.4522
v  28.8240 -20.4438 26.4521
# 56 vertices

vn -0.8660 0.0000 -0.5000
vn 0.0000 0.0000 -1.0000
vn 0.0000 -0.0000 -1.0000
vn 0.8660 0.0000 -0.5000
vn 0.8660 -0.0000 0.5000
vn 0.6587 -0.7507 0.0501
vn -0.8660 -0.0000 0.5000
vn 0.0000 -0.0000 1.0000
vn 0.0000 -1.0000 -0.0000
vn 0.0174 -0.8412 0.5404
vn 0.7695 0.4334 0.4691
vn 0.7695 0.4334 -0.4691
vn 0.6587 -0.7507 -0.0501
vn -1.0000 0.0024 0.0000
vn 0.0368 0.8949 0.4448
vn 0.0368 0.8949 -0.4448
vn 0.0174 -0.8412 -0.5404
vn -0.0000 0.0000 -1.0000
vn 0.0298 -0.9364 0.3496
vn -0.0000 -0.0000 1.0000
vn 0.0147 -0.8640 0.5033
vn 0.0298 -0.9364 -0.3496
vn 0.0213 0.8966 0.4423
vn 0.0213 0.8966 -0.4423
vn 0.0147 -0.8640 -0.5033
vn -1.0000 0.0000 -0.0000
vn 1.0000 0.0000 -0.0000
vn -0.0000 1.0000 0.0000
# 28 vertex normals

vt 0.8348 0.8340 0.0000
vt 0.8805 0.7193 0.0000
vt 0.9500 0.7510 0.0000
vt 0.9500 0.9250 0.0000
vt 0.7155 0.9250 0.0000
vt 0.7155 0.7510 0.0000
# 6 texture coords

g Props_Roof_prop_air
usemtl Props_RoofProps
s off
f 1/1/1 2/1/1 3/1/1 4/1/1 
s 1
f 4/1/2 3/1/3 5/1/2 6/1/2 
s off
f 6/1/4 5/1/4 7/1/4 8/1/4 
f 8/1/5 7/1/5 9/1/5 10/1/5 
f 2/1/6 11/1/6 12/1/6 13/1/6 
f 14/1/7 11/1/7 2/1/7 1/1/7 
s 1
f 10/1/8 9/1/8 11/1/8 14/1/8 
s off
f 1/1/9 4/1/9 6/1/9 8/1/9 
f 1/1/9 8/1/9 10/1/9 14/1/9 
f 13/1/10 12/1/10 15/1/10 16/1/10 
s 1
f 11/1/8 9/1/8 17/1/8 12/1/8 
s off
f 9/1/11 7/1/11 18/1/11 17/1/11 
f 7/1/12 5/1/12 19/1/12 18/1/12 
s 1
f 5/1/2 3/1/3 20/1/2 19/1/2 
s off
f 2/1/13 13/1/13 20/1/13 3/1/13 
f 21/1/14 16/1/14 15/1/14 22/1/14 
f 21/1/14 22/1/14 23/1/14 24/1/14 
s 1
f 12/1/8 17/1/8 22/1/8 15/1/8 
s off
f 17/1/15 18/1/15 23/1/15 22/1/15 
f 18/1/16 19/1/16 24/1/16 23/1/16 
s 1
f 19/1/2 20/1/2 21/1/2 24/1/2 
s off
f 20/1/17 13/1/17 16/1/17 21/1/17 
f 25/1/1 26/1/1 27/1/1 28/1/1 
s 1
f 28/1/18 27/1/18 29/1/2 30/1/18 
s off
f 30/1/4 29/1/4 31/1/4 32/1/4 
f 32/1/5 31/1/5 33/1/5 34/1/5 
f 26/1/19 35/1/19 36/1/19 37/1/19 
f 38/1/7 35/1/7 26/1/7 25/1/7 
s 1
f 34/1/8 33/1/8 35/1/20 38/1/8 
s off
f 25/1/9 28/1/9 30/1/9 32/1/9 
f 25/1/9 32/1/9 34/1/9 38/1/9 
f 37/1/21 36/1/21 39/1/21 40/1/21 
s 1
f 35/1/20 33/1/8 41/1/8 36/1/8 
s off
f 33/1/11 31/1/11 42/1/11 41/1/11 
f 31/1/12 29/1/12 43/1/12 42/1/12 
s 1
f 29/1/2 27/1/18 44/1/18 43/1/18 
s off
f 27/1/22 26/1/22 37/1/22 44/1/22 
f 45/1/14 40/1/14 39/1/14 46/1/14 
f 45/1/14 46/1/14 47/1/14 48/1/14 
s 1
f 36/1/8 41/1/8 46/1/8 39/1/8 
s off
f 41/1/23 42/1/23 47/1/23 46/1/23 
f 42/1/24 43/1/24 48/1/24 47/1/24 
s 1
f 43/1/18 44/1/18 45/1/18 48/1/18 
s off
f 44/1/25 37/1/25 40/1/25 45/1/25 
f 49/2/26 50/2/26 51/2/26 52/2/26 
f 50/2/18 53/2/18 54/2/18 51/2/18 
f 53/2/27 55/2/27 56/2/27 54/2/27 
f 55/2/8 49/2/8 52/2/8 56/2/8 
f 52/2/9 51/2/9 54/2/9 56/2/9 
f 55/3/28 53/4/28 50/5/28 49/6/28 
# 50 polygons

