# 3ds Max Wavefront OBJ Exporter v0.97b - (c)2007 guruware
# File Created: 10.03.2017 16:47:46

mtllib Props_Traffic Signal_small.mtl

#
# object Props_Traffic_Signal_small
#

v  0.0076 87.0459 4.8182
v  4.9608 85.4365 4.7302
v  4.9608 85.4365 9.3841
v  0.0076 87.0459 9.4721
v  8.0221 81.2230 3.4105
v  8.0221 81.2230 8.0644
v  8.0221 76.0149 1.6086
v  8.0221 76.0149 6.2625
v  -8.0069 76.0149 1.6086
v  -8.0069 81.2230 3.4105
v  -8.0069 81.2230 8.0644
v  -8.0069 76.0149 6.2625
v  -4.9457 85.4365 4.7302
v  -4.9457 85.4365 9.3841
v  0.0076 86.2535 4.8182
v  0.0076 86.2535 9.4721
v  4.4573 84.6441 9.2962
v  4.4573 84.6441 4.6423
v  7.2074 80.4306 8.0644
v  7.2074 80.4306 3.4105
v  7.2074 76.0149 6.2625
v  7.2074 76.0149 1.6086
v  -7.1923 76.0149 1.6086
v  -7.1923 76.0149 6.2625
v  -7.1923 80.4306 8.0644
v  -7.1923 80.4306 3.4105
v  -4.4422 84.6441 4.6423
v  -4.4422 84.6441 9.2962
v  0.0076 52.5486 4.8182
v  4.9608 50.9392 4.7302
v  4.9608 50.9392 9.3841
v  0.0076 52.5486 9.4721
v  8.0221 46.7257 3.4105
v  8.0221 46.7257 8.0644
v  8.0221 41.5176 1.6086
v  8.0221 41.5176 6.2625
v  -8.0069 41.5176 1.6086
v  -8.0069 46.7257 3.4105
v  -8.0069 46.7257 8.0644
v  -8.0069 41.5176 6.2625
v  -4.9457 50.9392 4.7302
v  -4.9457 50.9392 9.3841
v  0.0076 51.7562 4.8182
v  0.0076 51.7562 9.4721
v  4.4573 50.1468 9.2962
v  4.4573 50.1468 4.6423
v  7.2074 45.9333 8.0644
v  7.2074 45.9333 3.4105
v  7.2074 41.5176 6.2625
v  7.2074 41.5176 1.6086
v  -7.1923 41.5176 1.6086
v  -7.1923 41.5176 6.2625
v  -7.1923 45.9333 8.0644
v  -7.1923 45.9333 3.4105
v  -4.4422 50.1468 4.6423
v  -4.4422 50.1468 9.2962
v  0.0076 69.5717 4.8182
v  4.9608 67.9623 4.7302
v  4.9608 67.9623 9.3841
v  0.0076 69.5717 9.4721
v  8.0221 63.7488 3.4105
v  8.0221 63.7488 8.0644
v  8.0221 58.5406 1.6086
v  8.0221 58.5406 6.2625
v  -8.0069 58.5406 1.6086
v  -8.0069 63.7488 3.4105
v  -8.0069 63.7488 8.0644
v  -8.0069 58.5406 6.2625
v  -4.9457 67.9623 4.7302
v  -4.9457 67.9623 9.3841
v  0.0076 68.7793 4.8182
v  0.0076 68.7793 9.4721
v  4.4573 67.1699 9.2962
v  4.4573 67.1699 4.6423
v  7.2074 62.9564 8.0644
v  7.2074 62.9564 3.4105
v  7.2074 58.5406 6.2625
v  7.2074 58.5406 1.6086
v  -7.1923 58.5406 1.6086
v  -7.1923 58.5406 6.2625
v  -7.1923 62.9564 8.0644
v  -7.1923 62.9564 3.4105
v  -4.4422 67.1699 4.6423
v  -4.4422 67.1699 9.2962
v  10.8448 88.3109 5.5438
v  10.8448 88.3109 -8.0388
v  -10.8875 88.3109 -8.0388
v  -10.8875 88.3109 5.5438
v  10.8448 33.9802 -8.0389
v  -10.8875 33.9802 -8.0389
v  10.8448 33.9802 5.5438
v  -10.8875 33.9802 5.5438
v  -6.2257 75.9787 5.4975
v  -4.7563 73.7797 5.4975
v  -4.7563 74.6950 6.5794
v  -6.2257 76.4741 6.0830
v  -2.5572 72.3103 5.4975
v  -2.5572 73.5063 6.9111
v  0.0367 71.7943 5.4975
v  0.0367 73.0889 7.0275
v  2.6307 72.3103 5.4975
v  2.6307 73.5063 6.9111
v  4.8298 73.7797 5.4975
v  4.8298 74.6950 6.5794
v  6.2991 75.9787 5.4975
v  6.2991 76.4741 6.0830
v  -4.7563 77.0916 7.2480
v  -6.2257 77.7711 6.4449
v  -2.5572 76.6375 7.7847
v  0.0367 76.4781 7.9731
v  2.6307 76.6375 7.7847
v  4.8298 77.0916 7.2480
v  6.2991 77.7711 6.4449
v  -4.7563 80.0538 7.2480
v  -6.2257 79.3743 6.4449
v  -2.5572 80.5079 7.7847
v  0.0367 80.6673 7.9731
v  2.6307 80.5079 7.7847
v  4.8298 80.0538 7.2480
v  6.2991 79.3743 6.4449
v  -4.7563 82.4503 6.5794
v  -6.2257 80.6713 6.0830
v  -2.5572 83.6391 6.9111
v  0.0367 84.0565 7.0275
v  2.6307 83.6391 6.9111
v  4.8298 82.4503 6.5794
v  6.2991 80.6713 6.0830
v  2.6307 84.8351 5.4975
v  4.8298 83.3658 5.4975
v  6.2991 81.1667 5.4975
v  6.8151 78.5727 5.4975
v  -6.7417 78.5727 5.4975
v  -6.2257 81.1667 5.4975
v  -4.7563 83.3658 5.4975
v  -2.5572 84.8351 5.4975
v  0.0367 85.3511 5.4975
v  -6.2257 41.4649 5.4975
v  -4.7563 39.2659 5.4975
v  -4.7563 40.1813 6.5794
v  -6.2257 41.9604 6.0830
v  -2.5572 37.7965 5.4975
v  -2.5572 38.9925 6.9111
v  0.0367 37.2805 5.4975
v  0.0367 38.5751 7.0275
v  2.6307 37.7965 5.4975
v  2.6307 38.9925 6.9111
v  4.8298 39.2659 5.4975
v  4.8298 40.1813 6.5794
v  6.2992 41.4649 5.4975
v  6.2992 41.9604 6.0830
v  -4.7563 42.5778 7.2480
v  -6.2257 43.2573 6.4449
v  -2.5572 42.1237 7.7847
v  0.0367 41.9643 7.9731
v  2.6307 42.1237 7.7847
v  4.8298 42.5778 7.2480
v  6.2992 43.2573 6.4449
v  -4.7563 45.5401 7.2480
v  -6.2257 44.8605 6.4449
v  -2.5572 45.9941 7.7847
v  0.0367 46.1536 7.9731
v  2.6307 45.9941 7.7847
v  4.8298 45.5401 7.2480
v  6.2992 44.8605 6.4449
v  -4.7563 47.9366 6.5794
v  -6.2257 46.1575 6.0830
v  -2.5572 49.1253 6.9111
v  0.0367 49.5427 7.0275
v  2.6307 49.1253 6.9111
v  4.8298 47.9366 6.5794
v  6.2992 46.1575 6.0830
v  2.6307 50.3213 5.4975
v  4.8298 48.8520 5.4975
v  6.2992 46.6529 5.4975
v  6.8151 44.0589 5.4975
v  -6.7417 44.0589 5.4975
v  -6.2257 46.6529 5.4975
v  -4.7563 48.8520 5.4975
v  -2.5572 50.3213 5.4975
v  0.0367 50.8373 5.4975
v  -6.2257 58.5088 5.4975
v  -4.7563 56.3097 5.4975
v  -4.7563 57.2251 6.5794
v  -6.2257 59.0042 6.0830
v  -2.5572 54.8404 5.4975
v  -2.5572 56.0364 6.9111
v  0.0367 54.3244 5.4975
v  0.0367 55.6189 7.0275
v  2.6307 54.8404 5.4975
v  2.6307 56.0364 6.9111
v  4.8298 56.3097 5.4975
v  4.8298 57.2251 6.5794
v  6.2991 58.5088 5.4975
v  6.2991 59.0042 6.0830
v  -4.7563 59.6216 7.2480
v  -6.2257 60.3012 6.4449
v  -2.5572 59.1676 7.7847
v  0.0367 59.0081 7.9731
v  2.6307 59.1676 7.7847
v  4.8298 59.6216 7.2480
v  6.2991 60.3012 6.4449
v  -4.7563 62.5839 7.2480
v  -6.2257 61.9044 6.4449
v  -2.5572 63.0380 7.7847
v  0.0367 63.1974 7.9731
v  2.6307 63.0380 7.7847
v  4.8298 62.5839 7.2480
v  6.2991 61.9044 6.4449
v  -4.7563 64.9804 6.5794
v  -6.2257 63.2013 6.0830
v  -2.5572 66.1692 6.9111
v  0.0367 66.5866 7.0275
v  2.6307 66.1692 6.9111
v  4.8298 64.9804 6.5794
v  6.2991 63.2013 6.0830
v  2.6307 67.3652 5.4975
v  4.8298 65.8958 5.4975
v  6.2991 63.6967 5.4975
v  6.8151 61.1028 5.4975
v  -6.7417 61.1028 5.4975
v  -6.2257 63.6967 5.4975
v  -4.7563 65.8958 5.4975
v  -2.5572 67.3652 5.4975
v  0.0367 67.8812 5.4975
v  0.0078 -133.2917 -12.8024
v  0.0078 -126.2051 -12.8024
v  10.2365 -126.2051 -6.8969
v  10.2365 -133.2917 -6.8969
v  10.2365 -126.2051 4.9142
v  10.2365 -133.2917 4.9142
v  0.0078 -126.2051 10.8197
v  0.0078 -133.2917 10.8197
v  -10.2208 -126.2051 4.9142
v  -10.2208 -133.2917 4.9142
v  -10.2208 -126.2051 -6.8969
v  -6.9911 -126.2051 -5.0322
v  0.0078 -126.2051 -9.0731
v  -10.2208 -133.2917 -6.8969
v  -6.9911 -90.9809 -5.0322
v  0.0078 -90.9809 -9.0731
v  -6.9911 -126.2051 3.0495
v  0.0078 -126.2051 7.0904
v  7.0068 -126.2051 3.0495
v  7.0068 -126.2051 -5.0322
v  -3.6053 -90.9809 -3.0774
v  0.0078 -90.9809 -5.1634
v  -6.9911 -90.9809 3.0495
v  0.0078 -90.9809 7.0904
v  7.0068 -90.9809 3.0495
v  7.0068 -90.9809 -5.0322
v  -3.6053 -90.9809 1.0947
v  0.0078 -90.9809 3.1808
v  3.6210 -90.9809 1.0947
v  3.6210 -90.9809 -3.0774
v  0.0078 57.2001 -5.1634
v  -3.6053 57.2001 -3.0774
v  -3.6053 57.2001 1.0947
v  0.0078 57.2001 3.1808
v  3.6210 57.2001 1.0947
v  3.6210 57.2001 -3.0774
# 260 vertices

vn -0.3090 -0.9511 -0.0000
vn -0.8090 -0.5878 -0.0000
vn -1.0000 -0.0000 -0.0000
vn 1.0000 0.0000 -0.0000
vn 0.3090 -0.9511 -0.0000
vn 0.8090 -0.5878 -0.0000
vn 0.3401 0.9404 0.0000
vn 0.8374 0.5466 0.0000
vn -0.3401 0.9404 0.0000
vn -0.8374 0.5466 0.0000
vn 0.0082 0.0580 -0.9983
vn -0.0082 -0.0580 0.9983
vn 0.1576 0.1850 -0.9700
vn -0.1577 -0.1850 0.9700
vn 0.1681 0.3457 -0.9232
vn -0.1681 -0.3457 0.9232
vn 0.0000 1.0000 -0.0000
vn 0.0000 1.0000 0.0000
vn -0.1681 0.3457 -0.9232
vn 0.1681 -0.3457 0.9232
vn -0.1577 0.1850 -0.9700
vn 0.1577 -0.1850 0.9700
vn -0.0082 0.0580 -0.9983
vn 0.0082 -0.0580 0.9983
vn 0.1577 0.1850 -0.9700
vn -1.0000 0.0000 -0.0000
vn 1.0000 -0.0000 -0.0000
vn 0.0000 0.0000 -1.0000
vn 0.0000 -1.0000 -0.0000
vn 0.0000 -0.0000 1.0000
vn 1.0000 0.0000 0.0000
vn -0.7525 -0.5028 0.4254
vn -0.4544 -0.6800 0.5754
vn -0.1501 -0.7547 0.6386
vn 0.1501 -0.7547 0.6386
vn 0.4544 -0.6800 0.5754
vn 0.7525 -0.5028 0.4254
vn -0.5454 -0.2252 0.8073
vn -0.2790 -0.2581 0.9250
vn -0.0862 -0.2677 0.9596
vn 0.0862 -0.2677 0.9596
vn 0.2790 -0.2581 0.9250
vn 0.5454 -0.2252 0.8073
vn -0.4796 -0.0000 0.8775
vn -0.2371 -0.0000 0.9715
vn -0.0725 -0.0000 0.9974
vn 0.0725 -0.0000 0.9974
vn 0.2371 -0.0000 0.9715
vn 0.4796 -0.0000 0.8775
vn -0.5454 0.2252 0.8073
vn -0.2790 0.2581 0.9250
vn -0.0862 0.2677 0.9596
vn 0.0862 0.2677 0.9596
vn 0.2790 0.2581 0.9250
vn 0.5454 0.2252 0.8073
vn -0.0000 0.0000 -1.0000
vn -0.9677 -0.1925 0.1629
vn 0.9677 -0.1925 0.1629
vn -0.9094 -0.1118 0.4007
vn 0.9094 -0.1118 0.4007
vn -0.8782 -0.0000 0.4783
vn 0.8782 -0.0000 0.4783
vn -0.9094 0.1118 0.4007
vn 0.9094 0.1118 0.4007
vn -0.9677 0.1925 0.1629
vn -0.7525 0.5028 0.4254
vn -0.4544 0.6800 0.5754
vn -0.1501 0.7547 0.6386
vn 0.1501 0.7547 0.6386
vn 0.4544 0.6800 0.5754
vn 0.7525 0.5028 0.4254
vn 0.9677 0.1925 0.1629
vn -0.4796 0.0000 0.8775
vn 0.4796 0.0000 0.8775
vn -0.8782 0.0000 0.4783
vn 0.8782 0.0000 0.4783
vn 0.5000 0.0000 -0.8660
vn 0.5000 -0.0000 0.8660
vn -0.5000 -0.0000 0.8660
vn -0.5000 0.0000 -0.8660
vn 1.0000 -0.0000 0.0000
# 81 vertex normals

vt 0.2766 0.7618 0.0000
vt 0.3266 0.7618 0.0000
vt 0.3266 0.8118 0.0000
vt 0.2766 0.8118 0.0000
vt 0.1797 0.7678 0.0000
vt 0.2297 0.7678 0.0000
vt 0.2297 0.8178 0.0000
vt 0.1797 0.8178 0.0000
vt 0.1206 0.8613 0.0000
vt 0.3327 0.8790 0.0000
vt 0.2190 0.8637 0.0000
vt 0.0000 0.0000 0.0000
# 12 texture coords

g Props_Traffic_Signal_small
usemtl Props_TrafficProps
s off
f 1/1/1 2/2/1 3/3/1 4/4/1 
f 2/1/2 5/2/2 6/3/2 3/4/2 
f 5/1/3 7/2/3 8/3/3 6/4/3 
f 9/1/4 10/2/4 11/3/4 12/4/4 
f 13/1/5 1/2/5 4/3/5 14/4/5 
f 10/1/6 13/2/6 14/3/6 11/4/6 
f 15/1/7 16/2/7 17/3/7 18/4/7 
f 18/1/8 17/2/8 19/3/8 20/4/8 
f 20/1/4 19/2/4 21/3/4 22/4/4 
f 23/1/3 24/2/3 25/3/3 26/4/3 
f 27/1/9 28/2/9 16/3/9 15/4/9 
f 26/1/10 25/2/10 28/3/10 27/4/10 
f 14/1/11 4/2/11 16/3/11 28/4/11 
f 1/1/12 13/2/12 27/3/12 15/4/12 
f 11/1/13 14/2/13 28/3/13 25/4/13 
f 13/1/14 10/2/14 26/3/14 27/4/14 
f 12/1/15 11/2/15 25/3/15 24/4/15 
f 10/1/16 9/2/16 23/3/16 26/4/16 
f 9/1/17 12/2/17 24/3/17 23/4/17 
f 8/1/18 7/2/18 22/3/18 21/4/18 
f 6/1/19 8/2/19 21/3/19 19/4/19 
f 7/1/20 5/2/20 20/3/20 22/4/20 
f 3/1/21 6/2/21 19/3/21 17/4/21 
f 5/1/22 2/2/22 18/3/22 20/4/22 
f 4/1/23 3/2/23 17/3/23 16/4/23 
f 2/1/24 1/2/24 15/3/24 18/4/24 
f 29/1/1 30/2/1 31/3/1 32/4/1 
f 30/1/2 33/2/2 34/3/2 31/4/2 
f 33/1/3 35/2/3 36/3/3 34/4/3 
f 37/1/4 38/2/4 39/3/4 40/4/4 
f 41/1/5 29/2/5 32/3/5 42/4/5 
f 38/1/6 41/2/6 42/3/6 39/4/6 
f 43/1/7 44/2/7 45/3/7 46/4/7 
f 46/1/8 45/2/8 47/3/8 48/4/8 
f 48/1/4 47/2/4 49/3/4 50/4/4 
f 51/1/3 52/2/3 53/3/3 54/4/3 
f 55/1/9 56/2/9 44/3/9 43/4/9 
f 54/1/10 53/2/10 56/3/10 55/4/10 
f 42/1/11 32/2/11 44/3/11 56/4/11 
f 29/1/12 41/2/12 55/3/12 43/4/12 
f 39/1/25 42/2/25 56/3/25 53/4/25 
f 41/1/14 38/2/14 54/3/14 55/4/14 
f 40/1/15 39/2/15 53/3/15 52/4/15 
f 38/1/16 37/2/16 51/3/16 54/4/16 
f 37/1/17 40/2/17 52/3/17 51/4/17 
f 36/1/18 35/2/18 50/3/18 49/4/18 
f 34/1/19 36/2/19 49/3/19 47/4/19 
f 35/1/20 33/2/20 48/3/20 50/4/20 
f 31/1/21 34/2/21 47/3/21 45/4/21 
f 33/1/22 30/2/22 46/3/22 48/4/22 
f 32/1/23 31/2/23 45/3/23 44/4/23 
f 30/1/24 29/2/24 43/3/24 46/4/24 
f 57/1/1 58/2/1 59/3/1 60/4/1 
f 58/1/2 61/2/2 62/3/2 59/4/2 
f 61/1/26 63/2/26 64/3/26 62/4/26 
f 65/1/4 66/2/4 67/3/4 68/4/4 
f 69/1/5 57/2/5 60/3/5 70/4/5 
f 66/1/6 69/2/6 70/3/6 67/4/6 
f 71/1/7 72/2/7 73/3/7 74/4/7 
f 74/1/8 73/2/8 75/3/8 76/4/8 
f 76/1/27 75/2/27 77/3/27 78/4/27 
f 79/1/26 80/2/26 81/3/26 82/4/26 
f 83/1/9 84/2/9 72/3/9 71/4/9 
f 82/1/10 81/2/10 84/3/10 83/4/10 
f 70/1/11 60/2/11 72/3/11 84/4/11 
f 57/1/12 69/2/12 83/3/12 71/4/12 
f 67/1/13 70/2/13 84/3/13 81/4/13 
f 69/1/14 66/2/14 82/3/14 83/4/14 
f 68/1/15 67/2/15 81/3/15 80/4/15 
f 66/1/16 65/2/16 79/3/16 82/4/16 
f 65/1/18 68/2/18 80/3/18 79/4/18 
f 64/1/18 63/2/18 78/3/18 77/4/18 
f 62/1/19 64/2/19 77/3/19 75/4/19 
f 63/1/20 61/2/20 76/3/20 78/4/20 
f 59/1/21 62/2/21 75/3/21 73/4/21 
f 61/1/22 58/2/22 74/3/22 76/4/22 
f 60/1/23 59/2/23 73/3/23 72/4/23 
f 58/1/24 57/2/24 71/3/24 74/4/24 
f 85/5/18 86/6/18 87/7/18 88/8/18 
f 86/5/28 89/6/28 90/7/28 87/8/28 
f 89/5/29 91/6/29 92/7/29 90/8/29 
f 91/5/30 85/6/30 88/7/30 92/8/30 
f 88/5/3 87/6/3 90/7/3 92/8/3 
f 91/5/31 89/6/31 86/7/31 85/8/31 
f 93/9/32 94/9/32 95/9/32 96/9/32 
f 94/9/33 97/9/33 98/9/33 95/9/33 
f 97/9/34 99/9/34 100/9/34 98/9/34 
f 99/9/35 101/9/35 102/9/35 100/9/35 
f 101/9/36 103/9/36 104/9/36 102/9/36 
f 103/9/37 105/9/37 106/9/37 104/9/37 
f 96/9/38 95/9/38 107/9/38 108/9/38 
f 95/9/39 98/9/39 109/9/39 107/9/39 
f 98/9/40 100/9/40 110/9/40 109/9/40 
f 100/9/41 102/9/41 111/9/41 110/9/41 
f 102/9/42 104/9/42 112/9/42 111/9/42 
f 104/9/43 106/9/43 113/9/43 112/9/43 
f 108/9/44 107/9/44 114/9/44 115/9/44 
f 107/9/45 109/9/45 116/9/45 114/9/45 
f 109/9/46 110/9/46 117/9/46 116/9/46 
f 110/9/47 111/9/47 118/9/47 117/9/47 
f 111/9/48 112/9/48 119/9/48 118/9/48 
f 112/9/49 113/9/49 120/9/49 119/9/49 
f 115/9/50 114/9/50 121/9/50 122/9/50 
f 114/9/51 116/9/51 123/9/51 121/9/51 
f 116/9/52 117/9/52 124/9/52 123/9/52 
f 117/9/53 118/9/53 125/9/53 124/9/53 
f 118/9/54 119/9/54 126/9/54 125/9/54 
f 119/9/55 120/9/55 127/9/55 126/9/55 
f 128/9/56 129/9/56 130/9/56 131/9/56 
f 128/9/56 131/9/56 105/9/56 103/9/56 
f 128/9/56 103/9/56 101/9/56 99/9/56 
f 128/9/28 99/9/28 97/9/28 94/9/28 
f 128/9/28 94/9/28 93/9/28 132/9/28 
f 128/9/28 132/9/28 133/9/28 134/9/28 
f 128/9/28 134/9/28 135/9/28 136/9/28 
f 132/9/57 93/9/57 96/9/57 
f 105/9/58 131/9/58 106/9/58 
f 132/9/59 96/9/59 108/9/59 
f 106/9/60 131/9/60 113/9/60 
f 132/9/61 108/9/61 115/9/61 
f 113/9/62 131/9/62 120/9/62 
f 132/9/63 115/9/63 122/9/63 
f 120/9/64 131/9/64 127/9/64 
f 132/9/65 122/9/65 133/9/65 
f 122/9/66 121/9/66 134/9/66 133/9/66 
f 121/9/67 123/9/67 135/9/67 134/9/67 
f 123/9/68 124/9/68 136/9/68 135/9/68 
f 124/9/69 125/9/69 128/9/69 136/9/69 
f 125/9/70 126/9/70 129/9/70 128/9/70 
f 126/9/71 127/9/71 130/9/71 129/9/71 
f 127/9/72 131/9/72 130/9/72 
f 137/10/32 138/10/32 139/10/32 140/10/32 
f 138/10/33 141/10/33 142/10/33 139/10/33 
f 141/10/34 143/10/34 144/10/34 142/10/34 
f 143/10/35 145/10/35 146/10/35 144/10/35 
f 145/10/36 147/10/36 148/10/36 146/10/36 
f 147/10/37 149/10/37 150/10/37 148/10/37 
f 140/10/38 139/10/38 151/10/38 152/10/38 
f 139/10/39 142/10/39 153/10/39 151/10/39 
f 142/10/40 144/10/40 154/10/40 153/10/40 
f 144/10/41 146/10/41 155/10/41 154/10/41 
f 146/10/42 148/10/42 156/10/42 155/10/42 
f 148/10/43 150/10/43 157/10/43 156/10/43 
f 152/10/44 151/10/44 158/10/44 159/10/44 
f 151/10/45 153/10/45 160/10/45 158/10/45 
f 153/10/46 154/10/46 161/10/46 160/10/46 
f 154/10/47 155/10/47 162/10/47 161/10/47 
f 155/10/48 156/10/48 163/10/48 162/10/48 
f 156/10/49 157/10/49 164/10/49 163/10/49 
f 159/10/50 158/10/50 165/10/50 166/10/50 
f 158/10/51 160/10/51 167/10/51 165/10/51 
f 160/10/52 161/10/52 168/10/52 167/10/52 
f 161/10/53 162/10/53 169/10/53 168/10/53 
f 162/10/54 163/10/54 170/10/54 169/10/54 
f 163/10/55 164/10/55 171/10/55 170/10/55 
f 172/10/28 173/10/28 174/10/28 175/10/28 
f 172/10/28 175/10/28 149/10/28 147/10/28 
f 172/10/56 147/10/56 145/10/56 143/10/56 
f 172/10/28 143/10/28 141/10/28 138/10/28 
f 172/10/56 138/10/56 137/10/56 176/10/56 
f 172/10/56 176/10/56 177/10/56 178/10/56 
f 172/10/28 178/10/28 179/10/28 180/10/28 
f 176/10/57 137/10/57 140/10/57 
f 149/10/58 175/10/58 150/10/58 
f 176/10/59 140/10/59 152/10/59 
f 150/10/60 175/10/60 157/10/60 
f 176/10/61 152/10/61 159/10/61 
f 157/10/62 175/10/62 164/10/62 
f 176/10/63 159/10/63 166/10/63 
f 164/10/64 175/10/64 171/10/64 
f 176/10/65 166/10/65 177/10/65 
f 166/10/66 165/10/66 178/10/66 177/10/66 
f 165/10/67 167/10/67 179/10/67 178/10/67 
f 167/10/68 168/10/68 180/10/68 179/10/68 
f 168/10/69 169/10/69 172/10/69 180/10/69 
f 169/10/70 170/10/70 173/10/70 172/10/70 
f 170/10/71 171/10/71 174/10/71 173/10/71 
f 171/10/72 175/10/72 174/10/72 
f 181/11/32 182/11/32 183/11/32 184/11/32 
f 182/11/33 185/11/33 186/11/33 183/11/33 
f 185/11/34 187/11/34 188/11/34 186/11/34 
f 187/11/35 189/11/35 190/11/35 188/11/35 
f 189/11/36 191/11/36 192/11/36 190/11/36 
f 191/11/37 193/11/37 194/11/37 192/11/37 
f 184/11/38 183/11/38 195/11/38 196/11/38 
f 183/11/39 186/11/39 197/11/39 195/11/39 
f 186/11/40 188/11/40 198/11/40 197/11/40 
f 188/11/41 190/11/41 199/11/41 198/11/41 
f 190/11/42 192/11/42 200/11/42 199/11/42 
f 192/11/43 194/11/43 201/11/43 200/11/43 
f 196/11/73 195/11/73 202/11/73 203/11/73 
f 195/11/45 197/11/45 204/11/45 202/11/45 
f 197/11/46 198/11/46 205/11/46 204/11/46 
f 198/11/47 199/11/47 206/11/47 205/11/47 
f 199/11/48 200/11/48 207/11/48 206/11/48 
f 200/11/74 201/11/74 208/11/74 207/11/74 
f 203/11/50 202/11/50 209/11/50 210/11/50 
f 202/11/51 204/11/51 211/11/51 209/11/51 
f 204/11/52 205/11/52 212/11/52 211/11/52 
f 205/11/53 206/11/53 213/11/53 212/11/53 
f 206/11/54 207/11/54 214/11/54 213/11/54 
f 207/11/55 208/11/55 215/11/55 214/11/55 
f 216/11/56 217/11/56 218/11/56 219/11/56 
f 216/11/56 219/11/56 193/11/56 191/11/56 
f 216/11/28 191/11/28 189/11/28 187/11/28 
f 216/11/56 187/11/56 185/11/56 182/11/56 
f 216/11/28 182/11/28 181/11/28 220/11/28 
f 216/11/28 220/11/28 221/11/28 222/11/28 
f 216/11/28 222/11/28 223/11/28 224/11/28 
f 220/11/57 181/11/57 184/11/57 
f 193/11/58 219/11/58 194/11/58 
f 220/11/59 184/11/59 196/11/59 
f 194/11/60 219/11/60 201/11/60 
f 220/11/75 196/11/75 203/11/75 
f 201/11/76 219/11/76 208/11/76 
f 220/11/63 203/11/63 210/11/63 
f 208/11/64 219/11/64 215/11/64 
f 220/11/65 210/11/65 221/11/65 
f 210/11/66 209/11/66 222/11/66 221/11/66 
f 209/11/67 211/11/67 223/11/67 222/11/67 
f 211/11/68 212/11/68 224/11/68 223/11/68 
f 212/11/69 213/11/69 216/11/69 224/11/69 
f 213/11/70 214/11/70 217/11/70 216/11/70 
f 214/11/71 215/11/71 218/11/71 217/11/71 
f 215/11/72 219/11/72 218/11/72 
f 225/12/77 226/12/77 227/12/77 228/12/77 
f 228/12/31 227/12/31 229/12/31 230/12/31 
f 230/12/78 229/12/78 231/12/78 232/12/78 
f 232/12/79 231/12/79 233/12/79 234/12/79 
s 1
f 226/12/18 235/12/18 236/12/18 237/12/18 
s off
f 238/12/80 235/12/80 226/12/80 225/12/80 
f 234/12/3 233/12/3 235/12/3 238/12/3 
f 225/12/29 228/12/29 230/12/29 232/12/29 
f 225/12/29 232/12/29 234/12/29 238/12/29 
f 237/12/80 236/12/80 239/12/80 240/12/80 
s 1
f 235/12/18 233/12/18 241/12/18 236/12/18 
f 233/12/18 231/12/18 242/12/18 241/12/18 
f 231/12/18 229/12/18 243/12/18 242/12/18 
f 229/12/18 227/12/18 244/12/18 243/12/18 
f 227/12/18 226/12/18 237/12/18 244/12/18 
f 240/12/18 239/12/18 245/12/18 246/12/18 
s off
f 236/12/26 241/12/26 247/12/26 239/12/26 
f 241/12/79 242/12/79 248/12/79 247/12/79 
f 242/12/78 243/12/78 249/12/78 248/12/78 
f 243/12/4 244/12/4 250/12/4 249/12/4 
f 244/12/77 237/12/77 240/12/77 250/12/77 
s 1
f 239/12/18 247/12/18 251/12/18 245/12/18 
f 247/12/18 248/12/18 252/12/18 251/12/18 
f 248/12/18 249/12/18 253/12/18 252/12/18 
f 249/12/18 250/12/18 254/12/18 253/12/18 
f 250/12/18 240/12/18 246/12/18 254/12/18 
s off
f 255/12/18 256/12/18 257/12/18 258/12/18 
f 255/12/18 258/12/18 259/12/18 260/12/18 
f 254/12/77 246/12/77 255/12/77 260/12/77 
f 253/12/81 254/12/81 260/12/81 259/12/81 
f 252/12/78 253/12/78 259/12/78 258/12/78 
f 251/12/79 252/12/79 258/12/79 257/12/79 
f 245/12/26 251/12/26 257/12/26 256/12/26 
f 246/12/80 245/12/80 256/12/80 255/12/80 
# 229 polygons - 30 triangles

