# 3ds Max Wavefront OBJ Exporter v0.97b - (c)2007 guruware
# File Created: 10.03.2017 16:41:21

mtllib Props_Hydrant.mtl

#
# object Props_Hydrant
#

v  -0.0000 5.1843 8.5630
v  0.0000 5.1843 -8.5630
v  -0.7440 4.8762 -8.5630
v  -0.7440 4.8762 8.5630
v  -1.0522 4.1322 -8.5630
v  -1.0522 4.1322 8.5630
v  -0.7440 3.3882 -8.5630
v  -0.7440 3.3882 8.5630
v  0.0000 3.0800 -8.5630
v  -0.0000 3.0800 8.5630
v  0.7440 3.3882 -8.5630
v  0.7440 3.3882 8.5630
v  1.0522 4.1322 -8.5630
v  1.0522 4.1322 8.5630
v  0.7440 4.8762 -8.5630
v  0.7440 4.8762 8.5630
v  -8.5630 5.1843 0.0000
v  8.5630 5.1843 0.0000
v  8.5630 4.8762 -0.7440
v  -8.5630 4.8762 -0.7440
v  8.5630 4.1322 -1.0522
v  -8.5630 4.1322 -1.0522
v  8.5630 3.3882 -0.7440
v  -8.5630 3.3882 -0.7440
v  8.5630 3.0800 0.0000
v  -8.5630 3.0800 -0.0000
v  8.5630 3.3882 0.7440
v  -8.5630 3.3882 0.7440
v  8.5630 4.1322 1.0522
v  -8.5630 4.1322 1.0522
v  8.5630 4.8762 0.7440
v  -8.5630 4.8762 0.7440
v  -7.6772 8.3250 0.0000
v  7.6772 8.3250 0.0000
v  7.6772 7.0970 -2.9648
v  -7.6772 7.0970 -2.9648
v  7.6772 4.1322 -4.1928
v  -7.6772 4.1322 -4.1928
v  7.6772 1.1674 -2.9648
v  -7.6772 1.1674 -2.9648
v  7.6772 -0.0607 0.0000
v  -7.6772 -0.0607 -0.0000
v  7.6772 1.1674 2.9648
v  -7.6772 1.1674 2.9648
v  7.6772 4.1322 4.1928
v  -7.6772 4.1322 4.1928
v  7.6772 7.0970 2.9648
v  -7.6772 7.0970 2.9648
v  0.0000 8.3250 -7.6772
v  0.0000 8.3250 7.6772
v  2.9648 7.0970 7.6772
v  2.9648 7.0970 -7.6772
v  4.1928 4.1322 7.6772
v  4.1928 4.1322 -7.6772
v  2.9648 1.1674 7.6772
v  2.9648 1.1674 -7.6772
v  -0.0000 -0.0607 7.6772
v  -0.0000 -0.0607 -7.6772
v  -2.9648 1.1674 7.6772
v  -2.9648 1.1674 -7.6772
v  -4.1928 4.1322 7.6772
v  -4.1928 4.1322 -7.6772
v  -2.9648 7.0970 7.6772
v  -2.9648 7.0970 -7.6772
v  0.0000 11.9891 -7.8694
v  0.0000 13.5148 -7.8694
v  5.5645 13.5148 -5.5645
v  5.5645 11.9891 -5.5645
v  7.8694 13.5148 0.0000
v  7.8694 11.9891 0.0000
v  5.5645 13.5148 5.5645
v  5.5645 11.9891 5.5645
v  -0.0000 13.5148 7.8694
v  -0.0000 11.9891 7.8694
v  -5.5645 13.5148 5.5645
v  -5.5645 11.9891 5.5645
v  -7.8694 13.5148 0.0000
v  -7.8694 11.9891 0.0000
v  -5.5645 13.5148 -5.5645
v  -5.5645 11.9891 -5.5645
v  0.0000 -19.3580 -7.8694
v  0.0000 -15.1658 -7.8694
v  5.5645 -15.1658 -5.5645
v  5.5645 -19.3580 -5.5645
v  7.8694 -15.1658 -0.0000
v  7.8694 -19.3580 -0.0000
v  5.5645 -15.1658 5.5645
v  5.5645 -19.3580 5.5645
v  -0.0000 -15.1658 7.8694
v  -0.0000 -19.3580 7.8694
v  -5.5645 -15.1658 5.5645
v  -5.5645 -19.3580 5.5645
v  -7.8694 -15.1658 -0.0000
v  -7.8694 -19.3580 -0.0000
v  -5.5645 -15.1658 -5.5645
v  -5.5645 -19.3580 -5.5645
v  0.0000 -17.0045 -5.9055
v  0.0000 13.4985 -5.9055
v  4.1758 13.4985 -4.1758
v  4.1758 -17.0045 -4.1758
v  5.9055 13.4985 0.0000
v  5.9055 -17.0045 -0.0000
v  4.1758 13.4985 4.1758
v  4.1758 -17.0045 4.1758
v  -0.0000 13.4985 5.9055
v  -0.0000 -17.0045 5.9055
v  -4.1758 13.4985 4.1758
v  -4.1758 -17.0045 4.1758
v  -5.9055 13.4985 0.0000
v  -5.9055 -17.0045 -0.0000
v  -4.1758 13.4985 -4.1758
v  -0.5354 19.8765 -0.5354
v  0.0000 19.8765 -0.7572
v  -4.1758 -17.0045 -4.1758
v  -0.5354 20.8144 -0.5354
v  0.0000 20.8144 -0.7572
v  -0.7572 19.8765 0.0000
v  -0.5354 19.8765 0.5354
v  0.0000 19.8765 0.7572
v  0.5354 19.8765 0.5354
v  0.7572 19.8765 0.0000
v  0.5354 19.8765 -0.5354
v  0.5354 20.8144 -0.5354
v  -0.7572 20.8144 0.0000
v  -0.5354 20.8144 0.5354
v  0.0000 20.8144 0.7572
v  0.5354 20.8144 0.5354
v  0.7572 20.8144 0.0000
# 128 vertices

vn -0.3827 0.9239 0.0000
vn -0.9239 0.3827 -0.0000
vn -0.9239 -0.3827 -0.0000
vn -0.3827 -0.9239 -0.0000
vn 0.3827 -0.9239 -0.0000
vn 0.9239 -0.3827 0.0000
vn 0.0000 0.0000 -1.0000
vn 0.3827 0.9239 0.0000
vn 0.9239 0.3827 0.0000
vn 0.0000 -0.0000 1.0000
vn -0.0000 0.9239 -0.3827
vn 0.0000 0.3827 -0.9239
vn 0.0000 -0.3827 -0.9239
vn 0.0000 -0.9239 -0.3827
vn 0.0000 -0.9239 0.3827
vn -0.0000 -0.3827 0.9239
vn 1.0000 0.0000 -0.0000
vn -0.0000 0.9239 0.3827
vn -0.0000 0.3827 0.9239
vn -1.0000 0.0000 -0.0000
vn 1.0000 0.0000 0.0000
vn -1.0000 -0.0000 -0.0000
vn 0.9239 -0.3827 -0.0000
vn -0.0000 -0.0000 1.0000
vn -0.9239 0.3827 0.0000
vn -0.0000 0.0000 -1.0000
vn 0.3827 0.0000 -0.9239
vn 0.9239 0.0000 -0.3827
vn 0.9239 0.0000 0.3827
vn 0.3827 0.0000 0.9239
vn -0.3827 0.0000 0.9239
vn -0.9239 0.0000 0.3827
vn 0.0000 1.0000 0.0000
vn -0.3827 0.0000 -0.9239
vn -0.9239 0.0000 -0.3827
vn 0.0000 -1.0000 -0.0000
vn 0.9239 -0.0000 0.3827
vn 0.3827 -0.0000 0.9239
vn -0.3827 -0.0000 0.9239
vn -0.9239 -0.0000 0.3827
vn -0.3068 0.5978 -0.7406
vn -0.7406 0.5978 -0.3068
vn -0.7406 0.5978 0.3068
vn -0.3068 0.5978 0.7406
vn 0.3068 0.5978 0.7406
vn 0.7406 0.5978 0.3068
vn 0.7406 0.5978 -0.3068
vn 0.3068 0.5978 -0.7406
# 48 vertex normals

vt 0.7278 0.0570 0.0000
vt 0.7778 0.0570 0.0000
vt 0.7778 0.1070 0.0000
vt 0.7278 0.1070 0.0000
vt 0.7528 0.1070 0.0000
vt 0.7704 0.0997 0.0000
vt 0.7778 0.0820 0.0000
vt 0.7704 0.0643 0.0000
vt 0.7528 0.0570 0.0000
vt 0.7351 0.0643 0.0000
vt 0.7278 0.0820 0.0000
vt 0.7351 0.0997 0.0000
# 12 texture coords

g Props_Hydrant
usemtl Props_Props_01
s off
f 1/1/1 2/2/1 3/3/1 4/4/1 
f 4/1/2 3/2/2 5/3/2 6/4/2 
f 6/1/3 5/2/3 7/3/3 8/4/3 
f 8/1/4 7/2/4 9/3/4 10/4/4 
f 10/1/5 9/2/5 11/3/5 12/4/5 
f 12/1/6 11/2/6 13/3/6 14/4/6 
f 3/5/7 2/6/7 15/7/7 13/8/7 
f 3/5/7 13/8/7 11/9/7 9/10/7 
f 3/5/7 9/10/7 7/11/7 5/12/7 
f 16/1/8 15/2/8 2/3/8 1/4/8 
f 14/1/9 13/2/9 15/3/9 16/4/9 
f 1/5/10 4/6/10 6/7/10 8/8/10 
f 1/5/10 8/8/10 10/9/10 12/10/10 
f 1/5/10 12/10/10 14/11/10 16/12/10 
f 17/1/11 18/2/11 19/3/11 20/4/11 
f 20/1/12 19/2/12 21/3/12 22/4/12 
f 22/1/13 21/2/13 23/3/13 24/4/13 
f 24/1/14 23/2/14 25/3/14 26/4/14 
f 26/1/15 25/2/15 27/3/15 28/4/15 
f 28/1/16 27/2/16 29/3/16 30/4/16 
f 19/5/17 18/6/17 31/7/17 29/8/17 
f 19/5/17 29/8/17 27/9/17 25/10/17 
f 19/5/17 25/10/17 23/11/17 21/12/17 
f 32/1/18 31/2/18 18/3/18 17/4/18 
f 30/1/19 29/2/19 31/3/19 32/4/19 
f 17/5/20 20/6/20 22/7/20 24/8/20 
f 17/5/20 24/8/20 26/9/20 28/10/20 
f 17/5/20 28/10/20 30/11/20 32/12/20 
f 33/1/11 34/2/11 35/3/11 36/4/11 
f 36/1/12 35/2/12 37/3/12 38/4/12 
f 38/1/13 37/2/13 39/3/13 40/4/13 
f 40/1/14 39/2/14 41/3/14 42/4/14 
f 42/1/15 41/2/15 43/3/15 44/4/15 
f 44/1/16 43/2/16 45/3/16 46/4/16 
f 35/5/17 34/6/17 47/7/17 45/8/17 
f 35/5/21 45/8/21 43/9/21 41/10/21 
f 35/5/21 41/10/21 39/11/21 37/12/21 
f 48/1/18 47/2/18 34/3/18 33/4/18 
f 46/1/19 45/2/19 47/3/19 48/4/19 
f 33/5/22 36/6/22 38/7/22 40/8/22 
f 33/5/22 40/8/22 42/9/22 44/10/22 
f 33/5/20 44/10/20 46/11/20 48/12/20 
f 49/1/8 50/2/8 51/3/8 52/4/8 
f 52/1/9 51/2/9 53/3/9 54/4/9 
f 54/1/23 53/2/23 55/3/23 56/4/23 
f 56/1/5 55/2/5 57/3/5 58/4/5 
f 58/1/4 57/2/4 59/3/4 60/4/4 
f 60/1/3 59/2/3 61/3/3 62/4/3 
f 51/5/10 50/6/10 63/7/10 61/8/10 
f 51/5/24 61/8/24 59/9/24 57/10/24 
f 51/5/10 57/10/10 55/11/10 53/12/10 
f 64/1/1 63/2/1 50/3/1 49/4/1 
f 62/1/25 61/2/25 63/3/25 64/4/25 
f 49/5/7 52/6/7 54/7/7 56/8/7 
f 49/5/7 56/8/7 58/9/7 60/10/7 
f 49/5/26 60/10/26 62/11/26 64/12/26 
f 65/1/27 66/2/27 67/3/27 68/4/27 
f 68/1/28 67/2/28 69/3/28 70/4/28 
f 70/1/29 69/2/29 71/3/29 72/4/29 
f 72/1/30 71/2/30 73/3/30 74/4/30 
f 74/1/31 73/2/31 75/3/31 76/4/31 
f 76/1/32 75/2/32 77/3/32 78/4/32 
f 67/5/33 66/6/33 79/7/33 77/8/33 
f 67/5/33 77/8/33 75/9/33 73/10/33 
f 67/5/33 73/10/33 71/11/33 69/12/33 
f 80/1/34 79/2/34 66/3/34 65/4/34 
f 78/1/35 77/2/35 79/3/35 80/4/35 
f 65/5/36 68/6/36 70/7/36 72/8/36 
f 65/5/36 72/8/36 74/9/36 76/10/36 
f 65/5/36 76/10/36 78/11/36 80/12/36 
f 81/1/27 82/2/27 83/3/27 84/4/27 
f 84/1/28 83/2/28 85/3/28 86/4/28 
f 86/1/37 85/2/37 87/3/37 88/4/37 
f 88/1/38 87/2/38 89/3/38 90/4/38 
f 90/1/39 89/2/39 91/3/39 92/4/39 
f 92/1/40 91/2/40 93/3/40 94/4/40 
f 83/5/33 82/6/33 95/7/33 93/8/33 
f 83/5/33 93/8/33 91/9/33 89/10/33 
f 83/5/33 89/10/33 87/11/33 85/12/33 
f 96/1/34 95/2/34 82/3/34 81/4/34 
f 94/1/35 93/2/35 95/3/35 96/4/35 
f 81/5/36 84/6/36 86/7/36 88/8/36 
f 81/5/36 88/8/36 90/9/36 92/10/36 
f 81/5/36 92/10/36 94/11/36 96/12/36 
f 97/1/27 98/2/27 99/3/27 100/4/27 
f 100/1/28 99/2/28 101/3/28 102/4/28 
f 102/1/37 101/2/37 103/3/37 104/4/37 
f 104/1/38 103/2/38 105/3/38 106/4/38 
f 106/1/39 105/2/39 107/3/39 108/4/39 
f 108/1/40 107/2/40 109/3/40 110/4/40 
f 98/1/41 111/2/41 112/3/41 113/4/41 
f 114/1/34 111/2/34 98/3/34 97/4/34 
f 110/1/35 109/2/35 111/3/35 114/4/35 
f 97/5/36 100/6/36 102/7/36 104/8/36 
f 97/5/36 104/8/36 106/9/36 108/10/36 
f 97/5/36 108/10/36 110/11/36 114/12/36 
f 113/1/34 112/2/34 115/3/34 116/4/34 
f 111/1/42 109/2/42 117/3/42 112/4/42 
f 109/1/43 107/2/43 118/3/43 117/4/43 
f 107/1/44 105/2/44 119/3/44 118/4/44 
f 105/1/45 103/2/45 120/3/45 119/4/45 
f 103/1/46 101/2/46 121/3/46 120/4/46 
f 101/1/47 99/2/47 122/3/47 121/4/47 
f 99/1/48 98/2/48 113/3/48 122/4/48 
f 123/5/33 116/6/33 115/7/33 124/8/33 
f 123/5/33 124/8/33 125/9/33 126/10/33 
f 123/5/33 126/10/33 127/11/33 128/12/33 
f 112/1/35 117/2/35 124/3/35 115/4/35 
f 117/1/40 118/2/40 125/3/40 124/4/40 
f 118/1/39 119/2/39 126/3/39 125/4/39 
f 119/1/38 120/2/38 127/3/38 126/4/38 
f 120/1/37 121/2/37 128/3/37 127/4/37 
f 121/1/28 122/2/28 123/3/28 128/4/28 
f 122/1/27 113/2/27 116/3/27 123/4/27 
# 114 polygons

