# 3ds Max Wavefront OBJ Exporter v0.97b - (c)2007 guruware
# File Created: 10.03.2017 16:51:42

mtllib Road Lane Half.mtl

#
# object Road_Lane_Half
#

v  -440.5447 -0.0000 212.1538
v  -322.4345 -0.0000 212.1538
v  -322.4345 0.0000 -181.5470
v  -440.5447 0.0000 -181.5470
v  -306.6864 0.0000 -181.5470
v  -306.6864 -0.0000 212.1538
v  -54.7179 -0.0000 172.7837
v  -54.7179 -0.0000 54.6735
v  -54.7179 0.0000 -24.0667
v  -54.7179 0.0000 -142.1769
v  212.9987 0.0000 -181.5470
v  -38.9699 0.0000 -142.1769
v  -38.9699 0.0000 -24.0667
v  -38.9699 -0.0000 54.6735
v  -38.9699 -0.0000 172.7837
v  212.9987 -0.0000 212.1538
v  228.7467 -0.0000 212.1538
v  228.7467 0.0000 -181.5470
v  346.8569 -0.0000 212.1538
v  346.8569 0.0000 -181.5470
v  228.7467 7.8740 212.1538
v  228.7467 7.8740 -181.5470
v  346.8569 7.8740 -181.5470
v  346.8569 7.8740 212.1538
v  -440.5447 7.8740 212.1538
v  -440.5447 7.8740 -181.5470
v  -322.4344 7.8740 -181.5470
v  -322.4344 0.0000 -181.5470
v  -322.4344 7.8740 212.1538
v  -322.4344 -0.0000 212.1538
# 30 vertices

vn 0.0000 1.0000 0.0000
vn -0.0000 1.0000 0.0000
vn -1.0000 0.0000 -0.0000
vn 0.0000 0.0000 -1.0000
vn 1.0000 0.0000 -0.0000
vn 0.0000 -0.0000 1.0000
vn 0.0000 -1.0000 -0.0000
# 7 vertex normals

vt 0.4750 0.4750 0.0000
vt 0.4825 0.4750 0.0000
vt 0.4825 0.5250 0.0000
vt 0.4750 0.5250 0.0000
vt 0.4835 0.5250 0.0000
vt 0.4835 0.4750 0.0000
vt 0.4992 0.4801 0.0000
vt 0.4991 0.4942 0.0000
vt 0.4993 0.5048 0.0000
vt 0.4994 0.5200 0.0000
vt 0.5163 0.5249 0.0000
vt 0.5004 0.5200 0.0000
vt 0.5004 0.5048 0.0000
vt 0.5001 0.4942 0.0000
vt 0.5002 0.4801 0.0000
vt 0.5159 0.4753 0.0000
vt 0.5920 0.8718 0.0000
vt 0.5930 0.8718 0.0000
vt 0.5934 0.9214 0.0000
vt 0.5924 0.9214 0.0000
vt 0.5765 0.9013 0.0000
vt 0.5766 0.9165 0.0000
vt 0.5755 0.9165 0.0000
vt 0.5755 0.9013 0.0000
vt 0.5587 0.8715 0.0000
vt 0.5597 0.8715 0.0000
vt 0.5597 0.9215 0.0000
vt 0.5587 0.9215 0.0000
vt 0.5764 0.8766 0.0000
vt 0.5763 0.8907 0.0000
vt 0.5753 0.8907 0.0000
vt 0.5754 0.8766 0.0000
vt 0.5169 0.4753 0.0000
vt 0.5243 0.4752 0.0000
vt 0.5247 0.5248 0.0000
vt 0.5173 0.5249 0.0000
vt 0.2465 0.4652 0.0000
vt 0.2965 0.4652 0.0000
vt 0.2965 0.5152 0.0000
vt 0.2465 0.5152 0.0000
# 40 texture coords

g Road_Lane_Half
usemtl Road
s 1
f 1/1/1 2/2/1 3/3/1 4/4/1 
f 5/5/1 6/6/2 7/7/1 8/8/1 
f 5/5/1 8/8/1 9/9/1 10/10/1 
f 11/11/2 5/5/1 10/10/1 12/12/1 
f 13/13/1 9/9/1 8/8/1 14/14/1 
f 15/15/1 7/7/1 6/6/2 16/16/1 
f 14/14/1 15/15/1 16/16/1 13/13/1 
f 12/12/1 13/13/1 16/16/1 11/11/2 
f 16/17/1 17/18/1 18/19/1 11/20/2 
f 13/21/1 12/22/1 10/23/1 9/24/1 
f 2/25/1 6/26/2 5/27/1 3/28/1 
f 15/29/1 14/30/1 8/31/1 7/32/1 
f 17/33/1 19/34/1 20/35/1 18/36/1 
s off
f 21/37/3 22/38/3 18/39/3 17/40/3 
f 22/37/4 23/38/4 20/39/4 18/40/4 
f 23/37/5 24/38/5 19/39/5 20/40/5 
f 24/37/6 21/38/6 17/39/6 19/40/6 
f 17/37/7 18/38/7 20/39/7 19/40/7 
f 24/37/1 23/38/1 22/39/1 21/40/1 
f 25/37/3 26/38/3 4/39/3 1/40/3 
f 26/37/4 27/38/4 28/39/4 4/40/4 
f 27/37/5 29/38/5 30/39/5 28/40/5 
f 29/37/6 25/38/6 1/39/6 30/40/6 
f 1/37/7 4/38/7 28/39/7 30/40/7 
f 29/37/1 27/38/1 26/39/1 25/40/1 
# 25 polygons

