# 3ds Max Wavefront OBJ Exporter v0.97b - (c)2007 guruware
# File Created: 10.03.2017 16:49:51

mtllib Road Corner_01.mtl

#
# object Road_Corner_01
#

v  301.1284 7.8740 414.4523
v  301.1284 7.8740 296.3420
v  301.1284 -0.0000 296.3420
v  301.1284 -0.0000 414.4523
v  419.2386 7.8740 296.3420
v  419.2386 -0.0000 296.3420
v  419.2386 7.8740 414.4523
v  419.2386 -0.0000 414.4523
v  -368.1630 7.8740 414.4523
v  -368.1630 7.8740 -254.8391
v  -368.1630 0.0000 -254.8391
v  -368.1630 -0.0000 414.4523
v  -250.0527 7.8740 -254.8391
v  -250.0527 0.0000 -254.8391
v  -250.0527 7.8740 414.4523
v  -250.0527 -0.0000 414.4523
v  -368.1630 7.8741 -372.9493
v  -368.1630 0.0000 -372.9493
v  419.2386 7.8741 -372.9493
v  419.2386 0.0000 -372.9493
v  419.2386 7.8740 -254.8391
v  419.2386 0.0000 -254.8391
v  -250.0527 0.0000 -239.0911
v  -368.1630 0.0000 -239.0911
v  285.3803 -0.0000 414.4523
v  261.7583 -0.0000 398.7042
v  230.2623 -0.0000 398.7042
v  198.7662 -0.0000 398.7042
v  230.2623 -0.0000 280.5940
v  198.7662 -0.0000 280.5940
v  167.2701 -0.0000 398.7042
v  135.7741 -0.0000 398.7042
v  104.2780 -0.0000 398.7042
v  72.7819 -0.0000 398.7042
v  41.2859 -0.0000 398.7042
v  9.7898 -0.0000 398.7042
v  -21.7062 -0.0000 398.7042
v  -53.2023 -0.0000 398.7042
v  -84.6983 -0.0000 398.7042
v  -116.1944 -0.0000 398.7042
v  -84.6984 -0.0000 280.5940
v  -116.1944 -0.0000 280.5940
v  -147.6905 -0.0000 398.7042
v  -179.1865 -0.0000 398.7042
v  -210.6826 -0.0000 398.7042
v  -234.3047 -0.0000 414.4523
v  419.2386 0.0000 -239.0910
v  403.4906 0.0000 5.0034
v  403.4906 -0.0000 36.4995
v  9.7899 -0.0000 280.5940
v  41.2859 -0.0000 280.5940
v  72.7820 -0.0000 280.5940
v  104.2780 -0.0000 280.5940
v  135.7741 -0.0000 280.5940
v  167.2701 -0.0000 280.5940
v  261.7583 -0.0000 280.5940
v  285.3803 -0.0000 225.4759
v  -21.7062 -0.0000 280.5940
v  -53.2023 -0.0000 280.5940
v  285.3805 0.0000 -183.9729
v  285.3805 0.0000 -215.4690
v  285.3805 0.0000 -152.4769
v  285.3805 0.0000 -120.9809
v  285.3805 0.0000 -89.4848
v  285.3805 0.0000 -57.9887
v  285.3803 0.0000 -26.4927
v  285.3803 0.0000 5.0034
v  285.3803 -0.0000 36.4995
v  285.3803 -0.0000 67.9956
v  285.3803 -0.0000 99.4916
v  285.3803 -0.0000 130.9877
v  285.3803 -0.0000 161.8691
v  419.2386 -0.0000 296.3421
v  -147.6905 -0.0000 280.5940
v  -210.6826 -0.0000 280.5940
v  -179.1866 -0.0000 280.5940
v  403.4907 0.0000 -215.4690
v  403.4907 0.0000 -183.9730
v  403.4907 0.0000 -152.4769
v  403.4907 0.0000 -120.9809
v  403.4907 0.0000 -89.4848
v  403.4907 0.0000 -57.9887
v  403.4907 0.0000 -26.4927
v  403.4906 -0.0000 67.9956
v  403.4906 -0.0000 99.4916
v  403.4906 -0.0000 130.9877
v  285.3803 -0.0000 193.9798
v  403.4906 -0.0000 193.9798
v  403.4906 -0.0000 162.4838
v  285.3803 -0.0000 256.9720
v  403.4906 -0.0000 256.9720
v  403.4906 -0.0000 225.4759
v  419.2386 -0.0000 280.5941
v  285.3804 -0.0000 280.5941
v  -234.3047 0.0000 -239.0910
# 95 vertices

vn -1.0000 0.0000 -0.0000
vn 0.0000 0.0000 -1.0000
vn 1.0000 0.0000 -0.0000
vn 0.0000 -0.0000 1.0000
vn 0.0000 -1.0000 -0.0000
vn 0.0000 1.0000 0.0000
vn -0.0000 1.0000 0.0000
# 7 vertex normals

vt 0.2084 0.4161 0.0000
vt 0.2584 0.4161 0.0000
vt 0.2584 0.4661 0.0000
vt 0.2084 0.4661 0.0000
vt 0.4750 0.4757 0.0000
vt 0.4837 0.4750 0.0000
vt 0.4932 0.4949 0.0000
vt 0.4906 0.4963 0.0000
vt 0.5079 0.4760 0.0000
vt 0.5049 0.4771 0.0000
vt 0.5003 0.4784 0.0000
vt 0.5002 0.4785 0.0000
vt 0.4998 0.4820 0.0000
vt 0.4995 0.4809 0.0000
vt 0.5001 0.4785 0.0000
vt 0.5000 0.4785 0.0000
vt 0.4999 0.4785 0.0000
vt 0.4996 0.4785 0.0000
vt 0.4991 0.4786 0.0000
vt 0.4989 0.4786 0.0000
vt 0.4989 0.4799 0.0000
vt 0.4986 0.4798 0.0000
vt 0.4972 0.4791 0.0000
vt 0.4950 0.4786 0.0000
vt 0.4921 0.4781 0.0000
vt 0.4889 0.4767 0.0000
vt 0.4968 0.4965 0.0000
vt 0.5013 0.4838 0.0000
vt 0.5010 0.4838 0.0000
vt 0.4994 0.4799 0.0000
vt 0.4994 0.4800 0.0000
vt 0.4994 0.4801 0.0000
vt 0.4994 0.4803 0.0000
vt 0.5006 0.4839 0.0000
vt 0.5004 0.4844 0.0000
vt 0.4992 0.4800 0.0000
vt 0.5026 0.4841 0.0000
vt 0.5027 0.4840 0.0000
vt 0.5024 0.4842 0.0000
vt 0.5022 0.4843 0.0000
vt 0.5020 0.4843 0.0000
vt 0.5017 0.4843 0.0000
vt 0.5015 0.4843 0.0000
vt 0.5012 0.4844 0.0000
vt 0.5010 0.4844 0.0000
vt 0.5008 0.4844 0.0000
vt 0.5006 0.4844 0.0000
vt 0.5003 0.4844 0.0000
vt 0.5118 0.4756 0.0000
vt 0.5250 0.4868 0.0000
vt 0.5098 0.4936 0.0000
vt 0.5024 0.4845 0.0000
vt 0.4970 0.4964 0.0000
vt 0.4970 0.4973 0.0000
vt 0.4906 0.4973 0.0000
vt 0.4906 0.4964 0.0000
vt 0.5793 0.8801 0.0000
vt 0.5750 0.8869 0.0000
vt 0.5742 0.8851 0.0000
vt 0.5747 0.8814 0.0000
vt 0.5739 0.8840 0.0000
vt 0.5738 0.8833 0.0000
vt 0.5746 0.8816 0.0000
vt 0.5746 0.8815 0.0000
vt 0.5738 0.8832 0.0000
vt 0.5738 0.8831 0.0000
vt 0.5745 0.8816 0.0000
vt 0.5743 0.8816 0.0000
vt 0.5744 0.8816 0.0000
vt 0.5738 0.8830 0.0000
vt 0.5736 0.8830 0.0000
vt 0.5733 0.8829 0.0000
vt 0.5735 0.8816 0.0000
vt 0.5740 0.8816 0.0000
vt 0.5727 0.8827 0.0000
vt 0.5716 0.8821 0.0000
vt 0.5733 0.8816 0.0000
vt 0.5730 0.8828 0.0000
vt 0.5680 0.8851 0.0000
vt 0.5665 0.8812 0.0000
vt 0.5694 0.8816 0.0000
vt 0.5693 0.8840 0.0000
vt 0.5774 0.8874 0.0000
vt 0.5771 0.8870 0.0000
vt 0.5770 0.8872 0.0000
vt 0.5773 0.8873 0.0000
vt 0.5773 0.8872 0.0000
vt 0.5768 0.8873 0.0000
vt 0.5766 0.8873 0.0000
vt 0.5772 0.8872 0.0000
vt 0.5766 0.8869 0.0000
vt 0.5764 0.8874 0.0000
vt 0.5761 0.8874 0.0000
vt 0.5763 0.8868 0.0000
vt 0.5760 0.8868 0.0000
vt 0.5759 0.8874 0.0000
vt 0.5756 0.8874 0.0000
vt 0.5757 0.8868 0.0000
vt 0.5754 0.8869 0.0000
vt 0.5754 0.8874 0.0000
vt 0.5752 0.8874 0.0000
vt 0.5752 0.8870 0.0000
vt 0.5749 0.8871 0.0000
vt 0.5750 0.8874 0.0000
vt 0.5748 0.8874 0.0000
vt 0.5747 0.8872 0.0000
vt 0.5747 0.8875 0.0000
vt 0.5744 0.8876 0.0000
vt 0.5745 0.8874 0.0000
vt 0.5748 0.8875 0.0000
vt 0.5748 0.8877 0.0000
vt 0.5743 0.8880 0.0000
vt 0.5743 0.8878 0.0000
vt 0.5768 0.8875 0.0000
vt 0.5842 0.8966 0.0000
vt 0.5807 0.8939 0.0000
vt 0.5751 0.8881 0.0000
vt 0.5863 0.8786 0.0000
vt 0.5823 0.8791 0.0000
vt 0.5651 0.8952 0.0000
vt 0.5712 0.8996 0.0000
vt 0.5714 0.8994 0.0000
vt 0.5676 0.8979 0.0000
vt 0.5651 0.8994 0.0000
vt 0.5651 0.8993 0.0000
vt 0.5633 0.8798 0.0000
vt 0.5581 0.8781 0.0000
vt 0.5007 0.4850 0.0000
vt 0.4936 0.4821 0.0000
vt 0.4907 0.4922 0.0000
vt 0.4999 0.4849 0.0000
vt 0.5063 0.4908 0.0000
vt 0.4949 0.4809 0.0000
vt 0.5004 0.4846 0.0000
vt 0.4983 0.4797 0.0000
vt 0.4999 0.4848 0.0000
vt 0.5000 0.4846 0.0000
vt 0.5030 0.4843 0.0000
vt 0.5003 0.4842 0.0000
vt 0.5001 0.4844 0.0000
vt 0.5029 0.4842 0.0000
vt 0.5028 0.4841 0.0000
vt 0.5028 0.4842 0.0000
vt 0.5022 0.4838 0.0000
vt 0.5005 0.4840 0.0000
vt 0.5016 0.4838 0.0000
vt 0.5019 0.4838 0.0000
vt 0.5007 0.4839 0.0000
# 148 texture coords

g Road_Corner_01
usemtl Road
s off
f 1/1/1 2/2/1 3/3/1 4/4/1 
f 2/1/2 5/2/2 6/3/2 3/4/2 
f 5/1/3 7/2/3 8/3/3 6/4/3 
f 7/1/4 1/2/4 4/3/4 8/4/4 
f 4/1/5 3/2/5 6/3/5 8/4/5 
f 7/1/6 5/2/6 2/3/6 1/4/6 
f 9/1/1 10/2/1 11/3/1 12/4/1 
f 10/1/2 13/2/2 14/3/2 11/4/2 
f 13/1/3 15/2/3 16/3/3 14/4/3 
f 15/1/4 9/2/4 12/3/4 16/4/4 
f 12/1/5 11/2/5 14/3/5 16/4/5 
f 15/1/6 13/2/6 10/3/6 9/4/6 
f 10/1/1 17/2/1 18/3/1 11/4/1 
f 17/1/2 19/2/2 20/3/2 18/4/2 
f 19/1/3 21/2/3 22/3/3 20/4/3 
f 21/1/4 10/2/4 11/3/4 22/4/4 
f 11/1/5 18/2/5 20/3/5 22/4/5 
f 21/1/6 19/2/6 17/3/6 10/4/6 
s 1
f 12/5/6 16/6/6 23/7/6 24/8/6 
f 25/9/7 26/10/7 27/11/6 28/12/6 
f 27/11/6 29/13/6 30/14/6 28/12/6 
f 25/9/7 28/12/6 31/12/6 32/12/6 
f 25/9/7 32/12/6 33/12/6 34/15/6 
f 25/9/7 34/15/6 35/15/6 36/16/6 
f 25/9/7 36/16/6 37/17/6 38/18/6 
f 25/9/7 38/18/6 39/19/6 40/20/6 
f 39/19/6 41/21/7 42/22/6 40/20/6 
f 25/9/7 40/20/6 43/23/6 44/24/6 
f 25/9/7 44/24/6 45/25/6 46/26/6 
f 47/27/6 48/28/6 49/29/7 
f 50/30/6 36/16/6 35/15/6 51/31/6 
f 52/31/6 34/15/6 33/12/6 53/32/6 
f 54/32/6 32/12/6 31/12/6 55/33/6 
f 29/13/6 56/34/6 57/35/6 30/14/6 
f 55/33/6 30/14/6 57/35/6 54/32/6 
f 53/32/6 54/32/6 57/35/6 52/31/6 
f 51/31/6 52/31/6 57/35/6 50/30/6 
f 58/31/6 50/30/6 57/35/6 59/36/6 
f 60/37/6 61/38/6 41/21/7 62/39/7 
f 63/40/6 62/39/7 41/21/7 64/41/6 
f 65/42/6 64/41/6 41/21/7 66/43/6 
f 67/44/6 66/43/6 41/21/7 68/45/6 
f 69/46/6 68/45/6 41/21/7 70/47/6 
f 71/35/6 70/47/6 41/21/7 72/48/7 
f 57/35/6 72/48/7 41/21/7 59/36/6 
f 37/17/6 58/31/6 59/36/6 38/18/6 
f 4/49/6 8/50/6 73/51/6 3/52/6 
f 22/53/6 20/54/6 18/55/6 11/56/6 
f 26/57/7 56/58/6 29/59/6 27/60/6 
f 30/61/6 55/62/6 31/63/6 28/64/6 
f 33/63/6 32/63/6 54/65/6 53/66/6 
f 35/67/6 34/67/6 52/66/6 51/66/6 
f 37/68/6 36/69/6 50/70/6 58/70/6 
f 59/71/6 41/72/7 39/73/6 38/74/6 
f 74/75/6 43/76/6 40/77/6 42/78/6 
f 75/79/7 45/80/6 44/81/6 76/82/6 
f 77/83/6 61/84/6 60/85/6 78/86/7 
f 79/87/7 62/88/7 63/89/6 80/90/6 
f 81/91/6 64/92/6 65/93/6 82/94/6 
f 83/95/6 66/96/6 67/97/6 48/98/6 
f 49/99/7 68/100/6 69/101/6 84/102/7 
f 85/103/6 70/104/6 71/105/6 86/106/6 
f 72/107/7 87/107/6 88/108/7 89/109/7 
f 57/110/6 90/111/6 91/112/7 92/113/6 
f 3/114/6 73/115/6 93/116/6 94/117/6 
f 4/118/6 3/114/6 94/117/6 25/119/7 
f 95/120/6 47/121/6 22/122/6 23/123/6 
f 22/122/6 11/124/6 24/125/6 23/123/6 
f 46/126/6 95/120/6 23/123/6 16/127/6 
f 26/10/7 25/9/7 94/128/6 
f 75/129/7 46/26/6 45/25/6 
f 56/34/6 26/10/7 94/128/6 
f 95/130/6 46/26/6 75/129/7 
f 91/131/7 94/128/6 93/132/6 
f 95/130/6 75/129/7 76/133/6 
f 90/134/6 57/35/6 56/34/6 
f 76/133/6 44/24/6 43/23/6 
f 90/134/6 56/34/6 94/128/6 
f 74/135/6 76/133/6 43/23/6 
f 91/131/7 90/134/6 94/128/6 
f 95/130/6 76/133/6 74/135/6 
f 49/29/7 93/132/6 47/27/6 
f 95/130/6 74/135/6 42/22/6 
f 92/136/6 91/131/7 93/132/6 
f 95/130/6 42/22/6 41/21/7 
s off
f 87/48/7 72/48/7 57/35/7 
s 1
f 95/130/6 41/21/7 61/38/6 
f 87/48/6 57/35/6 92/136/6 
f 47/27/6 95/130/6 61/38/6 
f 88/137/7 87/48/6 92/136/6 
f 47/27/6 61/38/6 77/138/6 
f 88/137/7 92/136/6 93/132/6 
f 86/139/6 72/48/7 89/140/7 
f 89/140/7 88/137/7 93/132/6 
f 47/27/6 77/138/6 78/141/7 
f 78/141/7 60/37/6 62/39/7 
f 80/142/6 63/40/6 64/41/6 
f 78/141/7 62/39/7 79/143/7 
f 80/142/6 64/41/6 81/144/6 
f 47/27/6 79/143/7 80/142/6 
f 86/139/6 71/35/6 72/48/7 
f 47/27/6 78/141/7 79/143/7 
f 86/139/6 89/140/7 93/132/6 
f 69/46/6 70/47/6 85/145/6 
f 85/145/6 86/139/6 93/132/6 
f 47/27/6 80/142/6 81/144/6 
f 83/146/6 65/42/6 66/43/6 
f 47/27/6 81/144/6 82/147/6 
f 84/148/7 69/46/6 85/145/6 
f 82/147/6 65/42/6 83/146/6 
f 84/148/7 85/145/6 93/132/6 
f 47/27/6 82/147/6 83/146/6 
f 48/28/6 67/44/6 68/45/6 
f 47/27/6 83/146/6 48/28/6 
f 49/29/7 84/148/7 93/132/6 
f 48/28/6 68/45/6 49/29/7 
# 68 polygons - 48 triangles

