# 3ds Max Wavefront OBJ Exporter v0.97b - (c)2007 guruware
# File Created: 10.03.2017 16:53:18

mtllib Road Lane_04.mtl

#
# object Road_Lane_04
#

v  -413.0643 7.8740 442.0081
v  -413.0643 7.8741 -345.3936
v  -413.0643 0.0000 -345.3936
v  -413.0643 -0.0000 442.0081
v  -294.9541 7.8741 -345.3936
v  -294.9541 0.0000 -345.3936
v  -294.9541 7.8740 442.0081
v  -294.9541 -0.0000 442.0081
v  256.2271 7.8740 442.0081
v  256.2271 7.8741 -345.3936
v  256.2271 0.0000 -345.3936
v  256.2271 -0.0000 442.0081
v  374.3373 7.8741 -345.3936
v  374.3373 0.0000 -345.3936
v  374.3373 7.8740 442.0081
v  374.3373 -0.0000 442.0081
v  256.2270 -0.0000 315.5560
v  256.2271 -0.0000 315.5560
v  256.2270 -0.0000 323.8978
v  -294.9541 -0.0000 323.8978
v  -294.9541 -0.0000 315.5560
v  -279.2061 0.0000 -345.3936
v  -279.2061 -0.0000 308.1497
v  -27.2375 -0.0000 205.7876
v  -27.2375 -0.0000 87.6773
v  -27.2375 0.0000 8.9371
v  -27.2375 0.0000 -109.1731
v  -27.2375 0.0000 -187.9133
v  -27.2375 0.0000 -306.0235
v  240.4790 0.0000 -345.3936
v  -11.4895 0.0000 -306.0235
v  -11.4895 0.0000 -187.9133
v  -11.4895 0.0000 -109.1731
v  -11.4895 0.0000 8.9371
v  -11.4895 -0.0000 87.6773
v  -11.4895 -0.0000 205.7876
v  240.4790 -0.0000 308.1498
v  256.2270 7.8740 442.0081
v  256.2270 -0.0000 442.0081
v  -294.9541 7.8740 323.8978
v  256.2270 7.8740 323.8978
# 41 vertices

vn -1.0000 0.0000 -0.0000
vn 0.0000 0.0000 -1.0000
vn 1.0000 0.0000 -0.0000
vn 0.0000 -0.0000 1.0000
vn 0.0000 -1.0000 -0.0000
vn 0.0000 1.0000 0.0000
vn -0.0000 1.0000 0.0000
vn -0.0000 -0.0000 1.0000
# 8 vertex normals

vt 0.2177 0.4657 0.0000
vt 0.2677 0.4657 0.0000
vt 0.2677 0.5157 0.0000
vt 0.2177 0.5157 0.0000
vt 0.4750 0.4813 0.0000
vt 0.4958 0.4750 0.0000
vt 0.4972 0.4814 0.0000
vt 0.4750 0.5030 0.0000
vt 0.4854 0.5030 0.0000
vt 0.4906 0.4945 0.0000
vt 0.4894 0.4972 0.0000
vt 0.4895 0.4964 0.0000
vt 0.5205 0.4958 0.0000
vt 0.5250 0.5030 0.0000
vt 0.5160 0.4942 0.0000
vt 0.4920 0.4958 0.0000
vt 0.4967 0.4894 0.0000
vt 0.5002 0.4898 0.0000
vt 0.5014 0.4903 0.0000
vt 0.5034 0.4900 0.0000
vt 0.5043 0.4888 0.0000
vt 0.5067 0.4873 0.0000
vt 0.5003 0.4818 0.0000
vt 0.5057 0.4867 0.0000
vt 0.5030 0.4888 0.0000
vt 0.5014 0.4900 0.0000
vt 0.5005 0.4894 0.0000
vt 0.4979 0.4888 0.0000
vt 0.4967 0.4863 0.0000
vt 0.5501 0.8894 0.0000
vt 0.5498 0.8897 0.0000
vt 0.5463 0.8893 0.0000
vt 0.5475 0.8888 0.0000
vt 0.5530 0.8899 0.0000
vt 0.5510 0.8902 0.0000
vt 0.5511 0.8900 0.0000
vt 0.5563 0.8873 0.0000
vt 0.5539 0.8887 0.0000
vt 0.5526 0.8888 0.0000
vt 0.5553 0.8867 0.0000
vt 0.5402 0.8945 0.0000
vt 0.5416 0.8957 0.0000
vt 0.5656 0.8942 0.0000
vt 0.5701 0.8957 0.0000
vt 0.5390 0.8971 0.0000
vt 0.5391 0.8963 0.0000
vt 0.5474 0.8877 0.0000
vt 0.5463 0.8862 0.0000
vt 0.5468 0.8814 0.0000
vt 0.5499 0.8818 0.0000
vt 0.5465 0.8853 0.0000
# 51 texture coords

g Road_Lane_04
usemtl Road
s off
f 1/1/1 2/2/1 3/3/1 4/4/1 
f 2/1/2 5/2/2 6/3/2 3/4/2 
f 5/1/3 7/2/3 8/3/3 6/4/3 
f 7/1/4 1/2/4 4/3/4 8/4/4 
f 4/1/5 3/2/5 6/3/5 8/4/5 
f 7/1/6 5/2/6 2/3/6 1/4/6 
f 9/1/1 10/2/1 11/3/1 12/4/1 
f 10/1/2 13/2/2 14/3/2 11/4/2 
f 13/1/3 15/2/3 16/3/3 14/4/3 
f 15/1/4 9/2/4 12/3/4 16/4/4 
f 12/1/5 11/2/5 14/3/5 16/4/5 
f 15/1/6 13/2/6 10/3/6 9/4/6 
s 1
f 16/5/7 14/6/6 11/7/6 17/8/7 
f 11/7/6 18/8/7 17/8/7 
f 16/5/7 17/8/7 19/8/7 4/9/7 
f 4/9/7 19/8/7 20/10/6 21/11/6 
f 20/10/6 21/12/5 21/11/6 
f 4/9/7 21/11/6 6/13/7 3/14/6 
f 22/15/6 23/16/7 24/17/7 25/18/7 
f 22/15/6 25/18/7 26/19/7 27/20/6 
f 22/15/6 27/20/6 28/21/6 29/22/6 
f 30/23/7 22/15/6 29/22/6 31/24/7 
f 32/25/6 28/21/6 27/20/6 33/20/6 
f 34/26/7 26/19/7 25/18/7 35/27/7 
f 36/28/6 24/17/7 23/16/7 37/29/6 
f 35/27/7 36/28/6 37/29/6 34/26/7 
f 33/20/6 34/26/7 37/29/6 32/25/6 
f 31/24/7 32/25/6 37/29/6 30/23/7 
f 35/30/7 25/31/7 24/32/7 36/33/6 
f 33/34/6 27/34/6 26/35/7 34/36/7 
f 29/37/6 28/38/6 32/39/6 31/40/7 
f 20/41/6 23/42/7 22/43/6 
f 22/43/6 6/44/7 21/45/6 
f 20/41/6 22/43/6 21/45/6 
f 20/41/3 21/45/5 21/46/5 
f 19/47/7 37/48/6 23/42/7 20/41/6 
f 11/49/6 30/50/7 37/48/6 19/47/7 
f 11/49/6 19/47/7 18/51/7 
s off
f 38/1/8 7/2/8 8/3/8 39/4/8 
f 7/1/1 40/2/1 20/3/1 8/4/1 
f 40/1/2 41/2/2 19/3/2 20/4/2 
f 41/1/3 38/2/3 39/3/3 19/4/3 
f 39/1/5 8/2/5 20/3/5 19/4/5 
f 41/1/6 40/2/6 7/3/6 38/4/6 
# 37 polygons - 7 triangles

