# 3ds Max Wavefront OBJ Exporter v0.97b - (c)2007 guruware
# File Created: 10.03.2017 16:50:11

mtllib Road Corner_02.mtl

#
# object Road_Corner_02
#

v  -597.2405 -0.0000 640.7204
v  190.1611 -0.0000 640.7204
v  190.1611 0.0000 -146.6812
v  -597.2405 0.0000 -146.6812
v  -597.2405 7.8740 -28.5710
v  -597.2405 7.8741 -146.6812
v  -597.2405 0.0000 -28.5710
v  190.1611 7.8741 -146.6812
v  190.1611 7.8740 -28.5710
v  190.1611 0.0000 -28.5710
v  -597.2404 7.8740 640.7204
v  -597.2404 7.8740 -28.5710
v  -597.2404 0.0000 -28.5710
v  -597.2404 -0.0000 640.7204
v  -479.1302 7.8740 -28.5710
v  -479.1302 0.0000 -28.5710
v  -479.1302 7.8740 640.7204
v  -479.1302 -0.0000 640.7204
v  72.0510 7.8740 640.7204
v  72.0510 7.8740 522.6102
v  72.0510 -0.0000 522.6102
v  72.0510 -0.0000 640.7204
v  190.1612 7.8740 522.6102
v  190.1612 -0.0000 522.6102
v  190.1612 7.8740 640.7204
v  190.1612 -0.0000 640.7204
# 26 vertices

vn 0.0000 1.0000 0.0000
vn -1.0000 0.0000 -0.0000
vn 0.0000 0.0000 -1.0000
vn 1.0000 0.0000 -0.0000
vn 0.0000 -0.0000 1.0000
vn 0.0000 -1.0000 -0.0000
# 6 vertex normals

vt 0.4750 0.4750 0.0000
vt 0.5250 0.4750 0.0000
vt 0.5250 0.5250 0.0000
vt 0.4750 0.5250 0.0000
vt 0.2022 0.5339 0.0000
vt 0.2522 0.5339 0.0000
vt 0.2522 0.5839 0.0000
vt 0.2022 0.5839 0.0000
# 8 texture coords

g Road_Corner_02
usemtl Road
s off
f 1/1/1 2/2/1 3/3/1 4/4/1 
f 5/5/2 6/6/2 4/7/2 7/8/2 
f 6/5/3 8/6/3 3/7/3 4/8/3 
f 8/5/4 9/6/4 10/7/4 3/8/4 
f 9/5/5 5/6/5 7/7/5 10/8/5 
f 7/5/6 4/6/6 3/7/6 10/8/6 
f 9/5/1 8/6/1 6/7/1 5/8/1 
f 11/5/2 12/6/2 13/7/2 14/8/2 
f 12/5/3 15/6/3 16/7/3 13/8/3 
f 15/5/4 17/6/4 18/7/4 16/8/4 
f 17/5/5 11/6/5 14/7/5 18/8/5 
f 14/5/6 13/6/6 16/7/6 18/8/6 
f 17/5/1 15/6/1 12/7/1 11/8/1 
f 19/5/2 20/6/2 21/7/2 22/8/2 
f 20/5/3 23/6/3 24/7/3 21/8/3 
f 23/5/4 25/6/4 26/7/4 24/8/4 
f 25/5/5 19/6/5 22/7/5 26/8/5 
f 22/5/6 21/6/6 24/7/6 26/8/6 
f 25/5/1 23/6/1 20/7/1 19/8/1 
# 19 polygons

