# 3ds Max Wavefront OBJ Exporter v0.97b - (c)2007 guruware
# File Created: 10.03.2017 16:54:05

mtllib Road T_Intersection_01.mtl

#
# object Road_T_Intersection_01
#

v  98.5037 7.8740 525.2062
v  98.5037 7.8740 407.0960
v  98.5037 -0.0000 407.0960
v  98.5037 -0.0000 525.2062
v  216.6139 7.8740 407.0960
v  216.6139 -0.0000 407.0960
v  216.6139 7.8740 525.2062
v  216.6139 -0.0000 525.2062
v  -570.7877 7.8740 525.2062
v  -570.7877 7.8740 407.0960
v  -570.7877 -0.0000 407.0960
v  -570.7877 -0.0000 525.2062
v  -452.6775 7.8740 407.0960
v  -452.6775 -0.0000 407.0960
v  -452.6775 7.8740 525.2062
v  -452.6775 -0.0000 525.2062
v  -570.7877 7.8740 -144.0851
v  -570.7877 7.8741 -262.1954
v  -570.7877 0.0000 -262.1954
v  -570.7877 0.0000 -144.0851
v  216.6139 7.8741 -262.1954
v  216.6139 0.0000 -262.1954
v  216.6139 7.8740 -144.0851
v  216.6139 0.0000 -144.0851
v  -452.6774 -0.0000 525.2062
v  -452.6774 -0.0000 407.0960
v  -570.7877 -0.0000 407.0961
v  -570.7877 -0.0000 391.3481
v  -555.0398 -0.0000 367.7260
v  -555.0397 -0.0000 336.2299
v  -555.0397 -0.0000 304.7338
v  -555.0397 -0.0000 273.2377
v  -555.0397 -0.0000 241.7417
v  -555.0397 -0.0000 210.2456
v  -555.0397 -0.0000 178.7496
v  -555.0397 -0.0000 147.2535
v  -555.0397 0.0000 115.7574
v  -555.0396 0.0000 -41.7229
v  -436.9294 0.0000 -73.2189
v  -555.0396 0.0000 -73.2189
v  -570.7877 0.0000 -128.3371
v  -555.0397 0.0000 -104.7150
v  -555.0397 0.0000 -10.2268
v  -555.0397 0.0000 21.2692
v  -555.0397 0.0000 52.7653
v  -555.0397 0.0000 84.2614
v  216.6139 -0.0000 391.3480
v  200.8658 -0.0000 304.7338
v  200.8658 -0.0000 336.2299
v  -436.9294 0.0000 -104.7150
v  82.7557 0.0000 -41.7230
v  -436.9294 0.0000 -41.7229
v  -413.3074 -0.0000 391.3480
v  -436.9294 0.0000 -10.2268
v  -436.9294 0.0000 21.2692
v  -436.9294 0.0000 52.7653
v  -436.9294 0.0000 84.2614
v  -436.9294 0.0000 115.7574
v  -436.9294 -0.0000 147.2535
v  -436.9294 -0.0000 178.7496
v  -436.9294 -0.0000 210.2456
v  -436.9294 -0.0000 241.7417
v  -436.9294 -0.0000 273.2377
v  -436.9294 -0.0000 304.7338
v  -436.9294 -0.0000 336.2299
v  -436.9295 -0.0000 367.7260
v  -436.9294 -0.0000 391.3480
v  -436.9294 -0.0000 525.2062
v  -413.3074 -0.0000 509.4582
v  -381.8113 -0.0000 391.3480
v  -381.8113 -0.0000 509.4582
v  -350.3152 -0.0000 509.4582
v  -350.3152 -0.0000 391.3480
v  -255.8270 -0.0000 391.3480
v  -255.8270 -0.0000 509.4582
v  -224.3310 -0.0000 509.4582
v  -224.3310 -0.0000 391.3480
v  -192.8349 -0.0000 391.3480
v  -192.8349 -0.0000 509.4582
v  -161.3389 -0.0000 509.4582
v  -161.3388 -0.0000 391.3480
v  -129.8428 -0.0000 391.3480
v  -129.8428 -0.0000 509.4582
v  -98.3467 -0.0000 509.4582
v  -98.3467 -0.0000 391.3480
v  -66.8507 -0.0000 391.3480
v  -66.8507 -0.0000 509.4582
v  -35.3546 -0.0000 509.4582
v  -35.3546 -0.0000 391.3480
v  27.6375 -0.0000 391.3480
v  59.1336 -0.0000 391.3480
v  82.7556 -0.0000 336.2299
v  -3.8586 -0.0000 391.3480
v  -287.3231 -0.0000 391.3480
v  -318.8192 -0.0000 391.3480
v  82.7556 -0.0000 273.2378
v  82.7556 -0.0000 241.7417
v  82.7556 -0.0000 210.2456
v  82.7556 -0.0000 178.7495
v  82.7556 -0.0000 147.2534
v  82.7556 0.0000 115.7574
v  82.7556 0.0000 84.2613
v  82.7557 0.0000 52.7652
v  82.7557 0.0000 21.2692
v  82.7557 0.0000 -10.2269
v  82.7557 0.0000 -73.2190
v  82.7557 0.0000 -104.7150
v  216.6139 0.0000 -128.3371
v  200.8659 0.0000 -104.7150
v  200.8659 0.0000 -73.2190
v  200.8659 0.0000 -41.7230
v  27.6375 -0.0000 509.4582
v  59.1336 -0.0000 509.4582
v  -318.8192 -0.0000 509.4582
v  -287.3231 -0.0000 509.4582
v  -3.8586 -0.0000 509.4582
v  98.5036 -0.0000 525.2062
v  98.5037 -0.0000 407.0959
v  200.8659 0.0000 -10.2269
v  200.8659 0.0000 52.7653
v  200.8659 0.0000 21.2692
v  200.8658 0.0000 115.7574
v  200.8659 0.0000 84.2613
v  200.8658 -0.0000 178.7495
v  200.8658 -0.0000 147.2535
v  200.8658 -0.0000 241.7417
v  200.8658 -0.0000 210.2456
v  82.7556 -0.0000 304.7338
v  200.8658 -0.0000 273.2377
v  82.7556 -0.0000 367.7260
v  200.8658 -0.0000 367.7260
v  82.7556 -0.0000 391.3480
v  82.7556 -0.0000 525.2062
# 133 vertices

vn -1.0000 0.0000 -0.0000
vn 0.0000 0.0000 -1.0000
vn 1.0000 0.0000 -0.0000
vn 0.0000 -0.0000 1.0000
vn 0.0000 -1.0000 -0.0000
vn 0.0000 1.0000 0.0000
vn -0.0000 1.0000 0.0000
# 7 vertex normals

vt 0.2301 0.4316 0.0000
vt 0.2801 0.4316 0.0000
vt 0.2801 0.4816 0.0000
vt 0.2301 0.4816 0.0000
vt 0.4750 0.4750 0.0000
vt 0.4830 0.4750 0.0000
vt 0.4814 0.4783 0.0000
vt 0.4817 0.4809 0.0000
vt 0.4809 0.4811 0.0000
vt 0.4801 0.4815 0.0000
vt 0.4806 0.4829 0.0000
vt 0.4811 0.4842 0.0000
vt 0.4815 0.4853 0.0000
vt 0.4819 0.4864 0.0000
vt 0.4823 0.4874 0.0000
vt 0.4827 0.4884 0.0000
vt 0.4830 0.4892 0.0000
vt 0.4834 0.4901 0.0000
vt 0.4856 0.4935 0.0000
vt 0.4871 0.4935 0.0000
vt 0.4861 0.4940 0.0000
vt 0.4865 0.4951 0.0000
vt 0.4866 0.4944 0.0000
vt 0.4851 0.4930 0.0000
vt 0.4847 0.4923 0.0000
vt 0.4842 0.4916 0.0000
vt 0.4838 0.4909 0.0000
vt 0.5110 0.4908 0.0000
vt 0.4976 0.4866 0.0000
vt 0.4974 0.4863 0.0000
vt 0.4870 0.4941 0.0000
vt 0.4995 0.4917 0.0000
vt 0.4871 0.4929 0.0000
vt 0.4883 0.4814 0.0000
vt 0.4870 0.4922 0.0000
vt 0.4869 0.4915 0.0000
vt 0.4868 0.4908 0.0000
vt 0.4866 0.4900 0.0000
vt 0.4864 0.4893 0.0000
vt 0.4863 0.4885 0.0000
vt 0.4861 0.4876 0.0000
vt 0.4860 0.4868 0.0000
vt 0.4859 0.4859 0.0000
vt 0.4859 0.4850 0.0000
vt 0.4860 0.4841 0.0000
vt 0.4862 0.4831 0.0000
vt 0.4866 0.4821 0.0000
vt 0.4871 0.4814 0.0000
vt 0.4867 0.4755 0.0000
vt 0.4890 0.4769 0.0000
vt 0.4910 0.4811 0.0000
vt 0.4915 0.4779 0.0000
vt 0.4938 0.4780 0.0000
vt 0.4948 0.4789 0.0000
vt 0.4987 0.4811 0.0000
vt 0.4978 0.4821 0.0000
vt 0.4973 0.4820 0.0000
vt 0.4982 0.4808 0.0000
vt 0.4978 0.4805 0.0000
vt 0.4968 0.4817 0.0000
vt 0.4963 0.4815 0.0000
vt 0.4973 0.4803 0.0000
vt 0.4969 0.4801 0.0000
vt 0.4959 0.4811 0.0000
vt 0.4954 0.4808 0.0000
vt 0.4964 0.4800 0.0000
vt 0.4961 0.4799 0.0000
vt 0.4950 0.4804 0.0000
vt 0.4955 0.4817 0.0000
vt 0.4934 0.4823 0.0000
vt 0.4949 0.4838 0.0000
vt 0.4957 0.4844 0.0000
vt 0.4961 0.4857 0.0000
vt 0.4941 0.4831 0.0000
vt 0.5007 0.4822 0.0000
vt 0.4955 0.4799 0.0000
vt 0.4962 0.4869 0.0000
vt 0.4964 0.4875 0.0000
vt 0.4966 0.4880 0.0000
vt 0.4969 0.4885 0.0000
vt 0.4973 0.4891 0.0000
vt 0.4977 0.4895 0.0000
vt 0.4981 0.4899 0.0000
vt 0.4987 0.4903 0.0000
vt 0.4993 0.4906 0.0000
vt 0.5001 0.4908 0.0000
vt 0.4991 0.4926 0.0000
vt 0.4987 0.4934 0.0000
vt 0.5005 0.4942 0.0000
vt 0.5006 0.4940 0.0000
vt 0.5011 0.4937 0.0000
vt 0.5013 0.4935 0.0000
vt 0.5469 0.8934 0.0000
vt 0.5441 0.8938 0.0000
vt 0.5448 0.8892 0.0000
vt 0.5473 0.8902 0.0000
vt 0.5515 0.8967 0.0000
vt 0.5507 0.8962 0.0000
vt 0.5522 0.8947 0.0000
vt 0.5531 0.8957 0.0000
vt 0.5513 0.8923 0.0000
vt 0.5506 0.8912 0.0000
vt 0.5496 0.8904 0.0000
vt 0.5513 0.8895 0.0000
vt 0.5536 0.8929 0.0000
vt 0.5540 0.8931 0.0000
vt 0.5531 0.8943 0.0000
vt 0.5526 0.8941 0.0000
vt 0.5519 0.8923 0.0000
vt 0.5522 0.8923 0.0000
vt 0.5512 0.8931 0.0000
vt 0.5508 0.8927 0.0000
vt 0.5536 0.8945 0.0000
vt 0.5545 0.8934 0.0000
vt 0.5565 0.8945 0.0000
vt 0.5545 0.8946 0.0000
vt 0.5527 0.8925 0.0000
vt 0.5531 0.8927 0.0000
vt 0.5521 0.8938 0.0000
vt 0.5517 0.8935 0.0000
vt 0.5499 0.8955 0.0000
vt 0.5492 0.8947 0.0000
vt 0.5513 0.8940 0.0000
vt 0.5518 0.8944 0.0000
vt 0.5154 0.4797 0.0000
vt 0.5250 0.4881 0.0000
vt 0.5136 0.4927 0.0000
vt 0.5088 0.4857 0.0000
vt 0.5005 0.4945 0.0000
vt 0.5007 0.4966 0.0000
vt 0.4866 0.4975 0.0000
vt 0.4865 0.4954 0.0000
vt 0.5428 0.9065 0.0000
vt 0.5424 0.9068 0.0000
vt 0.5419 0.9064 0.0000
vt 0.5429 0.9059 0.0000
vt 0.5414 0.9059 0.0000
vt 0.5409 0.9053 0.0000
vt 0.5428 0.9046 0.0000
vt 0.5429 0.9052 0.0000
vt 0.5405 0.9047 0.0000
vt 0.5400 0.9040 0.0000
vt 0.5426 0.9031 0.0000
vt 0.5427 0.9039 0.0000
vt 0.5396 0.9032 0.0000
vt 0.5392 0.9024 0.0000
vt 0.5422 0.9016 0.0000
vt 0.5424 0.9024 0.0000
vt 0.5388 0.9016 0.0000
vt 0.5385 0.9007 0.0000
vt 0.5419 0.9000 0.0000
vt 0.5421 0.9008 0.0000
vt 0.5381 0.8998 0.0000
vt 0.5377 0.8988 0.0000
vt 0.5417 0.8983 0.0000
vt 0.5418 0.8992 0.0000
vt 0.5373 0.8977 0.0000
vt 0.5369 0.8965 0.0000
vt 0.5418 0.8964 0.0000
vt 0.5418 0.8974 0.0000
vt 0.5364 0.8953 0.0000
vt 0.5360 0.8938 0.0000
vt 0.5424 0.8945 0.0000
vt 0.5420 0.8955 0.0000
vt 0.5571 0.9059 0.0000
vt 0.5553 0.9041 0.0000
vt 0.5559 0.9032 0.0000
vt 0.5574 0.9057 0.0000
vt 0.5569 0.9060 0.0000
vt 0.5564 0.9063 0.0000
vt 0.5545 0.9058 0.0000
vt 0.5549 0.9049 0.0000
vt 0.5551 0.9029 0.0000
vt 0.5545 0.9026 0.0000
vt 0.5545 0.9016 0.0000
vt 0.5546 0.9017 0.0000
vt 0.5539 0.9023 0.0000
vt 0.5535 0.9019 0.0000
vt 0.5545 0.9015 0.0000
vt 0.5531 0.9014 0.0000
vt 0.5527 0.9009 0.0000
vt 0.5539 0.9001 0.0000
vt 0.5545 0.9012 0.0000
vt 0.5524 0.9004 0.0000
vt 0.5522 0.8998 0.0000
vt 0.5538 0.8998 0.0000
vt 0.5538 0.9000 0.0000
vt 0.5520 0.8993 0.0000
vt 0.5519 0.8987 0.0000
vt 0.5534 0.8990 0.0000
vt 0.5536 0.8994 0.0000
vt 0.5519 0.8980 0.0000
vt 0.5519 0.8975 0.0000
vt 0.5530 0.8983 0.0000
vt 0.5532 0.8986 0.0000
vt 0.5646 0.8980 0.0000
vt 0.5695 0.9051 0.0000
vt 0.5668 0.9032 0.0000
vt 0.5635 0.8982 0.0000
vt 0.5712 0.8920 0.0000
vt 0.5678 0.8924 0.0000
vt 0.5429 0.8938 0.0000
vt 0.5367 0.8935 0.0000
vt 0.5375 0.8933 0.0000
vt 0.5372 0.8907 0.0000
vt 0.5425 0.8879 0.0000
vt 0.5388 0.8874 0.0000
vt 0.5563 0.9066 0.0000
vt 0.5564 0.9068 0.0000
vt 0.5423 0.9077 0.0000
vt 0.5423 0.9075 0.0000
vt 0.5120 0.4801 0.0000
vt 0.4954 0.4771 0.0000
vt 0.5016 0.4934 0.0000
vt 0.4987 0.4823 0.0000
vt 0.4988 0.4893 0.0000
vt 0.4987 0.4893 0.0000
vt 0.4987 0.4892 0.0000
vt 0.4987 0.4891 0.0000
vt 0.4986 0.4888 0.0000
vt 0.4960 0.4820 0.0000
vt 0.4981 0.4877 0.0000
vt 0.4980 0.4876 0.0000
vt 0.4964 0.4824 0.0000
vt 0.4973 0.4833 0.0000
vt 0.4980 0.4875 0.0000
vt 0.5077 0.4858 0.0000
vt 0.4978 0.4871 0.0000
vt 0.4972 0.4860 0.0000
vt 0.4961 0.4863 0.0000
vt 0.4960 0.4851 0.0000
# 231 texture coords

g Road_T_Intersection_01
usemtl Road
s off
f 1/1/1 2/2/1 3/3/1 4/4/1 
f 2/1/2 5/2/2 6/3/2 3/4/2 
f 5/1/3 7/2/3 8/3/3 6/4/3 
f 7/1/4 1/2/4 4/3/4 8/4/4 
f 4/1/5 3/2/5 6/3/5 8/4/5 
f 7/1/6 5/2/6 2/3/6 1/4/6 
f 9/1/1 10/2/1 11/3/1 12/4/1 
f 10/1/2 13/2/2 14/3/2 11/4/2 
f 13/1/3 15/2/3 16/3/3 14/4/3 
f 15/1/4 9/2/4 12/3/4 16/4/4 
f 12/1/5 11/2/5 14/3/5 16/4/5 
f 15/1/6 13/2/6 10/3/6 9/4/6 
f 17/1/1 18/2/1 19/3/1 20/4/1 
f 18/1/2 21/2/2 22/3/2 19/4/2 
f 21/1/3 23/2/3 24/3/3 22/4/3 
f 23/1/4 17/2/4 20/3/4 24/4/4 
f 20/1/5 19/2/5 22/3/5 24/4/5 
f 23/1/6 21/2/6 18/3/6 17/4/6 
s 1
f 12/5/7 25/6/6 26/7/7 27/8/6 
f 28/9/7 29/10/6 30/11/6 31/12/6 
f 28/9/7 31/12/6 32/13/6 33/14/7 
f 28/9/7 33/14/7 34/15/6 35/16/6 
f 28/9/7 35/16/6 36/17/6 37/18/6 
f 38/19/7 39/20/7 40/21/7 41/22/7 
f 40/21/7 42/23/7 41/22/7 
f 43/24/6 38/19/7 41/22/7 44/25/7 
f 45/26/6 44/25/7 41/22/7 46/27/6 
f 37/18/6 46/27/6 41/22/7 28/9/7 
f 27/8/6 28/9/7 41/22/7 12/5/7 
f 47/28/7 48/29/7 49/30/6 
f 41/22/7 42/23/7 50/31/6 51/32/6 
f 39/20/7 38/19/7 52/33/6 53/34/7 
f 54/35/7 43/24/6 44/25/7 55/36/6 
f 56/37/7 45/26/6 46/27/6 57/38/7 
f 58/39/7 37/18/6 36/17/6 59/40/6 
f 60/41/6 35/16/6 34/15/6 61/42/7 
f 62/43/6 33/14/7 32/13/6 63/44/6 
f 64/45/7 31/12/6 30/11/6 65/46/6 
f 66/47/7 29/10/6 28/9/7 67/48/7 
f 67/48/7 68/49/7 69/50/7 53/34/7 
f 66/47/7 67/48/7 53/34/7 65/46/6 
f 64/45/7 65/46/6 53/34/7 63/44/6 
f 62/43/6 63/44/6 53/34/7 61/42/7 
f 60/41/6 61/42/7 53/34/7 59/40/6 
f 58/39/7 59/40/6 53/34/7 57/38/7 
f 56/37/7 57/38/7 53/34/7 55/36/6 
f 54/35/7 55/36/6 53/34/7 52/33/6 
f 70/51/6 71/52/6 72/53/6 73/54/6 
f 74/55/6 75/56/6 76/57/6 77/58/6 
f 78/59/6 79/60/6 80/61/6 81/62/6 
f 82/63/6 83/64/6 84/65/6 85/66/6 
f 86/67/6 87/68/6 88/69/6 89/70/6 
f 90/71/6 91/72/7 92/73/6 93/74/6 
f 89/70/6 93/74/6 92/73/6 86/67/6 
f 85/66/6 86/67/6 92/73/6 82/63/6 
f 81/62/6 82/63/6 92/73/6 78/59/6 
f 77/58/6 78/59/6 92/73/6 74/55/6 
f 94/75/6 74/55/6 92/73/6 95/76/6 
f 73/54/6 95/76/6 92/73/6 70/51/6 
f 53/34/7 70/51/6 92/73/6 39/20/7 
f 50/31/6 39/20/7 92/73/6 96/77/6 
f 50/31/6 96/77/6 97/78/7 98/79/7 
f 50/31/6 98/79/7 99/80/6 100/81/6 
f 50/31/6 100/81/6 101/82/6 102/83/6 
f 50/31/6 102/83/6 103/84/6 104/85/6 
f 50/31/6 104/85/6 105/86/6 51/32/6 
f 41/22/7 51/32/6 106/87/6 107/88/7 
f 41/22/7 107/88/7 108/89/7 
f 108/89/7 107/88/7 109/90/6 110/91/7 
f 110/91/7 106/87/6 51/32/6 111/92/7 
f 108/89/7 110/91/7 111/92/7 47/28/7 
f 70/93/6 53/94/7 69/95/7 71/96/6 
f 91/97/7 90/98/6 112/99/6 113/100/6 
f 95/101/6 73/102/6 72/103/6 114/104/6 
f 78/105/6 77/106/6 76/107/6 79/108/6 
f 86/109/6 85/110/6 84/111/6 87/112/6 
f 75/113/6 74/114/6 94/115/6 115/116/6 
f 82/117/6 81/118/6 80/119/6 83/120/6 
f 93/121/6 89/122/6 88/123/6 116/124/6 
f 117/125/6 8/126/6 6/127/7 118/128/6 
f 24/129/7 22/130/6 19/131/7 20/132/7 
f 50/133/6 42/134/7 40/135/7 39/136/7 
f 38/137/7 43/138/6 54/139/7 52/140/6 
f 44/141/7 45/142/6 56/143/7 55/144/6 
f 46/145/6 37/146/6 58/147/7 57/148/7 
f 36/149/6 35/150/6 60/151/6 59/152/6 
f 34/153/6 33/154/7 62/155/6 61/156/7 
f 32/157/6 31/158/6 64/159/7 63/160/6 
f 30/161/6 29/162/6 66/163/7 65/164/6 
f 111/165/7 51/166/6 105/167/6 119/168/6 
f 110/169/7 109/170/6 107/171/7 106/172/6 
f 104/173/6 103/174/6 120/175/7 121/176/7 
f 102/177/6 101/178/6 122/179/7 123/175/7 
f 100/180/6 99/181/6 124/182/6 125/183/7 
f 98/184/7 97/185/7 126/186/6 127/187/6 
f 96/188/6 128/189/6 48/190/7 129/191/7 
f 92/192/6 130/193/6 131/194/7 49/195/6 
f 118/196/6 6/197/7 47/198/7 132/199/7 
f 117/200/6 118/196/6 132/199/7 133/201/6 
f 67/202/7 28/203/7 27/204/6 26/205/7 
f 68/206/7 67/202/7 26/205/7 25/207/6 
f 108/208/7 24/209/7 20/210/7 41/211/7 
f 79/60/6 68/49/7 133/212/6 
f 68/49/7 71/52/6 69/50/7 
f 94/75/6 95/76/6 114/213/6 
f 68/49/7 72/53/6 71/52/6 
f 47/28/7 111/92/7 119/214/6 
f 114/213/6 72/53/6 68/49/7 
f 119/214/6 105/86/6 104/85/6 
f 115/215/6 94/75/6 114/213/6 
f 119/214/6 104/85/6 121/216/7 
f 115/215/6 114/213/6 68/49/7 
f 47/28/7 119/214/6 121/216/7 
f 75/56/6 115/215/6 68/49/7 
f 47/28/7 121/216/7 120/217/7 
f 76/57/6 75/56/6 68/49/7 
f 123/218/7 103/84/6 102/83/6 
f 79/60/6 76/57/6 68/49/7 
f 120/217/7 103/84/6 123/218/7 
f 80/61/6 79/60/6 133/212/6 
f 47/28/7 120/217/7 123/218/7 
f 83/64/6 80/61/6 133/212/6 
f 47/28/7 123/218/7 122/219/7 
f 84/65/6 83/64/6 133/212/6 
f 122/219/7 101/82/6 100/81/6 
f 87/68/6 84/65/6 133/212/6 
f 122/219/7 100/81/6 125/220/7 
f 88/69/6 87/68/6 133/212/6 
f 47/28/7 122/219/7 125/220/7 
f 116/221/6 88/69/6 133/212/6 
f 47/28/7 125/220/7 124/222/6 
f 90/71/6 93/74/6 116/221/6 
f 127/223/6 99/80/6 98/79/7 
f 112/224/6 90/71/6 116/221/6 
f 124/222/6 99/80/6 127/223/6 
f 112/224/6 116/221/6 133/212/6 
f 47/28/7 124/222/6 127/223/6 
f 113/225/6 112/224/6 133/212/6 
f 47/28/7 127/223/6 126/226/6 
f 113/225/6 133/212/6 132/227/7 
f 129/228/7 97/78/7 96/77/6 
f 91/72/7 113/225/6 132/227/7 
f 126/226/6 97/78/7 129/228/7 
f 131/229/7 132/227/7 47/28/7 
f 47/28/7 126/226/6 129/228/7 
s off
f 128/230/6 96/77/6 92/73/6 
s 1
f 47/28/7 129/228/7 48/29/7 
f 49/30/6 128/230/6 92/73/6 
f 130/231/6 92/73/6 91/72/7 
f 48/29/7 128/230/6 49/30/6 
f 132/227/7 130/231/6 91/72/7 
f 47/28/7 49/30/6 131/229/7 
f 131/229/7 130/231/6 132/227/7 
# 99 polygons - 54 triangles

