# 3ds Max Wavefront OBJ Exporter v0.97b - (c)2007 guruware
# File Created: 10.03.2017 16:49:26

mtllib Road Concrete Tile.mtl

#
# object Road_Concrete_Tile
#

v  -483.8580 -0.0000 420.6552
v  303.5436 -0.0000 420.6552
v  303.5436 0.0000 -366.7465
v  -483.8580 0.0000 -366.7465
# 4 vertices

vn 0.0000 1.0000 0.0000
# 1 vertex normals

vt 0.0441 0.4347 0.0000
vt 0.0940 0.4347 0.0000
vt 0.0940 0.4847 0.0000
vt 0.0441 0.4847 0.0000
# 4 texture coords

g Road_Concrete_Tile
usemtl Road
s off
f 1/1/1 2/2/1 3/3/1 4/4/1 
# 1 polygons

