# 3ds Max Wavefront OBJ Exporter v0.97b - (c)2007 guruware
# File Created: 10.03.2017 16:54:44

mtllib Road Tile Small.mtl

#
# object Road_Tile_Small
#

v  -204.1147 -0.0000 196.0288
v  189.5861 -0.0000 196.0288
v  189.5861 0.0000 -197.6720
v  -204.1147 0.0000 -197.6720
# 4 vertices

vn 0.0000 1.0000 0.0000
# 1 vertex normals

vt 0.4750 0.4750 0.0000
vt 0.5250 0.4750 0.0000
vt 0.5250 0.5250 0.0000
vt 0.4750 0.5250 0.0000
# 4 texture coords

g Road_Tile_Small
usemtl Road
s off
f 1/1/1 2/2/1 3/3/1 4/4/1 
# 1 polygons

